<?xml version="1.0" encoding="utf-8"?>
<!-- Generator: Adobe Illustrator 17.0.0, SVG Export Plug-In . SVG Version: 6.00 Build 0)  -->
<!DOCTYPE svg PUBLIC "-//W3C//DTD SVG 1.1//EN" "http://www.w3.org/Graphics/SVG/1.1/DTD/svg11.dtd">
<svg version="1.1" id="Calque_1" xmlns="http://www.w3.org/2000/svg" xmlns:xlink="http://www.w3.org/1999/xlink" x="0px" y="0px"
	 width="183.932px" height="109.512px" viewBox="0 0 183.932 109.512" enable-background="new 0 0 183.932 109.512"
	 xml:space="preserve">
<ellipse transform="matrix(0.828 -0.5607 0.5607 0.828 -14.3177 59.8992)" fill="none" stroke="#1D1D1B" stroke-width="0.4192" stroke-miterlimit="10" cx="90.484" cy="53.289" rx="31.669" ry="18.669"/>
<path fill="#1D1D1B" d="M94.293,44.02c0.038,0.165-0.021,0.578-0.176,1.24c-0.156,0.662-0.18,1.29-0.072,1.884
	c0.157,0.927,0.604,1.936,1.342,3.026c0.76,1.122,1.452,1.894,2.075,2.314c0.363,0.231,0.853,0.4,1.469,0.507
	c0.617,0.107,1.118,0.292,1.503,0.556c-0.045,0.173-0.225,0.375-0.54,0.604c0.181,0.419,0.22,0.841,0.119,1.267
	c-0.102,0.426-0.324,0.756-0.668,0.988c-0.333,0.225-0.716,0.302-1.148,0.229c-0.432-0.073-0.795-0.272-1.09-0.597l-0.265,0.227
	c-0.192,0.13-0.4,0.192-0.625,0.185c-0.071-0.19-0.068-0.606,0.01-1.247c0.08-0.722,0.072-1.36-0.025-1.914
	c-0.165-0.89-0.568-1.809-1.21-2.758c-0.487-0.719-0.869-1.207-1.146-1.465c-0.573-0.565-1.081-0.699-1.523-0.399
	c-0.201,0.136-0.381,0.346-0.541,0.629c-0.16,0.283-0.28,0.451-0.36,0.506c-0.217-0.06-0.41-0.335-0.58-0.823
	c-0.649,0.122-1.166-0.1-1.55-0.667c-0.376-0.556-0.414-1.078-0.113-1.569c-0.17-0.076-0.363-0.231-0.581-0.465l-0.031-0.241
	c0.173-0.006,0.38-0.091,0.623-0.255l0.591-0.4c0.247-0.135,0.467-0.157,0.662-0.066c0.058-0.501,0.29-0.888,0.693-1.161
	c0.303-0.205,0.658-0.274,1.063-0.208c0.406,0.067,0.749,0.252,1.029,0.556l0.315-0.285C93.746,44.081,93.996,44.015,94.293,44.02"
	/>
<path fill="#1D1D1B" d="M104.276,36.713c-0.421,1.336-0.468,3.039-0.141,5.109c0.327,2.07,0.901,3.712,1.721,4.923
	c0.436,0.644,0.864,1.047,1.282,1.209c0.596,0.249,0.987,0.446,1.173,0.59c-0.121,0.257-0.399,0.486-0.838,0.687
	c0.169,0.379,0.207,0.768,0.115,1.164c-0.092,0.397-0.294,0.701-0.607,0.913c-0.313,0.212-0.672,0.29-1.078,0.234
	c-0.406-0.055-0.747-0.232-1.022-0.53l-0.251,0.218c-0.212,0.143-0.477,0.22-0.795,0.229c0.112-1.03,0.221-2.065,0.327-3.107
	c0.128-1.311,0.143-2.409,0.043-3.295c-0.126-1.186-0.465-2.189-1.019-3.006c-0.413-0.61-1.246-0.491-2.497,0.356
	c-0.828,0.561-1.427,1.308-1.796,2.241l-0.257-0.183c-0.133-0.196-0.275-0.537-0.427-1.022c-0.622,0.103-1.11-0.107-1.464-0.63
	c-0.34-0.501-0.384-1.012-0.132-1.532l-0.622-0.461l0.013-0.176c0.237,0.046,0.532-0.051,0.886-0.29
	c0.161-0.109,0.37-0.317,0.626-0.626c0.255-0.308,0.468-0.52,0.64-0.636c0.747-0.506,1.537-0.611,2.37-0.317
	c-0.087-0.736,0.153-1.295,0.719-1.679c0.313-0.212,0.676-0.3,1.09-0.266c0.413,0.035,0.778,0.187,1.093,0.457
	c0.174-0.245,0.336-0.418,0.487-0.521L104.276,36.713z"/>
<path fill="#FFEC00" d="M116.706,35.533c5.781,8.537-1.272,23.408-15.755,33.215c-14.482,9.807-30.909,10.836-36.69,2.298
	c-5.781-8.537,1.273-23.408,15.755-33.215C94.499,28.024,110.925,26.995,116.706,35.533"/>
<g>
	<path fill="#FFEC00" d="M77.639,74.773c-5.295,0-9.402-1.758-11.564-4.95c-5.107-7.543,1.574-21.018,14.894-30.038
		c7.161-4.849,15.127-7.629,21.857-7.629c5.295,0,9.401,1.758,11.563,4.951c5.107,7.542-1.574,21.017-14.895,30.039
		C92.337,71.993,84.37,74.773,77.639,74.773z"/>
	<path d="M102.828,31.737v0.838c5.151,0,9.134,1.693,11.215,4.766c2.361,3.487,2.177,8.437-0.52,13.939
		c-2.771,5.654-7.836,11.165-14.263,15.516c-7.092,4.803-14.973,7.557-21.622,7.557c-5.152,0-9.135-1.693-11.216-4.766
		c-2.361-3.487-2.177-8.438,0.519-13.939c2.771-5.654,7.836-11.165,14.262-15.516c7.092-4.802,14.973-7.557,21.622-7.557
		L102.828,31.737 M102.827,31.737c-6.556,0-14.585,2.618-22.092,7.701c-13.533,9.164-20.252,22.873-15.006,30.62
		c2.336,3.449,6.649,5.135,11.91,5.135c6.556,0,14.584-2.617,22.092-7.701c13.533-9.164,20.252-22.873,15.006-30.62
		C112.401,33.422,108.089,31.737,102.827,31.737L102.827,31.737z"/>
</g>
<path fill="#1D1D1B" d="M78.916,55.951c-0.044,0.697-0.01,1.422,0.102,2.172c0.08,0.598,0.087,1.054,0.021,1.369
	c-0.121,0.496-0.467,1.191-1.039,2.087c-1.069,1.662-1.401,2.792-0.995,3.392c0.302,0.447,1.054,0.263,2.256-0.551
	c1.081-0.732,1.878-1.478,2.393-2.24l0.15,0.09c0.143,0.364,0.243,0.686,0.3,0.965c0.252-0.107,0.523-0.104,0.812,0.01
	c0.291,0.114,0.525,0.301,0.702,0.562c0.384,0.567,0.377,1.112-0.019,1.635c0.181,0.115,0.389,0.292,0.624,0.53l0.026,0.364
	c-0.428-0.044-0.819,0.053-1.172,0.293c-0.131,0.089-0.297,0.257-0.498,0.504c-0.2,0.247-0.361,0.412-0.482,0.494
	c-0.869,0.588-1.622,0.725-2.262,0.411c0.156,0.752-0.043,1.317-0.599,1.693c-0.303,0.205-0.655,0.266-1.057,0.184
	c-0.401-0.083-0.73-0.279-0.984-0.59c-0.127,0.182-0.297,0.344-0.509,0.487c-0.142,0.096-0.353,0.153-0.637,0.169
	c0.046-0.476,0.071-0.788,0.075-0.933c0.026-0.352,0.021-0.665-0.019-0.941c-0.168-1.031-0.097-2.263,0.213-3.697
	c0.046-0.237,0.336-1.308,0.872-3.213c0.283-1.018,0.342-1.646,0.18-1.886c-0.222-0.327-0.504-0.517-0.849-0.57
	c-0.345-0.052-0.668,0.024-0.972,0.229c-0.424,0.287-0.661,0.567-0.712,0.84c-0.005,0.035,0.012,0.421,0.054,1.156l-0.639,0.003
	c0.079,0.312,0.07,0.62-0.026,0.924c-0.096,0.304-0.265,0.538-0.508,0.702c-0.273,0.185-0.583,0.26-0.931,0.225
	c-0.347-0.035-0.638-0.171-0.874-0.409L71.583,62.8l-0.516,0.087c-0.037-0.881-0.078-1.767-0.122-2.659
	c-0.009-0.948,0.11-1.719,0.354-2.314c0.297-0.757,0.844-1.406,1.642-1.946c0.808-0.547,1.707-0.79,2.697-0.73
	c0.99,0.06,1.846,0.459,2.565,1.195l0.407-0.443L78.916,55.951z"/>
<path fill="#1D1D1B" d="M93.954,55.824c-0.088,0.393-0.35,0.69-0.788,0.892c0.231,2.168-0.446,3.789-2.03,4.861
	c-0.848,0.574-1.715,0.882-2.601,0.921c-0.969,0.048-1.871-0.23-2.706-0.832l-0.452,0.376c-0.151,0.103-0.382,0.164-0.693,0.184
	c-0.159-0.496-0.228-1.022-0.206-1.577c0.013-0.612-0.015-1.055-0.082-1.328c-0.131-0.562-0.462-1.237-0.993-2.021
	c-0.546-0.807-1.003-1.34-1.37-1.6c-0.204-0.148-0.537-0.271-1.002-0.371c-0.517-0.11-1.011-0.308-1.484-0.593
	c-0.077-0.266,0.264-0.655,1.021-1.168c-0.256-1.877,0.374-3.329,1.888-4.354c1.857-1.258,3.626-1.288,5.307-0.089
	c0.218-0.243,0.383-0.403,0.494-0.478l0.647-0.152c0.107,0.549,0.155,1.098,0.143,1.646c-0.01,0.485,0.025,0.851,0.104,1.1
	c0.132,0.435,0.458,1.035,0.976,1.799c0.488,0.721,0.932,1.224,1.332,1.51c0.21,0.16,0.572,0.334,1.081,0.521
	C93.05,55.262,93.522,55.512,93.954,55.824 M89.794,53.366c-0.652-0.962-1.398-1.446-2.241-1.45
	c-0.697-0.006-1.515,0.308-2.453,0.944c-0.929,0.629-1.511,1.215-1.747,1.757c-0.318,0.726-0.159,1.559,0.478,2.5
	c0.681,1.006,1.406,1.543,2.175,1.613c0.661,0.063,1.47-0.231,2.429-0.88c0.939-0.636,1.541-1.259,1.805-1.868
	C90.587,55.189,90.438,54.317,89.794,53.366"/>
<path fill="#1D1D1B" d="M95.347,42.845c0.038,0.165-0.021,0.578-0.176,1.24c-0.156,0.662-0.18,1.29-0.072,1.884
	c0.157,0.927,0.604,1.936,1.342,3.026c0.76,1.122,1.452,1.894,2.075,2.314c0.363,0.231,0.853,0.4,1.469,0.507
	c0.617,0.107,1.118,0.292,1.503,0.556c-0.045,0.173-0.225,0.375-0.54,0.604c0.181,0.419,0.22,0.841,0.119,1.267
	c-0.102,0.426-0.324,0.756-0.668,0.988c-0.333,0.225-0.716,0.302-1.148,0.229c-0.432-0.073-0.795-0.272-1.09-0.597l-0.266,0.227
	c-0.192,0.13-0.4,0.192-0.625,0.185c-0.071-0.19-0.067-0.606,0.01-1.247c0.081-0.722,0.072-1.36-0.025-1.914
	c-0.165-0.89-0.568-1.809-1.21-2.758c-0.487-0.719-0.869-1.207-1.146-1.465c-0.573-0.565-1.081-0.699-1.523-0.4
	c-0.201,0.136-0.381,0.346-0.541,0.629s-0.28,0.451-0.36,0.506c-0.217-0.06-0.41-0.335-0.58-0.823
	c-0.649,0.122-1.166-0.1-1.55-0.667c-0.376-0.556-0.414-1.078-0.113-1.569c-0.17-0.076-0.363-0.231-0.581-0.465l-0.031-0.241
	c0.173-0.006,0.38-0.091,0.623-0.255l0.591-0.4c0.247-0.135,0.467-0.157,0.662-0.066c0.058-0.501,0.29-0.888,0.693-1.161
	c0.303-0.205,0.658-0.274,1.063-0.208c0.406,0.067,0.749,0.252,1.028,0.556l0.315-0.285C94.799,42.906,95.049,42.841,95.347,42.845"
	/>
<path fill="#1D1D1B" d="M104.288,36.243c-0.421,1.336-0.468,3.039-0.141,5.109c0.327,2.07,0.901,3.711,1.721,4.923
	c0.436,0.644,0.864,1.047,1.282,1.209c0.596,0.249,0.987,0.446,1.173,0.59c-0.121,0.257-0.399,0.486-0.838,0.687
	c0.169,0.379,0.207,0.768,0.115,1.164c-0.092,0.397-0.294,0.701-0.607,0.913c-0.313,0.212-0.672,0.29-1.078,0.234
	c-0.406-0.055-0.747-0.232-1.022-0.53l-0.251,0.217c-0.212,0.143-0.477,0.22-0.795,0.229c0.112-1.03,0.221-2.065,0.327-3.107
	c0.128-1.311,0.143-2.409,0.043-3.295c-0.126-1.186-0.465-2.189-1.019-3.006c-0.413-0.61-1.246-0.491-2.498,0.356
	c-0.828,0.561-1.427,1.308-1.796,2.241l-0.257-0.183c-0.133-0.196-0.275-0.537-0.427-1.022c-0.622,0.103-1.11-0.107-1.464-0.63
	c-0.34-0.501-0.384-1.012-0.132-1.532l-0.622-0.461l0.013-0.176c0.237,0.046,0.532-0.051,0.886-0.29
	c0.161-0.109,0.37-0.317,0.626-0.626c0.255-0.308,0.468-0.52,0.64-0.636c0.747-0.506,1.537-0.611,2.37-0.317
	c-0.087-0.736,0.153-1.295,0.719-1.679c0.313-0.212,0.676-0.3,1.09-0.266c0.413,0.035,0.778,0.187,1.093,0.457
	c0.174-0.245,0.336-0.418,0.487-0.521L104.288,36.243z"/>
</svg>
