<?xml version="1.0" encoding="utf-8"?>
<!-- Generator: Adobe Illustrator 17.0.0, SVG Export Plug-In . SVG Version: 6.00 Build 0)  -->
<!DOCTYPE svg PUBLIC "-//W3C//DTD SVG 1.1//EN" "http://www.w3.org/Graphics/SVG/1.1/DTD/svg11.dtd">
<svg version="1.1" id="Calque_1" xmlns="http://www.w3.org/2000/svg" xmlns:xlink="http://www.w3.org/1999/xlink" x="0px" y="0px"
	 width="219px" height="243.2px" viewBox="0 0 219 243.2" enable-background="new 0 0 219 243.2" xml:space="preserve">
<g>
	<path fill="#FFFFFF" d="M191.034,36.046c-8.81-9.497-18.819-16.049-29.72-19.44l-2.828-0.88
		c-7.431-2.312-15.265-2.843-23.283-1.577c-1.464,0.296-10.181,2.675-41.161,11.704c-0.768,0.224-1.544,0.45-2.34,0.682
		c4.966,0.08,10.008,0.913,15.115,2.502l2.357,0.734c8.86,2.756,17.564,7.7,25.876,14.695c2.908,2.506,6.04,5.978,9.338,10.344
		c10.607,15.397,13.217,31.903,7.843,49.174c-5.014,16.115-15.099,25.983-29.974,29.331c-2.362,0.364-4.091,0.638-5.239,0.837
		l-0.109,0.349c0.59,0.614,1.426,1.45,2.501,2.511c3.47,2.826,6.901,7.14,9.964,12.62c0.298,0.686,0.576,1.376,0.843,2.068
		c4.577,11.813,4.74,24.412,0.591,37.749l-0.093,0.298c-2.412,12.414-8.189,24.353-20.251,31.714
		c8.894-2.549,21.213-6.105,36.897-10.648c2.865-0.578,6.332-2.008,10.58-4.319c10.595-6.537,18.225-16.897,22.519-30.699
		l0.635-2.041c2.49-8.002,3.367-15.729,2.603-22.956c-0.749-11.173-5.318-20.304-13.976-28.047l-1.588-1.424l0.634-2.035
		c0.598-1.924,2.099-2.308,4.825-3.006c14.65-3.281,24.048-12.327,28.826-27.681c2.056-6.61,2.913-13.41,2.55-20.212
		C203.977,56.095,199.287,45.179,191.034,36.046z"/>
	<path fill="#FFFFFF" d="M97.545,61.396c-2.102-0.654-3.901-0.875-5.829-0.803c-6.674,0.529-11.686,6.248-15.182,17.484
		c-2.443,7.851-2.76,14.472-0.945,19.684c2.367,5.766,6.35,9.523,12.113,11.316l1.41,0.439c2.512,0.781,4.967,0.786,7.513,0.01
		c5.577-1.988,9.671-7.184,12.364-15.839c1.523-4.895,2.304-9.296,2.326-13.07C111.165,70.399,106.792,64.273,97.545,61.396z"/>
	<path fill="#FFFFFF" d="M75.461,135.116c-1.945-0.604-4.149-0.888-6.56-0.84c-8.769,0.205-15.11,6.957-19.367,20.64
		c-4.078,13.106-4.103,23.051-0.07,29.556c3.054,4.647,7.58,7.881,13.788,9.812c2.785,0.867,5.375,1.11,7.917,0.739
		c7.068-0.699,12.804-8.208,17.201-22.341c3.814-12.256,3.731-21.646-0.252-27.909C84.71,139.896,80.545,136.698,75.461,135.116z"/>
	<path d="M195.928,31.568c-9.643-10.391-20.624-17.556-32.644-21.296l-2.828-0.88c-8.412-2.617-17.254-3.221-26.419-1.769
		c-1.039,0.206-4.202,0.836-54.889,15.677c-16.842,3.764-28.35,15.217-34.402,34.669c-5.184,16.662-3.054,32.606,6.324,47.456
		c-1.799,0.492-2.75,0.76-3.293,0.929c-2.854,0.438-6.938,2.169-12.814,5.432c-9.217,5.225-16.076,14.899-20.386,28.753
		l-1.026,3.296c-3.362,10.806-3.239,23.448,0.405,37.73c2.435,7.951,6.184,15.267,11.179,21.78
		c3.263,4.128,6.949,7.884,11.016,11.215c8.869,6.908,18.74,12.083,29.335,15.379l3.136,0.976
		c8.855,2.755,17.725,3.354,26.596,1.732c3.315-0.845,20.977-5.9,53.709-15.397c3.291-0.65,7.282-2.262,12.341-5.022
		c12.155-7.493,20.741-19.088,25.526-34.464l0.635-2.041c2.76-8.872,3.724-17.492,2.877-25.496
		c-0.72-10.777-4.754-20.27-12.007-28.301c15.098-4.368,25.337-14.899,30.456-31.351c2.292-7.363,3.245-14.946,2.833-22.628
		C210.468,54.072,205.21,41.844,195.928,31.568z M88.371,172.682c-4.397,14.132-10.133,21.642-17.201,22.341
		c-2.543,0.371-5.133,0.128-7.917-0.739c-6.208-1.931-10.734-5.164-13.788-9.812c-4.033-6.505-4.009-16.45,0.07-29.556
		c4.257-13.683,10.598-20.435,19.367-20.64c2.41-0.048,4.615,0.236,6.56,0.84c5.084,1.582,9.249,4.78,12.658,9.657
		C92.101,151.035,92.185,160.426,88.371,172.682z M96.625,109.525c-2.545,0.776-5.001,0.771-7.513-0.01l-1.41-0.439
		c-5.762-1.793-9.746-5.549-12.113-11.316c-1.815-5.212-1.498-11.833,0.945-19.684c3.496-11.235,8.509-16.954,15.182-17.484
		c1.928-0.072,3.727,0.149,5.829,0.803c9.246,2.876,13.62,9.003,13.769,19.219c-0.021,3.774-0.802,8.175-2.326,13.07
		C106.295,102.341,102.202,107.536,96.625,109.525z M202.421,88.605c-4.778,15.354-14.175,24.399-28.826,27.681
		c-2.726,0.698-4.227,1.082-4.825,3.006l-0.634,2.035l1.588,1.424c8.657,7.743,13.227,16.875,13.976,28.047
		c0.763,7.227-0.113,14.954-2.603,22.956l-0.635,2.041c-4.294,13.802-11.924,24.162-22.519,30.699
		c-4.248,2.311-7.715,3.741-10.58,4.319c-15.685,4.543-28.004,8.099-36.897,10.648c12.062-7.361,17.839-19.3,20.251-31.714
		l0.093-0.298c4.15-13.337,3.986-25.936-0.591-37.749c-0.268-0.692-0.545-1.382-0.843-2.068c-3.063-5.48-6.493-9.793-9.964-12.62
		c-1.075-1.062-1.911-1.898-2.501-2.511l0.109-0.349c1.148-0.199,2.877-0.472,5.239-0.837c14.875-3.348,24.96-13.216,29.974-29.331
		c5.374-17.271,2.764-33.777-7.843-49.174c-3.298-4.366-6.43-7.837-9.338-10.344c-8.312-6.995-17.016-11.939-25.876-14.695
		l-2.357-0.734c-5.107-1.589-10.149-2.422-15.115-2.502c0.795-0.232,1.572-0.458,2.34-0.682
		c30.98-9.029,39.697-11.408,41.161-11.704c8.018-1.266,15.852-0.736,23.283,1.577l2.828,0.88c10.901,3.392,20.91,9.943,29.72,19.44
		c8.253,9.133,12.943,20.05,13.937,32.347C205.333,75.194,204.477,81.995,202.421,88.605z"/>
</g>
</svg>
