<?xml version="1.0" encoding="utf-8"?>
<!-- Generator: Adobe Illustrator 17.0.0, SVG Export Plug-In . SVG Version: 6.00 Build 0)  -->
<!DOCTYPE svg PUBLIC "-//W3C//DTD SVG 1.1//EN" "http://www.w3.org/Graphics/SVG/1.1/DTD/svg11.dtd">
<svg version="1.1" id="Calque_1" xmlns="http://www.w3.org/2000/svg" xmlns:xlink="http://www.w3.org/1999/xlink" x="0px" y="0px"
	 width="321.854px" height="165.563px" viewBox="0 0 321.854 165.563" enable-background="new 0 0 321.854 165.563"
	 xml:space="preserve">
<g>
	<g>
		<ellipse transform="matrix(0.9901 -0.1401 0.1401 0.9901 -10.0103 23.3618)" cx="160.927" cy="82.781" rx="137.693" ry="70.419"/>
	</g>
	<g>
		<ellipse transform="matrix(0.9901 -0.1401 0.1401 0.9901 -10.0103 23.3618)" cx="160.928" cy="82.781" rx="128.799" ry="62.129"/>
		<path fill="#FFFFFF" d="M169.857,145.891c-34.299,4.853-67.484,2.964-93.441-5.318c-26.352-8.41-42.195-22.446-44.612-39.522
			C29.388,83.974,40.716,66.094,63.7,50.705c22.641-15.159,53.999-26.181,88.298-31.034c34.299-4.853,67.484-2.964,93.441,5.319
			c26.352,8.409,42.195,22.444,44.612,39.521c2.416,17.077-8.911,34.957-31.896,50.347
			C235.514,130.017,204.156,141.038,169.857,145.891z M152.449,22.859C83.008,32.684,30.317,67.559,34.992,100.6
			s64.973,51.93,134.414,42.104c69.441-9.825,122.132-44.701,117.457-77.742S221.89,13.034,152.449,22.859z"/>
	</g>
	<g>
		<g>
			<path fill="#FFFFFF" d="M92.845,101.251l-9.902,1.401l1.401,9.901l-7.427,1.051l-1.751-12.378
				c-1.401-9.901-0.366-16.866,6.75-23.68l4.951-0.7c8.727,4.572,11.653,10.976,13.054,20.878l1.751,12.378l-7.427,1.051
				L92.845,101.251z M85.393,84.276c-2.536,3.136-3.473,6.147-3.303,10.921l9.506-1.345C90.436,89.219,88.7,86.586,85.393,84.276z"
				/>
		</g>
		<g>
			<path fill="#FFFFFF" d="M117.598,97.749l-1.051-7.427l13.615-1.926l1.051,7.427l-1.733,0.245l1.182,4.782l0.714,5.049
				l-6.931,0.981l-1.055-3.891c-0.11,2.793-2.588,4.911-7.292,5.577c-6.436,0.911-9.827-1.639-10.948-9.561l-1.716-12.13
				c-1.226-8.664,2.245-12.69,9.176-13.671l2.97-0.42c6.931-0.981,11.382,1.924,12.433,9.351l0.56,3.961l-7.426,1.051l-0.42-2.971
				c-0.49-3.465-2.116-4.245-5.582-3.755c-3.961,0.56-4.811,1.691-4.321,5.156l1.541,10.892c0.49,3.466,2.186,4.742,5.652,4.251
				c3.713-0.525,4.846-1.443,4.531-3.671L117.598,97.749z"/>
		</g>
		<g>
			<path fill="#FFFFFF" d="M131.421,70.542l24.755-3.503l1.051,7.427l-17.328,2.452l1.051,7.427l14.853-2.102l1.051,7.426L142,91.77
				l0.701,4.952l17.328-2.452l1.051,7.426l-24.755,3.503L131.421,70.542z"/>
		</g>
		<g>
			<path fill="#FFFFFF" d="M170.51,80.919l0.843,4.173l2.102,14.853l-7.426,1.051l-4.904-34.656l6.931-0.981l13.342,17.554
				l-0.843-4.173l-2.102-14.853l7.426-1.051l4.904,34.656l-6.931,0.981L170.51,80.919z"/>
		</g>
		<g>
			<path fill="#FFFFFF" d="M209.595,94.831l-13.863,1.961l-4.904-34.656l13.863-1.961c6.932-0.981,11.383,1.924,12.609,10.588
				l1.471,10.396C219.997,89.825,216.526,93.851,209.595,94.831z M204.257,67.812l-4.951,0.7l2.802,19.804l4.951-0.7
				c3.961-0.56,4.811-1.691,4.32-5.157l-1.541-10.892C209.347,68.102,208.217,67.251,204.257,67.812z"/>
		</g>
		<g>
			<path fill="#FFFFFF" d="M241.363,80.237l-9.902,1.401l1.401,9.901l-7.426,1.051l-1.751-12.378
				c-1.401-9.901-0.366-16.865,6.75-23.68l4.951-0.7c8.727,4.573,11.653,10.976,13.054,20.878l1.751,12.378l-7.426,1.051
				L241.363,80.237z M233.912,63.262c-2.536,3.136-3.474,6.147-3.303,10.921l9.506-1.345
				C238.954,68.205,237.218,65.572,233.912,63.262z"/>
		</g>
	</g>
</g>
</svg>
