<?xml version="1.0" encoding="utf-8"?>
<!-- Generator: Adobe Illustrator 17.0.0, SVG Export Plug-In . SVG Version: 6.00 Build 0)  -->
<!DOCTYPE svg PUBLIC "-//W3C//DTD SVG 1.1//EN" "http://www.w3.org/Graphics/SVG/1.1/DTD/svg11.dtd">
<svg version="1.1" id="Calque_1" xmlns="http://www.w3.org/2000/svg" xmlns:xlink="http://www.w3.org/1999/xlink" x="0px" y="0px"
	 width="605.832px" height="395.631px" viewBox="0 0 605.832 395.631" enable-background="new 0 0 605.832 395.631"
	 xml:space="preserve">
<g>
	<polygon fill="#FFFFFF" points="273.897,193.541 277.081,193.817 279.951,192.294 282.997,191.627 285.689,190.055 288.35,188.467 
		290.827,186.599 293.586,185.002 295.601,182.577 297.361,179.972 299.734,177.852 301.181,175.042 303.479,172.776 
		304.913,169.965 306.345,167.159 307.679,164.307 308.163,161.106 309.648,158.328 311.305,155.578 311.261,152.273 
		312.929,149.49 313.149,146.309 314.264,143.345 314.738,140.239 314.615,137.051 315.815,134.047 316.036,130.911 
		315.926,127.637 316.47,124.383 316.525,121.103 316.093,117.845 316.055,114.547 314.661,111.467 314.505,108.153 
		313.736,104.935 311.42,102.389 309.849,99.612 307.856,97.136 305.569,94.93 303.117,92.734 299.861,91.408 298.998,94.8 
		297.168,97.419 295.347,100.08 294.128,103.02 293.75,106.3 292.714,109.295 290.604,111.894 290.443,115.211 288.878,118.03 
		288.079,121.115 287.158,124.157 286.239,127.197 284.707,130.049 284.072,133.177 283.485,136.317 282.759,139.412 
		281.366,142.324 281.256,145.587 279.953,148.527 278.826,151.518 278.636,154.751 277.017,157.621 276.534,160.776 
		276.57,164.053 275.188,166.989 275.015,170.21 273.704,173.168 272.933,176.251 272.638,179.441 271.363,182.415 271.516,185.699 
		270.892,188.814 269.784,191.829 269.676,193.718 270.732,194.019 	"/>
	<polygon fill="#FFFFFF" points="398.193,128.879 397.803,125.679 398.39,122.526 398.374,119.348 397.808,116.17 398.628,113.005 
		398.507,109.829 398.096,106.666 398.395,103.471 398.257,100.293 397.687,97.159 397.562,93.957 396.137,90.988 396,87.761 
		395.295,84.624 393.056,82.123 391.552,79.427 389.543,77.134 387.088,75.379 384.205,74.046 380.896,74.477 378.986,77.159 
		377.012,79.615 375.611,82.611 375.34,85.9 376.21,89.142 376.293,92.379 375.169,95.582 376.062,98.831 375.414,102.04 
		375.526,105.266 375.462,108.482 375.354,111.707 374.566,114.895 374.674,118.127 374.796,121.361 374.737,124.585 
		373.955,127.757 374.468,131.022 373.718,134.191 373.125,137.291 373.464,140.46 372.302,143.491 372.271,146.632 
		372.737,149.831 371.72,152.866 371.902,156.041 370.893,159.068 370.401,162.159 370.358,165.315 369.289,168.32 369.632,171.545 
		369.157,174.646 368.161,177.657 368.064,180.823 367.639,183.933 366.612,186.926 365.993,189.998 365.329,193.062 
		364.971,196.194 364.427,199.289 362.979,202.176 362.641,205.323 361.99,208.399 360.458,211.254 360.028,214.378 
		359.788,217.557 358.228,220.383 358.063,223.588 357.058,226.562 356.384,229.632 355.261,232.572 354.587,235.645 
		352.959,238.43 352.926,241.704 351.673,244.603 350.146,247.413 349.688,250.566 348.5,253.484 347.284,256.392 346.873,259.563 
		345.501,262.411 344.034,265.223 343.461,268.343 342.005,271.102 341.491,273.824 341.012,276.491 341.826,279.626 
		343.083,282.492 345.594,284.615 348.845,285.385 352.08,284.987 355.005,283.664 357.361,281.541 359.794,279.557 
		361.664,277.012 363.402,274.384 365.03,271.667 366.922,269.121 368.469,266.382 369.519,263.421 370.748,260.538 371.77,257.568 
		372.155,254.379 373.283,251.466 374.667,248.631 375.321,245.551 376.556,242.656 377.443,239.652 378.395,236.668 
		379.162,233.632 380.263,230.689 380.9,227.615 381.935,224.647 381.885,221.396 383.507,218.572 383.834,215.422 384.823,212.432 
		385.011,209.254 386.62,206.402 386.49,203.157 387.278,200.118 387.666,196.994 389.173,194.101 389.217,190.909 390.369,187.938 
		390.086,184.693 391.012,181.679 391.305,178.551 391.863,175.47 392.354,172.379 393.461,169.385 393.673,166.249 
		393.759,163.097 394.778,160.082 394.795,156.925 395.937,153.918 396.183,150.794 396.53,147.683 396.864,144.573 396.37,141.382 
		397.036,138.309 397.946,135.244 397.145,131.995 	"/>
	<path fill="#FFFFFF" d="M577.173,189.995l-1.878-2.767l-1.712-2.846l-2.322-2.416l-3.122-1.282l-2.791-1.76l-3.057-1.32
		l-3.232-0.835l-3.341-0.042l-3.157-0.037l-3.148-0.24l-3.029-0.904l-3.027-0.822l-3.26,0.062l-2.729-1.79l-3.123-0.583
		l-2.557-1.951l-2.814-1.315l-2.608-1.685l-2.641-1.634l-2.503-1.85l-2.501-1.89l-2.383-2.064l-1.617-2.748l-2.526-2.004
		l-1.833-2.566l-1.72-2.64l-1.205-2.945l-1.789-2.594l-1.038-3.007l-1.637-2.685l-1.897-2.565l-0.601-3.204l-2.344-2.358
		l-0.59-3.202l-1.836-2.603l-1.475-2.774l-0.543-3.234l-2.234-2.393l-1.346-2.837l-1.737-2.628l-0.883-3.096l-1.506-2.762
		l-1.338-2.868l-1.887-2.537l-1.733-2.628l-1.694-2.655l-1.579-2.743l-2.785-1.858l-1.528-2.78l-2.3-2.177l-1.979-2.428l-1.28-3.055
		l-2.267-2.199l-2.646-1.818l-2.203-2.229l-2.428-1.995l-2.237-2.193l-1.945-2.54l-2.88-1.449l-2.411-2.006l-1.956-2.616
		l-2.944-1.325l-2.414-2.033l-2.339-2.153l-2.623-1.751l-2.43-2.044l-2.702-1.64l-2.649-1.725l-2.968-1.195l-2.593-1.817
		l-2.995-1.109l-2.737-1.556l-2.505-2.01l-2.968-1.129l-2.888-1.273l-2.867-1.312l-2.587-1.927l-3.198-0.577l-2.978-1.048
		l-2.55-2.09l-3.271-0.31l-2.645-1.914l-3.304-0.145l-2.662-1.928l-3.222-0.314l-2.744-1.767l-3.111-0.633l-2.995-1.012
		l-3.015-0.955l-3.005-1.006l-3.106-0.627l-3.13-0.513l-3.129-0.474l-3.185-0.18l-3.08-0.657l-3.009-1.049l-3.009-1.116
		l-3.144-0.361l-3.224,0.205l-3.09-0.663l-3.14-0.302l-3.136-0.322l-3.056-1.1l-3.235,0.683l-3.08-0.984l-3.098-0.473l-3.12-0.197
		l-3.16,0.638l-3.087-1.004l-3.147,0.628l-3.114-0.733l-3.13,0.721l-3.125-0.462l-3.133-0.265l-3.12,0.422l-3.106,0.667l-3.15-0.465
		l-3.082,0.883l-3.122,0.066l-3.155-0.33l-3.112,0.294l-3.047,0.987l-3.103,0.314l-3.13,0.073l-3.125,0.157l-3.131,0.14
		l-3.039,0.825l-3.058,0.643l-3.17-0.075l-2.958,1.216l-3.238-0.389l-3.02,0.851l-3.002,0.909l-3.131,0.291l-3.067,0.605
		l-2.995,0.914l-2.926,1.165l-3.035,0.725l-3.028,0.754l-3.252,0.244l-2.968,1.163l-3.048,0.914l-2.742,1.759l-3.055,0.884
		l-2.765,1.625l-3.066,0.876l-2.808,1.491l-2.933,1.2l-2.833,1.416l-3.059,0.966l-2.915,1.277l-2.888,1.344l-2.337,2.319
		l-2.601,1.818l-3.024,1.127l-2.417,2.102l-2.624,1.767l-2.773,1.557l-2.762,1.596l-2.335,2.171l-2.793,1.587l-2.448,2.029
		l-2.014,2.521l-2.643,1.807l-1.988,2.512l-2.469,2.013l-2.363,2.136l-2.049,2.432l-2.079,2.402l-1.935,2.519l-2.103,2.387
		l-1.602,2.764l-1.638,2.72l-2.252,2.311l-1.468,2.828l-1.571,2.756l-1.752,2.681l-1.857,2.606l-2.076,2.434l-1.784,2.692
		l-2.252,2.291l-2.189,2.364l-2.884,1.566l-2.195,2.38l-2.704,1.732l-2.68,1.752l-2.631,1.844l-3.004,1.189l-2.841,1.462
		l-2.794,1.578l-2.823,1.557l-3.102,0.876l-3.166,0.637l-3.003,1.093l-2.931,1.397l-3.023,1.154l-3.312-0.08l-3.123,0.701
		l-3.154,0.546l-3.216,0.113l-3.119,0.813l-3.129,0.929l-3.197,0.337l-3.106-0.343l-3.082,0.141l-2.98,0.817l-2.97,0.754
		l-3.073,0.386l-2.804,1.305l-2.67,1.507l-2.711,1.334l-2.847,1.205l-2.199,2.146l-1.903,2.368l-2.411,2.082l-0.527,3.149
		l-1.401,2.766l-0.363,3.064l0.042,3.07l0.274,3.053l1.2,2.831l1.054,2.816l0.965,2.935l1.983,2.35l1.865,2.418l1.786,2.554
		l2.606,1.703l2.699,1.505l1.946,2.526l2.826,1.293l2.519,1.746l2.534,1.738l2.567,1.828l2.855,1.353l2.804,1.45l2.442,2l2.38,2.059
		l2.45,1.946l2.817,1.497l2.194,2.27l2.297,2.137l2.521,1.902l1.768,2.663l2.246,2.176l2.279,2.158l2.299,2.163l1.592,2.745
		l2.004,2.414l2.171,2.312l1.306,2.903l2.267,2.286l1.278,2.9l1.79,2.601l1.166,2.939l0.859,3.077l1.813,2.597l1.495,2.753
		l1.347,2.834l1.27,2.915l1.325,2.89l1.064,3.011l1.864,2.63l0.608,3.257l1.785,2.662l1.56,2.776l2.061,2.48l1.152,3.019
		l1.669,2.713l2.027,2.476l1.909,2.545l1.857,2.578l2.164,2.347l1.675,2.715l1.391,2.959l2.755,1.853l1.637,2.78l1.881,2.588
		l2.257,2.255l1.99,2.506l2.919,1.599l1.678,2.824l2.588,1.902l2.677,1.786l2.362,2.117l2.265,2.232l2.375,2.11l1.949,2.641
		l2.934,1.425l2.712,1.683l2.223,2.332l2.248,2.326l2.679,1.734l3.181,0.98l2.438,2.072l2.778,1.555l2.534,1.946l2.861,1.413
		l2.659,1.752l2.906,1.32l2.623,1.832l2.754,1.601l2.977,1.168l2.655,1.807l2.976,1.155l2.825,1.472l2.845,1.439l2.813,1.525
		l3.014,1.054l2.931,1.252l3.009,1.053l3.236,0.424l2.958,1.165l2.876,1.416l3.125,0.679l2.941,1.249l3.055,0.891l3.04,0.944
		l3.096,0.744l3.012,1.064l3.137,0.58l3.044,0.963l3.292-0.15l2.93,1.519l3.208,0.192l3.08,0.841l3.227,0.011l2.993,1.43
		l3.272-0.352l3.133,0.559l3.188,0.131l3.061,1.247l3.227-0.258l3.122,0.847l3.237-0.643l3.146,0.571l3.178-0.087l3.168,0.167
		l3.168,0.083l3.154,0.69l3.178-0.232l3.172-0.376l3.177,0.55l3.162-0.479l3.196,0.639l3.165-0.283l3.171-0.196l3.169-0.227
		l3.094-1.071l3.191,0.076l3.228,0.303l3.024-1.418l3.256,0.41l3.056-1.026l3.203-0.067l3.106-0.666l2.997-1.206l3.269,0.157
		l3.086-0.757l3.02-1.024l3.194-0.31l3.103-0.702l3-1.075l3.142-0.58l2.784-1.757l3.229-0.364l3.118-0.746l2.656-2.081l3.011-1.029
		l2.973-1.128l3.003-1.044l3.177-0.638l3.007-1.081l2.547-2.126l3.098-0.868l3.118-0.86l2.847-1.438l2.439-2.233l2.758-1.584
		l3.309-0.584l2.3-2.408l3.029-1.125l2.611-1.838l2.664-1.742l2.649-1.762l2.995-1.253l2.455-2.054l2.401-2.115l2.462-2.018
		l2.865-1.498l2.02-2.571l2.772-1.637l2.641-1.816l1.975-2.574l2.938-1.512l2.117-2.406l1.702-2.808l2.701-1.808l1.775-2.701
		l2.597-1.94l2.156-2.351l1.746-2.696l2.482-2.091l1.297-3.029l1.877-2.564l2.239-2.308l1.423-2.883l1.62-2.735l2.066-2.453
		l1.643-2.725l1.607-2.746l1.256-2.937l1.34-2.881l2.095-2.512l0.993-3.052l1.2-2.945l2.036-2.616l1.1-3.039l1.043-3.114
		l2.328-2.365l1.217-3.07l2.057-2.51l1.904-2.632l2.375-2.221l2.16-2.43l2.932-1.546l2.005-2.702l2.89-1.53l3.095-1.084l2.658-1.894
		l3.074-1.019l3.127-0.793l2.966-1.422l3.253-0.251l3.245,0.039l3.166-0.727l3.149,0.059l2.985-1.012l3.066-0.504l2.855-1.315
		l3.027-0.664l3.028-0.786l2.839-1.302l2.611-1.718l2.37-2.019l1.887-2.455l2.04-2.256l1.302-2.743l0.961-2.86l0.591-2.976
		l0.916-3.284l-1.426-3.126L577.173,189.995z M63.221,158.564l-2.82,1.994l-2.689,1.616l1.05,3.108l2.069,2.593l1.411,3.069
		l-2.503,2.234l-3.01,1.376l-2.524-2.302l-2.111-3.13l-1.693-3.326l-2.71,2.096l-3.542,0.823l-3.035,2.02l-3.738-0.264l-1.981-2.854
		l-0.513-3.372l2.732-2.219l2.823-0.879l2.501-1.675l2.882-0.748l-0.992-3.017l-1.828-2.539l-0.916-2.961l-0.449-3.037l2.658-1.811
		l3.416-0.191l2.091,2.783l1.06,3.801l1.691,3.83l2.65-1.871l2.139-2.061l2.453-1.919l3.106,0.744l2.078,2.368l0.144,3.197
		L63.221,158.564z M155.948,141.743l-0.576,3.285l-0.556,3.288l-0.113,3.429l-1.115,3.183l-1.663,2.941l-1.462,3.133l-2.717,2.129
		l-3.059,1.474l-3.372,0.285l-3.033-0.737l-2.156-2.201l-1.38-2.747l0.071-3.112l-0.373-3.049l1.546-2.676l0.309-2.974l0.953-2.814
		l0.061-2.991l1.314-2.81l-0.905-3.083l-0.933-2.783l-2.529-1.064l-3.157-0.495l-2.556,1.917l-2.764,1.558l-1.413,2.906
		l-2.096,2.294l-1.376,2.785l-1.45,2.73l-1.26,2.825l-1.733,2.654l-0.794,3.027l-0.576,3.075l-1.4,2.835l-0.348,3.12l-1.384,2.891
		l-0.431,3.1l-0.464,3.089l-0.382,3.1l0.514,3.174l-0.584,3.064l-0.777,3.08l0.989,3.122l-0.823,3.107l0.656,3.086l-0.285,3.12
		l0.351,3.086l0.93,3.018l-0.413,3.175l0.557,3.056l0.881,2.985l0.238,3.132l0.737,3.037l1.255,2.873l1.028,2.992l2.487,2.059
		l2.412,1.995l3.563-0.371l1.564-3.153l1.136-3.008l0.55-3.263l0.446-3.318l0.857-3.305l0.638-2.816l0.232-3.086l2.237-2.085
		l2.697-1.036l2.678-0.438l3.101-0.14l2.619,1.791l0.634,3.106l1.698,2.614l-0.298,3.049l0.122,2.99l-0.284,3.141l-0.469,3.12
		l-1.254,2.949l-0.49,3.108l-0.612,3.101l-0.964,3.018l-1.888,2.563l-1.529,2.962l-2.762,1.825l-2.856,1.504l-2.679,1.911
		l-3.328,0.032l-3.113,0.672l-3.259,0.757l-3.046-1.171l-3.196-0.516l-2.489-2.078l-2.423-1.985l-2.488-1.985l-1.435-2.871
		l-2.387-2.238l-1.501-2.824l-0.834-3.103l-1.53-2.823l-1.093-3.002l-0.385-3.189l-0.683-3.098l-0.548-3.124l-0.776-3.096
		l-0.516-3.144l0.478-3.228l-0.591-3.138l-0.208-3.168l0.762-3.172l-0.312-3.164l-0.448-3.191l0.98-3.108l-0.407-3.191l0.51-3.109
		l0.219-3.141l0.735-3.068l0.328-3.134l1.362-2.921l-0.209-3.265l1.097-2.966l1.435-2.852l0.424-3.148l1.225-2.894l1.32-2.845
		l0.61-3.132l1.625-2.708l1.787-2.601l1.031-2.985l1.958-2.475l1.236-2.909l1.891-2.497l1.455-2.833l2.241-2.226l2.402-2.034
		l2.288-2.109l2.296-2.106l2.429-1.978l2.492-1.996l2.986-1.1l2.985-1.105l3.155-0.521l3.197,0.099l3.244,0.58l3.003,1.331
		l2.89,1.608l1.987,2.64l1.581,2.827l1.515,2.895l0.4,3.251l0.741,3.158l0.088,3.242l-0.136,3.231l-0.456,3.201L155.948,141.743z
		 M199.941,125.73l-1.466,2.787l-0.69,3.112l-2.027,2.581l-0.349,3.232l-1.211,2.897l-0.812,3.044l-1.878,2.674l-0.453,3.168
		l-1.513,2.816l-0.11,3.266l-1.271,2.894l-0.645,3.084l-0.894,3.009l-0.819,3.031l-1.414,2.873l-0.532,3.111l-0.401,3.139
		l-1.311,2.915l-0.322,3.154l-1.426,2.9l-0.54,3.103l-0.64,3.08l-0.625,3.083l0.191,3.24l-0.955,3.015l-1.2,2.978l0.489,3.275
		l-1.347,2.961l0.066,3.193l-0.913,3.04l-0.333,3.128l0.193,3.196l-1.204,3.012l-0.3,3.13l-0.047,3.157l-0.797,3.075l-0.417,3.118
		l-0.051,3.152l-0.582,3.105l0.634,3.097l-0.816,2.991l-0.436,3.013l0.958,3.088l-0.167,3.024l-0.076,3.023l-0.182,3.025
		l-0.638,3.024l-0.179,3.035l0.947,3l-0.569,3.025l-1.412,2.603l-1.651,2.294l-1.933,2.43l-2.924,1.101l-3.044-0.9l-3.585-0.399
		l-1.926-3.104l-1.531-3.209l-0.706-3.511l-0.123-3.246l0.606-3.241l-0.152-3.247l-0.131-3.251l-0.02-3.255l0.628-3.215
		l-0.593-3.288l0.717-3.202l0.587-3.103l-0.328-3.188l1.185-3.042l0.061-3.156l-0.43-3.228l1.054-3.044l-0.143-3.198l1.046-3.034
		l0.529-3.106l0.078-3.178l1.098-3.019l-0.314-3.252l0.498-3.121l1.013-3.029l0.11-3.192l0.432-3.129l1.029-3.014l0.615-3.093
		l0.655-3.085l0.344-3.151l0.524-3.114l1.425-2.913l0.31-3.161l0.619-3.092l1.5-2.879l0.395-3.142l0.202-3.194l1.527-2.856
		l0.127-3.217l0.974-3.003l0.644-3.093l1.098-2.966l0.653-3.093l1.615-2.807l0.025-3.286l1.255-2.911l1.539-2.813l0.483-3.155
		l1.226-2.908l1.27-2.89l0.493-3.17l1.467-2.814l1.584-2.758l0.733-3.094l1.65-2.715l0.811-3.076l1.729-2.961l1.634-3.09
		l2.798-2.095l3.198-1.182l3.28-0.343l3.158,0.864l2.425,2.328l1.527,3.188l-0.122,3.527l-0.227,2.859l-0.688,2.782l-1.028,2.684
		l-1.131,2.945l-2.097,2.492L199.941,125.73z M248.803,106.242l-1.435,2.854l-0.576,3.144l-1.29,2.908l-1.194,2.943l-0.841,3.057
		l-0.942,3.025l-0.826,3.061l-1.093,2.981l-0.557,3.142l-0.674,3.105l-1.449,2.882l-0.614,3.123l-0.803,3.068l-0.894,3.044
		l-0.848,3.057l-0.949,3.031l-0.406,3.174l-0.84,3.06l-0.588,3.124l-1.46,2.907l-0.273,3.195l-0.929,3.034l-0.76,3.076l-0.523,3.131
		l-1.128,2.992l-0.693,3.093l-0.451,3.147l-0.363,3.164l-0.97,3.032l-1.103,3.006l-0.525,3.129l-0.118,3.211l-0.273,3.177
		l-1.421,2.949l-0.54,3.124l-0.606,3.111l-0.95,3.048l-0.17,3.193l0.026,3.225l-0.48,3.132l-1.156,3.014l-0.773,3.084l-0.206,3.18
		l-0.389,3.148l-0.912,3.063l-0.139,3.187l-0.111,3.189l-0.526,3.124l-0.995,3.055l-0.207,3.172l-0.241,3.165l-1.259,3.024
		l0.434,3.257l-0.973,3.066l-0.322,3.153l-0.295,3.156l-0.439,3.137l0.118,3.203l-0.399,3.141l-0.886,3.086l-0.037,3.181
		l-0.448,3.136l-0.831,3.097l0.151,3.197l0.202,3.199l-1.193,3.068l0.208,3.206l-1.047,2.94l-1.754,2.517l-2.418,1.726l-2.68,1.345
		l-3.082,0.444l-3.129-1.104l-2.39-2.152l-1.711-2.692l-1.672-2.883l-0.249-3.318l0.029-3.279l-0.049-3.181l0.94-3.084l0.037-3.157
		l-0.076-3.168l-0.019-3.18l0.956-3.091l0.279-3.156l-0.028-3.188l0.917-3.073l-0.301-3.219l0.778-3.084l0.121-3.17l0.765-3.085
		l1.049-3.043l-0.04-3.192l0.312-3.143l0.549-3.109l0.394-3.13l0.406-3.128l0.763-3.072l-0.041-3.198l1.416-2.963l0.501-3.161
		l0.822-3.114v-3.201l0.793-3.008l0.429-3.098l0.154-3.162l0.201-3.141l0.348-3.118l0.242-3.162l1.107-3.017l1.444-2.935
		l-0.261-3.271l1.203-2.971l0.95-3.018l0.516-3.107l0.934-3.016l-0.271-3.289l1.492-2.897l0.29-3.167l0.209-3.189l0.715-3.073
		l0.92-3.022l0.82-3.045l1.539-2.865l0.081-3.229l0.469-3.134l1.314-2.914l1.352-2.899l0.702-3.07l-0.113-3.297l1.218-2.93
		l0.68-3.08l1.179-2.936l0.636-3.094l1.071-2.964l0.651-3.091l1.267-2.901l1.071-2.966l0.666-3.097l1.401-2.856l0.769-3.065
		l1.159-2.934l1.18-2.924l1.323-2.871l0.899-3.023l1.159-2.928l1.017-2.981l0.454-3.203l1.253-2.895l1.556-2.77l0.897-3.039
		l1.512-2.782l1.227-2.901l1.342-2.85l1.216-2.907l1.581-2.736l1.197-2.918l1.619-2.709l0.737-2.568l-2.701,0.054l-2.974,1.169
		l-3.13,0.528l-2.912,1.347l-3.298-0.028l-2.789,1.714l-3.048,0.844l-2.905,1.269l-3.28,0.231l-2.752,1.674l-3.148,0.663
		l-2.566,2.052l-3.032,0.963l-2.744,1.59l-2.836,1.388l-2.784,1.491l-3.068,0.989l-2.607,1.821l-2.509,1.963l-2.986,1.2
		l-2.417,2.088l-3.035,1.182l-2.503,1.961l-2.54,1.904l-2.503,1.934l-3.039,2.613l-4.009,0.257l-2.974-1.594l-3.198-1.546
		l-0.734-3.477l-0.871-3.34l1.498-3.432l2.366-2.769l2.145-2.424l3.029-1.237l2.523-1.908l2.424-2.061l2.888-1.374l2.71-1.626
		l2.555-1.874l2.874-1.352l2.306-2.333l3.065-1.002l2.908-1.258l2.312-2.431l2.87-1.358l2.867-1.364l2.945-1.191l3.149-0.69
		l2.994-1.029l2.626-2.002l3.148-0.623l3.17-0.506l2.992-1.012l2.771-1.771l3.021-0.985l3.336,0.218l2.841-1.701l3.215-0.168
		l3.052-0.875l3.099-0.669l3.115-0.594l3.226,0.112l3.088-0.742l3.099-0.725l3.132-0.514l3.209,0.238l3.093-1.024l3.201,0.268
		l3.181,0.145l3.137-0.766l3.196,0.762l3.158-0.354l3.165-0.837l3.172,0.671l3.181-0.521l3.158,0.692l3.167,0.183l3.189-0.259
		l3.129,0.785l3.217-0.632l3.167,0.202l3.104,0.741l3.187-0.147l3.159,0.2l3.082,0.818l3.135,0.41l3.127,0.455l3.172,0.141
		l3.146,0.319l3.012,1.224l3.188,0.083l3.148,0.381l2.738,1.627l2.821,1.122l2.612,1.842l0.562,3.15l0.899,3.038l-0.968,2.938
		l-1.678,2.606l-2.691,1.512l-2.857,1.127l-3.043-0.535l-3.077,0.609l-3.167-0.783l-3.141-1.05l-3.296,0.084l-3.194-0.651
		l-3.192-0.654l-3.304,0.216l-3.183-0.757l-3.182-0.821l-3.284,0.16l-3.203-0.745l-3.178,0.267l-3.133-0.332l-3.167,0.406
		l-3.134-0.388l-3.147-0.424l-3.159-0.065l-3.152,0.172l-3.151,0.259l-3.147,0.543l-3.156-0.136l-3.146,0.267l-3.149,0.115
		l-2.978-0.052l-1.304,2.669l-1.234,2.905l-1.724,2.693l-1.439,2.821l-1.406,2.843l-0.404,3.257l-0.958,3.02l-1.746,2.704
		l-0.718,3.114l-1.123,2.956l-1.407,2.851l-1.416,2.854l-0.79,3.087l-1.532,2.812l-1.053,2.985L248.803,106.242z M357.5,330.22
		l-0.545,3.034l-1.666,2.718l-1.743,2.784l-2.813,1.71l-2.639,1.83l-2.628,1.9l-2.89,1.489l-3.056,1.116l-3.079,1.157l-3.283,0.21
		l-3.266-0.534l-3.26,0.851l-3.111-0.948l-3.027-0.97l-3.051-0.822l-2.79-1.49l-3.263-0.663l-2.208-2.448l-2.756-1.634l-2.715-1.79
		l-2.231-2.333l-1.924-2.585l-1.865-2.611l-1.119-3.09l-2.272-2.342l-1.849-2.636l-0.988-3.09l-0.857-3.117l-1.392-2.86
		l-2.118-2.585l-0.781-3.128l-1.252-2.95l-0.712-3.133l-1.208-2.97l-0.737-3.115l-1.126-3.004l-0.474-3.178l-0.647-3.127
		l-1.04-3.035l-0.266-3.211l-0.9-3.071l-0.483-3.159l-0.45-3.162l-0.292-3.188l-0.729-3.11l-0.453-3.158l-0.601-3.134l-1.202-3.046
		l-0.359-3.175l-0.04-3.216l-0.754-3.118l-0.104-3.202l-0.424-3.16l-0.316-3.172l-0.471-3.153l-0.093-3.194l-0.54-3.143l-0.1-3.189
		l-1.188-3.075l0.555-3.261l-0.75-3.129l-0.05-3.198l-0.848-3.12l0.623-3.262l-0.862-2.349l-0.559,2.864l-0.623,3.118l-0.285,3.179
		l-0.441,3.148l-1.323,2.986l-0.174,3.196l-0.459,3.143l-1.326,2.992l-0.181,3.191l0.042,3.225l-1.28,3.004l0.174,3.242l-0.66,3.105
		l-0.294,3.162l-0.73,3.094l-0.242,3.167l-1.204,3.024l0.471,3.275l-0.768,3.097l-1.031,3.064l0.106,3.218l-0.631,3.12l-0.637,3.121
		l0.228,3.226l-0.755,3.108l-0.832,3.103l0.131,3.21l-0.794,3.111l0.182,3.21l-0.442,3.148l0.266,3.21l-0.55,3.139l-0.606,3.138
		l-0.262,3.165l-0.032,3.18l0.056,3.181l0.35,3.187l-0.309,3.161l0.122,3.169l0.009,3.164l-0.048,3.184l-0.457,3.237l-0.532,3.242
		l-1.38,3.015l-2.468,2.195l-2.5,2.249l-3.397,0.282l-2.986-1.577l-3.171-0.999l-2.126-2.56l-1.097-3.072l-0.704-3.119l0.338-3.193
		l0.124-3.174l0.281-3.162l-0.279-3.203l0.502-3.146l-0.253-3.207l0.317-3.161l0.88-3.11l-0.056-3.194l0.163-3.175l0.261-3.166
		l0.988-3.09l-0.432-3.239l0.139-3.181l1.311-3.047l-0.544-3.26l1.218-3.051l-0.603-3.274l1.329-3.031l-0.314-3.243l1.254-3.034
		l0.124-3.186l0.567-3.125l0.559-3.126l0.659-3.11l0.321-3.16l0.256-3.171l0.268-3.171l0.021-3.213l0.551-3.127l0.992-3.051
		l1.104-3.028l0.396-3.15l-0.119-3.244l0.791-3.08l0.478-3.137l0.545-3.125l1.357-2.966l-0.356-3.302l1.331-2.966l0.876-3.054
		l0.652-3.099l-0.119-3.264l1.534-2.909l-0.025-3.245l1.347-2.941l-0.02-3.256l1.181-2.983l1.027-3.015l0.398-3.164l0.2-3.214
		l1.34-2.935l0.07-3.251l0.903-3.042l1.327-2.931l0.761-3.076l0.129-3.246l0.823-3.062l1.096-2.986l1.056-2.995l1.113-2.976
		l0.49-3.155l0.708-3.093l1.447-2.873l0.238-3.236l1.84-2.746l0.681-3.101l0.67-3.107l1.319-2.899l1.064-2.987l0.812-3.071
		l0.618-3.139l1.101-2.977l1.126-2.967l1.752-2.743l0.904-3.042l1.208-2.932l0.427-3.224l1.359-2.876l0.678-3.136l1.632-2.807
		l1.446-2.897l2.196-2.393l2.514-2.056l3.091-0.979l3.088-0.664l3.138-0.233l3.162-0.965l3.237-0.096l3.085,1.038l3.206,0.334
		l3.004,1.157l2.668,1.796l2.381,2.107l2.557,1.887l1.735,2.682l1.854,2.527l2.148,2.393l1.055,3.019l1.67,2.732l0.788,3.092
		l0.702,3.09l0.899,3.03l0.652,3.096l0.636,3.105l0.233,3.164l0.67,3.121l0.438,3.158l-0.476,3.194l0.291,3.167l-0.003,3.174
		l-0.192,3.168l-0.234,3.163l-0.425,2.96l0.038,3.02l-0.48,2.959l-0.276,2.989l-1.198,2.816l-0.319,3.176l-1.045,2.997l-0.95,3.017
		l-0.796,3.072l-1.46,2.837l-1.12,2.949l-0.979,3.012l-0.997,3.023l-1.658,2.717l-1.869,2.58l-1.452,2.793l-1.222,2.958
		l-1.496,2.824l-2.563,2.034l-1.971,2.456l-2.161,2.29l-2.533,1.886l-2.153,2.317l-2.232,2.332l-2.698,1.72l-3.12,0.865l-3.008,0.94
		l-2.917,1.22l-3.07,0.779l-3.391,0.09l0.624,3.339l0.719,3.093l0.302,3.139l-0.17,3.188l0.622,3.102l0.587,3.101l-0.431,3.225
		l1.266,3.016l-0.139,3.198l0.515,3.11l0.545,3.102l0.406,3.12l0.967,3.038l0.458,3.114l-0.018,3.194l0.833,3.054l0.434,3.122
		l0.068,3.191l1.05,3.007l1.112,2.986l-0.244,3.265l1.151,2.973l0.549,3.103l0.518,3.113l0.496,3.124l1.142,2.957l1.146,2.946
		l0.631,3.092l0.677,3.087l0.938,3.01l1.622,2.76l0.84,3.049l1.16,2.932l1.627,2.717l0.857,3.102l1.677,2.691l1.928,2.518
		l2.168,2.299l1.753,2.652l2.467,1.985l2.847,1.345l2.677,1.691l3.176-0.105l3.029,0.49l2.958-0.589l2.945-0.628l2.981-1.028
		l2.275-2.133l2.514-1.791l2.882-1.162l3.029-0.558l3.104,0.774l2.358,2.116l2.127,2.456L357.5,330.22z M401.102,219.91
		l-1.717,2.821l-0.033,3.274l-0.98,3.014l-0.625,3.123l-1.76,2.785l-0.369,3.203l-1.488,2.855l-0.138,3.289l-1.35,2.896
		l-0.783,3.087l-1.082,2.986l-1.063,2.993l-1.692,2.753l-0.893,3.054l-0.828,3.088l-1.753,2.707l-0.876,3.076l-1.974,2.588
		l-1.212,2.93l-1.315,2.804l-1.453,2.728l-0.908,3.083l-2.066,2.371l-2.393,2.057l-1.247,3.027l-2.784,1.617l-1.952,2.471
		l-2.744,1.517l-2.537,1.764l-2.466,2.01l-3.181,0.462l-2.913,0.997l-2.969,0.929l-3.115-0.169l-3.046-0.166l-3.185-0.222
		l-2.956-1.188l-3.273-0.559l-2.342-2.302l-2.143-2.335l-2.876-1.832l-1.636-2.866l-1.306-3.023l-0.806-3.185l0.034-3.297
		l-0.05-3.208l-0.826-3.27l0.9-3.174l1.248-3.012l0.964-3.046l0.201-3.272l0.915-3.014l2.027-2.621l0.092-3.288l1.525-2.8
		l0.774-3.045l0.916-3.003l0.929-3l1.551-2.802l0.667-3.081l0.625-3.088l0.769-3.039l1.435-2.838l0.165-3.221l1.353-2.873
		l1.178-2.928l0.245-3.189l1.664-2.8l0.532-3.107l0.01-3.238l1.417-2.874l0.207-3.178l1.334-2.901l0.788-3.035l0.304-3.144
		l1.274-2.926l-0.164-3.238l0.602-3.069l1.077-2.975l0.138-3.16l0.42-3.101l0.98-3l0.529-3.089l0.53-3.089l0.177-3.144l0.319-3.119
		l1.194-2.996l0.024-3.161l0.298-3.121l1.158-3.02l-0.011-3.159l-0.249-3.178l1.071-3.046l-0.408-3.185l0.421-3.11l0.036-3.107
		l0.463-3.077l-0.042-3.108l0.918-3.058l-0.785-3.143l0.456-3.086l0.713-3.084l-0.439-3.125l0.298-3.099l0.301-3.103l-0.571-3.118
		l0.418-3.108l0.498-3.114l-0.468-3.11l0.468-3.11l-0.379-3.251l0.562-3.202l0.202-3.305l1.345-3.007l1.733-2.765l1.78-2.675
		l1.978-2.541l2.314-2.282l2.55-2.143l3.144-1.082l3.171-0.966l3.302-0.349l3.304,0.186l3.18,0.553l3.224,0.497l2.88,1.53
		l2.38,2.233l3.113,1.174l1.926,2.632l1.806,2.623l1.923,2.521l1.352,2.876l2.279,2.437l0.476,3.268l1.473,2.859l1.439,2.913
		l0.834,3.108l0.528,3.176l0.539,3.165l-0.272,3.286l1.145,3.068l0.69,3.151l-0.234,3.241l-0.327,3.227l0.299,3.178l1.105,3.158
		l-0.311,3.21l0.215,3.2l-0.335,3.2l0.204,3.206l-0.274,3.196l0.142,3.213l-0.521,3.181l-0.332,3.187l0.077,3.218l-0.706,3.122
		l-0.053,3.178l-0.473,3.145l-0.502,3.135l-0.66,3.115l-0.218,3.171l-0.497,3.133l-0.349,3.153l0.248,3.248l-0.598,3.122
		l-0.92,3.066l-0.214,3.186l-0.865,3.07l-0.555,3.125l-0.669,3.103l-0.525,3.132l-0.908,3.052l-0.478,3.142l-0.921,3.044
		l0.132,3.287l-1.589,2.884l-0.328,3.184l-1.028,3.011L401.102,219.91z M539.915,199.229l-1.187,2.696l-2.359,1.779l-2.171,1.873
		l-2.671,1.104l-2.88,0.184l-3.211-0.667l-3.033-1.277l-3.205-0.892l-3.074-1.167l-3.221-0.623l-3.174-1.155l-3.148,0.41
		l-3.122,0.082l-3.062,0.642l-2.854,1.269l-2.963,1.104l-2.56,1.852l-2.151,2.306l-1.825,2.544l-2.105,2.318l-2.068,2.411
		l-1.413,2.822l-0.894,3.05l-0.907,3.001l-1.899,2.616l-0.983,2.984l-0.974,2.986l-1.247,2.911l-0.43,3.141l-0.186,3.185
		l-0.642,3.059l-1.278,2.922l-0.869,3.02l-0.279,3.138l-0.438,3.104l-0.941,3.018l-0.152,3.152l-0.108,3.154l-0.511,3.09
		l-0.971,3.028l-0.173,3.141l-0.526,3.474l-2.102,2.837l-1.467,3.224l-3.263,1.309l-3.341,0.503l-3.208-0.69l-2.63-1.955
		l-2.146-2.637l-0.701-3.349l0.529-3.347l-0.074-3.143l0.327-3.112l0.699-3.087l-0.298-3.149l-0.359-3.143l1.03-3.079l-0.386-3.132
		l0.241-3.117l0.288-3.117l0.329-3.117l-0.317-3.123l-0.298-3.116l0.268-3.119l0.258-3.122l0.029-3.122l-0.648-3.111l0.247-3.127
		l-0.021-3.122l-0.447-3.107l0.52-3.142l-0.265-3.113l-0.405-3.104l-0.52-3.094l0.29-3.138l-0.342-3.101l-0.638-3.078l0.305-3.142
		l-0.933-3.049l0.132-3.129l-0.55-3.081l0.074-3.135l0.338-3.162l-0.778-3.055l-0.312-3.025l-0.446,3.075l-0.336,3.157l-0.354,3.152
		l-0.716,3.104l0.084,3.213l-1.382,2.998l-0.169,3.181l-0.495,3.133l0.019,3.216l-1.084,3.026l-0.574,3.11l-0.23,3.171l-0.44,3.14
		l-0.576,3.116l-0.272,3.177l-0.945,3.043l-1.382,2.947l0.265,3.298l-1.225,2.975l-0.991,3.021l-0.57,3.116l-0.995,3.014
		l0.198,3.304l-1.562,2.871l-0.372,3.167l-0.296,3.191l-0.802,3.06l-1.011,3.002l-0.914,3.026l-1.632,2.828l-0.188,3.238
		l-0.575,3.131l-1.412,2.884l-1.451,2.869l-0.805,3.062l0.004,3.315l-1.311,2.909l-0.774,3.077l-1.264,2.921l-0.718,3.095
		l-1.143,2.958l-0.714,3.09l-1.316,2.893l-1.109,2.961l-0.69,3.1l-1.411,2.862l-0.762,3.077l-1.262,2.683l-1.809,2.295l-2.38,1.588
		l-2.542,1.241l-2.833,0.151l-3.07-0.713l-3.063-1.428l-1.549-3.065l0.082-3.355l0.003-2.734l1.257-2.429l1.213-2.956l1.286-2.921
		l1.111-2.98l1.443-2.854l0.999-3.028l1.385-2.87l0.339-3.269l1.955-2.659l0.707-3.133l1.343-2.893l0.568-3.172l1.938-2.684
		l0.251-3.273l1.136-2.964l0.744-3.1l1.827-2.751l0.399-3.21l1.471-2.875l0.066-3.299l1.239-2.948l0.615-3.128l0.867-3.056
		l0.795-3.076l1.393-2.924l0.511-3.152l0.381-3.18l1.295-2.964l0.306-3.195l1.412-2.951l0.528-3.148l0.628-3.128l0.615-3.123
		l-0.2-3.277l0.95-3.058l1.198-3.02l-0.271-3.317l1.569-3.006l-0.055-3.234l0.713-3.075l0.248-3.167l-0.216-3.241l1.214-3.045
		l0.333-3.172l0.096-3.198l0.858-3.101l0.491-3.149l0.139-3.191l0.682-3.128l-0.508-3.26l0.952-3.099l0.589-3.14l-0.783-3.28
		l0.356-3.161l0.285-3.168l0.411-3.157l0.886-3.115l0.452-3.156l-0.646-3.253l0.761-3.135l1.449-2.876l1.491-2.704l1.695-2.861
		l3.011-1.526l3.294,0.77l3.578-0.031l2.561,2.48l2.135,2.736l0.927,3.392l0.281,3.167l-0.362,3.222l0.567,3.142l0.612,3.132
		l0.461,3.146l-0.232,3.216l1.084,3.075l-0.152,3.206l0.021,3.186l0.976,3.083l-0.5,3.252l0.652,3.116l1.169,3.054l-0.293,3.222
		l0.924,3.079l-0.252,3.222l0.279,3.161l0.743,3.111l-0.279,3.217l1.15,3.072l0.33,3.155l-0.194,3.198l0.712,3.122l0.375,3.15
		l-0.248,3.193l0.152,3.167l0.085,3.169l0.372,3.166l0.149,3.177l-0.819,3.157l0.269,3.181l-0.416,2.826l0.984-2.64l0.332-3.09
		l0.288-3.149l1.731-2.689l0.519-3.133l1.475-2.745l1.32-2.831l1.87-2.505l1.629-2.666l2.543-1.923l1.432-2.907l2.497-1.904
		l2.769-1.507l2.194-2.241l2.746-1.459l2.832-1.252l2.563-1.848l3.042-0.739l3.083-0.44l2.889-1.163l3.112-0.033l3.019-0.783
		l3.093,0.07l3.125-0.406l3.053,0.602l3,0.806l3.009,0.627l3.02,0.591l2.995,0.735l3.055,0.771l2.607,1.761l2.5,1.958l1.686,2.765
		l0.31,3.223L539.915,199.229z"/>
	<polygon points="251.871,97.265 252.661,94.178 254.076,91.324 255.483,88.472 256.606,85.517 257.324,82.402 259.07,79.699 
		260.028,76.679 260.432,73.422 261.839,70.579 263.278,67.757 265.002,65.064 266.236,62.159 267.54,59.49 270.518,59.542 
		273.667,59.427 276.813,59.16 279.97,59.296 283.117,58.753 286.268,58.495 289.42,58.323 292.579,58.388 295.726,58.812 
		298.859,59.2 302.027,58.794 305.16,59.126 308.338,58.859 311.541,59.604 314.825,59.443 318.007,60.265 321.191,61.022 
		324.495,60.806 327.686,61.46 330.88,62.111 334.177,62.027 337.317,63.077 340.484,63.86 343.562,63.252 346.605,63.786 
		349.461,62.659 352.152,61.147 353.831,58.541 354.799,55.603 353.9,52.565 353.337,49.415 350.725,47.573 347.904,46.45 
		345.166,44.823 342.018,44.442 338.831,44.36 335.819,43.136 332.673,42.817 329.501,42.676 326.374,42.221 323.24,41.811 
		320.158,40.994 316.999,40.794 313.811,40.941 310.707,40.2 307.541,39.998 304.323,40.63 301.194,39.845 298.005,40.104 
		294.839,39.921 291.681,39.229 288.5,39.75 285.327,39.079 282.163,39.916 279.004,40.271 275.808,39.509 272.672,40.275 
		269.49,40.13 266.29,39.862 263.197,40.887 259.988,40.649 256.856,41.163 253.756,41.888 250.669,42.63 247.443,42.518 
		244.328,43.112 241.229,43.782 238.177,44.657 234.962,44.825 232.121,46.526 228.785,46.308 225.764,47.293 222.992,49.064 
		220,50.076 216.829,50.582 213.681,51.205 211.055,53.207 208.061,54.236 204.912,54.925 201.967,56.116 199.1,57.48 
		196.23,58.838 193.918,61.27 191.01,62.528 187.945,63.53 185.639,65.863 182.766,67.216 180.21,69.089 177.5,70.715 
		174.612,72.089 172.188,74.15 169.664,76.057 166.636,77.294 164.491,79.718 162.124,82.487 160.627,85.918 161.497,89.258 
		162.231,92.735 165.43,94.281 168.404,95.875 172.413,95.618 175.452,93.005 177.956,91.071 180.496,89.167 182.999,87.206 
		186.034,86.024 188.451,83.936 191.437,82.735 193.945,80.772 196.552,78.951 199.621,77.963 202.404,76.472 205.241,75.084 
		207.985,73.494 211.016,72.531 213.582,70.479 216.731,69.816 219.483,68.143 222.763,67.912 225.667,66.643 228.715,65.799 
		231.504,64.085 234.802,64.113 237.714,62.766 240.844,62.238 243.818,61.069 246.519,61.015 245.782,63.582 244.163,66.291 
		242.965,69.209 241.384,71.945 240.168,74.852 238.826,77.702 237.599,80.603 236.087,83.385 235.19,86.424 233.634,89.194 
		232.381,92.09 231.927,95.292 230.909,98.273 229.75,101.201 228.852,104.224 227.529,107.095 226.348,110.019 225.189,112.953 
		224.42,116.018 223.018,118.874 222.352,121.971 221.281,124.937 220.014,127.838 219.363,130.929 218.292,133.893 
		217.656,136.987 216.477,139.923 215.797,143.004 214.579,145.934 214.692,149.23 213.99,152.301 212.637,155.199 211.324,158.113 
		210.854,161.247 210.774,164.476 209.235,167.34 208.415,170.386 207.494,173.408 206.78,176.48 206.571,179.669 206.282,182.837 
		204.79,185.734 205.063,189.023 204.132,192.039 203.622,195.146 202.683,198.165 201.504,201.137 201.812,204.413 200.269,207.34 
		199.157,210.357 198.905,213.518 198.537,216.636 198.199,219.77 198.014,222.935 197.451,226.035 196.353,229.044 
		196.359,232.245 195.858,235.359 195.675,238.519 194.26,241.482 194.301,244.68 193.539,247.752 193.133,250.88 192.739,254.01 
		192.189,257.119 191.877,260.262 191.917,263.454 190.869,266.497 190.105,269.581 189.985,272.752 189.212,275.836 
		189.522,279.055 188.623,282.128 188.687,285.316 188.336,288.473 187.379,291.563 187.398,294.743 187.474,297.911 
		187.364,301.069 186.46,304.152 186.528,307.333 186.508,310.612 186.762,313.929 188.436,316.812 190.148,319.504 
		192.539,321.656 195.668,322.76 198.75,322.316 201.431,320.971 203.849,319.246 205.602,316.728 206.649,313.788 206.441,310.582 
		207.634,307.514 207.432,304.315 207.281,301.118 208.113,298.02 208.561,294.885 208.598,291.703 209.485,288.617 
		209.883,285.477 209.765,282.273 210.204,279.136 210.499,275.98 210.821,272.827 211.794,269.761 211.36,266.504 212.619,263.481 
		212.86,260.315 213.067,257.143 214.061,254.088 214.587,250.964 214.697,247.775 214.836,244.589 215.749,241.526 
		216.138,238.378 216.343,235.198 217.116,232.115 218.273,229.1 218.752,225.968 218.726,222.743 218.896,219.55 219.846,216.502 
		220.453,213.391 220.993,210.267 222.414,207.318 222.686,204.141 222.804,200.93 223.329,197.801 224.432,194.794 
		225.403,191.762 225.766,188.598 226.216,185.452 226.909,182.359 228.037,179.367 228.56,176.236 229.32,173.159 230.249,170.125 
		230.522,166.93 231.982,164.023 232.57,160.898 233.41,157.838 233.816,154.664 234.765,151.633 235.614,148.576 236.508,145.533 
		237.311,142.464 237.925,139.341 239.374,136.46 240.048,133.355 240.605,130.214 241.698,127.233 242.524,124.172 
		243.466,121.147 244.308,118.09 245.502,115.148 246.791,112.24 247.368,109.096 248.803,106.242 249.286,103.061 250.339,100.077 
			"/>
	<polygon points="204.03,117.241 205.059,114.557 205.747,111.775 205.973,108.916 206.095,105.389 204.568,102.201 202.143,99.874 
		198.985,99.01 195.705,99.353 192.507,100.535 189.709,102.63 188.075,105.719 186.346,108.68 185.535,111.756 183.885,114.472 
		183.152,117.566 181.568,120.324 180.101,123.138 179.609,126.308 178.339,129.198 177.113,132.106 176.63,135.261 
		175.091,138.074 173.836,140.985 173.811,144.27 172.196,147.078 171.543,150.171 170.445,153.137 169.8,156.229 168.827,159.232 
		168.7,162.448 167.173,165.304 166.971,168.498 166.576,171.641 165.076,174.52 164.457,177.612 164.147,180.773 162.721,183.686 
		162.197,186.8 161.853,189.951 161.199,193.036 160.584,196.129 159.555,199.142 159.123,202.272 159.013,205.464 158,208.493 
		157.502,211.614 157.816,214.866 156.718,217.885 156.64,221.063 156.111,224.169 155.065,227.203 155.208,230.401 
		154.154,233.445 154.582,236.673 154.519,239.828 153.331,242.871 153.653,246.059 153.054,249.162 152.311,252.365 
		152.955,255.652 152.327,258.868 152.347,262.122 152.478,265.373 152.68,268.62 152.049,271.861 152.159,275.107 152.859,278.618 
		154.387,281.827 156.311,284.931 159.896,285.331 162.939,286.23 165.863,285.13 167.796,282.699 169.447,280.405 170.859,277.803 
		171.428,274.778 170.481,271.778 170.66,268.743 171.298,265.719 171.479,262.694 171.556,259.672 171.722,256.648 170.764,253.56 
		171.2,250.546 172.016,247.555 171.383,244.458 171.965,241.353 172.016,238.201 172.432,235.083 173.23,232.008 173.277,228.851 
		173.577,225.721 174.781,222.709 174.588,219.513 174.92,216.385 175.834,213.345 175.768,210.152 177.114,207.19 176.626,203.916 
		177.826,200.938 178.781,197.922 178.59,194.683 179.215,191.6 179.855,188.52 180.395,185.417 181.821,182.516 182.143,179.363 
		183.454,176.448 183.855,173.309 184.388,170.199 185.801,167.326 186.621,164.295 187.515,161.285 188.16,158.201 
		189.432,155.307 189.542,152.041 191.055,149.225 191.508,146.057 193.386,143.384 194.198,140.34 195.409,137.442 195.758,134.21 
		197.786,131.629 198.475,128.518 199.941,125.73 200.802,122.678 202.899,120.186 	"/>
	<polygon points="62.901,150.477 59.794,149.733 57.341,151.652 55.202,153.713 52.552,155.584 50.862,151.754 49.802,147.953 
		47.711,145.17 44.294,145.361 41.636,147.172 42.085,150.209 43.002,153.169 44.829,155.708 45.821,158.726 42.939,159.474 
		40.438,161.149 37.615,162.028 34.883,164.247 35.395,167.619 37.377,170.473 41.115,170.737 44.15,168.717 47.692,167.893 
		50.403,165.798 52.095,169.124 54.206,172.254 56.73,174.555 59.74,173.18 62.243,170.946 60.831,167.876 58.763,165.283 
		57.713,162.175 60.402,160.559 63.221,158.564 65.122,156.042 64.978,152.845 	"/>
	<polygon points="156.705,131.98 156.616,128.738 155.875,125.581 155.476,122.33 153.96,119.434 152.379,116.607 150.392,113.967 
		147.502,112.359 144.499,111.028 141.254,110.448 138.058,110.348 134.902,110.87 131.917,111.975 128.931,113.075 
		126.439,115.071 124.01,117.05 121.713,119.155 119.425,121.264 117.023,123.298 114.782,125.524 113.327,128.357 111.437,130.854 
		110.201,133.764 108.242,136.239 107.211,139.224 105.424,141.825 103.799,144.533 103.189,147.665 101.869,150.51 
		100.644,153.404 100.22,156.552 98.785,159.404 97.688,162.371 97.897,165.636 96.534,168.557 96.206,171.691 95.471,174.759 
		95.252,177.9 94.742,181.009 95.149,184.2 94.169,187.308 94.617,190.499 94.929,193.663 94.167,196.834 94.376,200.002 
		94.967,203.14 94.488,206.368 95.004,209.512 95.781,212.608 96.329,215.732 97.012,218.83 97.397,222.019 98.49,225.021 
		100.02,227.844 100.854,230.947 102.356,233.771 104.743,236.009 106.178,238.88 108.666,240.866 111.089,242.85 113.577,244.928 
		116.773,245.445 119.819,246.615 123.078,245.859 126.192,245.186 129.519,245.154 132.198,243.243 135.055,241.739 
		137.817,239.914 139.345,236.952 141.233,234.389 142.197,231.371 142.809,228.269 143.299,225.161 144.553,222.212 
		145.022,219.092 145.306,215.951 145.184,212.961 145.482,209.912 143.784,207.298 143.15,204.193 140.531,202.402 137.43,202.542 
		134.752,202.979 132.055,204.015 129.818,206.1 129.585,209.187 128.947,212.003 128.09,215.308 127.644,218.626 127.094,221.889 
		125.958,224.897 124.394,228.05 120.831,228.421 118.418,226.426 115.931,224.367 114.903,221.374 113.648,218.501 
		112.911,215.464 112.674,212.332 111.793,209.347 111.235,206.291 111.648,203.116 110.718,200.098 110.367,197.011 
		110.652,193.892 109.996,190.806 110.819,187.699 109.83,184.577 110.608,181.497 111.192,178.433 110.677,175.259 
		111.059,172.159 111.523,169.07 111.954,165.97 113.338,163.079 113.686,159.96 115.086,157.125 115.662,154.051 116.456,151.024 
		118.189,148.369 119.449,145.544 120.9,142.814 122.275,140.029 124.371,137.735 125.785,134.829 128.549,133.271 131.105,131.354 
		134.261,131.849 136.79,132.913 137.723,135.696 138.628,138.779 137.314,141.589 137.253,144.58 136.3,147.394 135.991,150.369 
		134.445,153.044 134.818,156.093 134.747,159.205 136.127,161.952 138.282,164.153 141.315,164.89 144.688,164.605 
		147.747,163.131 150.464,161.003 151.925,157.869 153.588,154.929 154.703,151.745 154.816,148.316 155.372,145.028 
		155.948,141.743 156.113,138.412 156.569,135.211 	"/>
	<path d="M589.354,193.882l-0.759-3.118l-0.701-3.136l-1.65-2.775l-1.669-2.691l-1.863-2.533l-1.939-2.464l-1.955-2.505
		l-2.263-2.264l-2.932-1.335l-2.7-1.641l-3.083-0.775l-2.85-1.395l-3.17-0.202l-3.059-0.861l-3.091-0.697l-3.205,0.162l-3.056-0.832
		l-3.007-0.968l-3.176-0.416l-2.746-1.667l-2.718-1.573l-3.212-0.643l-2.283-2.291l-2.68-1.63l-2.261-2.176l-2.427-1.982
		l-2.05-2.371l-2.577-1.93l-1.331-2.95l-2.299-2.214l-2.047-2.428l-0.989-3.091l-1.671-2.658l-1.88-2.552l-0.816-3.128l-1.58-2.718
		l-1.706-2.659l-1.393-2.82l-1.407-2.814l-1.014-3.005l-1.551-2.74l-1.842-2.592l-1.031-3.01l-1.506-2.768l-2.241-2.364
		l-1.007-3.043l-1.927-2.523l-1.557-2.735l-1.146-2.999l-2.188-2.337l-1.216-2.983l-2.475-2.109l-2.093-2.357l-1.233-3.022
		l-2.46-2.063l-1.777-2.62l-1.719-2.696l-2.695-1.8l-1.795-2.649l-2.358-2.104l-2.518-1.925l-2.535-1.881l-1.993-2.523l-2.475-1.965
		l-2.555-1.907l-2.677-1.741l-2.244-2.332l-3.156-1.056l-2.017-2.688l-2.72-1.675l-3.155-0.99l-2.712-1.658l-2.428-2.128
		l-2.493-2.046l-3.224-0.782l-2.696-1.694l-2.519-2.038l-2.774-1.577l-2.855-1.422l-2.846-1.442l-3.352-0.361l-2.781-1.559
		l-2.662-1.85l-3.266-0.457l-2.815-1.511l-3.041-0.957l-2.929-1.24l-2.824-1.541l-3.101-0.772l-3.034-0.952l-2.775-1.76
		l-3.228-0.361l-3.082-0.806l-2.939-1.311l-3.223-0.299l-2.87-1.621l-3.343,0.241l-2.949-1.364l-3.029-1.066l-3.281,0.135
		l-3.119-0.618l-3.13-0.573l-3.16-0.414l-3.026-1.25l-3.214-0.074l-3.073-1.019l-3.213-0.033l-3.201-0.105l-3.102-0.951
		l-3.188-0.281l-3.186-0.297l-3.153,0.028l-3.113-0.561l-3.181,0.718l-3.112-0.69l-3.154,0.487l-3.119-0.957l-3.145,0.233
		l-3.141-0.13l-3.131,0.858l-3.154-0.876l-3.121,0.627l-3.144-0.147l-3.113,0.58l-3.183-0.704l-3.078,1.066l-3.147-0.003
		l-3.111,0.457l-3.15,0.029l-3.113,0.427l-3.127,0.289l-3.113,0.414l-3.154,0.112l-3.062,0.776l-3.168,0.08l-3.12,0.413
		l-2.967,1.265l-3.064,0.681l-3.089,0.546l-3.029,0.832l-3.125,0.411l-3.089,0.579l-3.08,0.622l-2.97,1.044l-3.14,0.427
		l-2.919,1.198l-3.026,0.83l-3.087,0.664l-2.87,1.301l-3.006,0.916l-2.833,1.37l-3.029,0.874l-2.821,1.386l-3.029,0.904
		l-2.445,2.191l-2.77,1.45l-3.053,0.881l-3.033,0.958l-2.614,1.765l-2.39,2.142l-3.112,0.871l-2.729,1.551l-2.765,1.501
		l-2.632,1.716l-2.315,2.179l-2.324,2.137l-3.018,1.173l-1.917,2.659l-2.631,1.709l-2.335,2.083l-2.586,1.783l-2.726,1.643
		l-1.681,2.807l-2.792,1.599l-2.468,1.966l-1.953,2.482l-2.139,2.292l-2.005,2.413l-1.807,2.575l-2.037,2.371l-2.413,2.078
		l-1.487,2.808l-1.844,2.523l-1.535,2.739l-2.52,2.07l-1.249,2.922l-1.971,2.461l-1.792,2.574l-1.907,2.497l-2.144,2.296
		l-2.084,2.353l-1.965,2.513l-2.799,1.574l-2.68,1.645l-2.383,2.04l-2.834,1.365l-2.357,2.175l-3.022,0.986l-2.652,1.724
		l-2.84,1.358l-3.101,0.663l-2.862,1.327l-2.951,1.129l-3.024,0.905l-3.205,0.049l-3.025,0.913l-3.112,0.414l-3.148,0.073
		l-3.052,0.955l-3.127,0.297l-3.149,0.102l-3.151,0.143l-3.065,0.768l-3.035,0.866l-3.128,0.33l-3.109,0.492l-3.076,0.682
		l-2.832,1.44l-3.262,0.306l-2.645,1.808l-2.48,1.96l-2.847,1.382l-2.453,1.987l-1.893,2.528l-2.273,2.254l-1.57,2.775l-0.749,3.109
		l-0.945,2.992l-0.514,3.097l-0.279,3.123l-0.675,3.163l1.038,3.118l-0.339,3.257l0.999,3.046l1.334,2.892l0.907,3.102l1.613,2.78
		l2.176,2.372l2.314,2.193l1.897,2.574l2.415,2.073l2.632,1.794l2.359,2.124l2.23,2.355l2.7,1.709l3.013,1.183l2.938,1.27
		l2.578,1.891l2.702,1.59l2.681,1.629l2.107,2.447l2.719,1.565l2.784,1.528l2.485,1.927l2.039,2.427l2.063,2.37l2.444,1.977
		l2.341,2.099l2.113,2.32l1.72,2.652l2.14,2.293l1.9,2.49l1.704,2.632l2.201,2.285l1.131,3.005l1.819,2.549l1.534,2.725l1.86,2.55
		l1.294,2.86l1.305,2.845l1.173,2.9l1.23,2.93l1.477,2.823l0.75,3.144l1.553,2.786l1.724,2.692l1.287,2.907l1.599,2.745l1.555,2.767
		l1.708,2.677l1.452,2.831l1.432,2.855l2.122,2.408l1.429,2.872l2.311,2.255l1.875,2.558l1.529,2.827l2.212,2.301l1.747,2.674
		l1.814,2.632l2.101,2.393l2.474,2.052l1.711,2.752l2.384,2.126l2.855,1.644l2.133,2.353l2.16,2.333l2.004,2.515l2.416,2.071
		l2.324,2.174l2.593,1.857l2.23,2.296l2.795,1.593l2.361,2.142l2.974,1.326l2.488,1.969l2.693,1.683l2.201,2.403l2.598,1.837
		l2.63,1.791l2.915,1.337l2.814,1.485l2.69,1.687l2.573,1.9l2.923,1.284l2.924,1.267l2.376,2.317l3.157,0.806l2.605,1.91
		l2.956,1.194l3.056,0.961l2.799,1.526l2.839,1.449l2.839,1.465l2.959,1.179l3.223,0.484l2.99,1.067l2.805,1.592l2.967,1.157
		l3.244,0.317l2.847,1.535l3.205,0.391l3.144,0.558l2.973,1.152l2.948,1.278l3.261,0.067l2.926,1.409l3.255,0.018l2.915,1.542
		l3.272-0.136l3.114,0.611l3.08,0.811l3.015,1.243l3.295-0.478l3.032,1.221l3.159,0.379l3.17,0.286l3.137,0.578l3.234-0.367
		l3.175,0.129l3.143,0.809l3.163,0.676l3.196,0.21l3.22-0.348l3.204-0.12l3.2-0.154l3.195-0.112l3.193,0.206l3.195,0.08l3.199,0.064
		l3.185-0.408l3.23,0.705l3.155-0.9l3.253,0.725l3.112-1.243l3.259,0.558l3.088-1.234l3.284,0.593l3.15-0.607l3.06-1.202
		l3.258,0.182l3.148-0.568l3.124-0.693l3.074-0.936l3.251-0.043l3.138-0.626l3.002-1.21l3.166-0.499l2.969-1.285l3.098-0.767
		l3.049-0.945l3.16-0.559l2.988-1.085l3.133-0.695l3.064-0.902l2.724-1.8l3.28-0.358l2.98-1.142l2.669-1.887l3.172-0.685
		l2.961-1.194l2.807-1.536l2.898-1.332l2.59-1.968l2.77-1.575l3.314-0.507l2.848-1.442l2.603-1.894l3.023-1.131l2.199-2.578
		l2.884-1.371l2.758-1.589l2.678-1.719l2.523-1.954l2.818-1.504l2.655-1.753l3.014-1.259l2.396-2.127l2.605-1.842l1.939-2.686
		l3.066-1.272l2.37-2.138l2.06-2.485l2.939-1.498l1.589-2.966l2.891-1.589l1.861-2.643l2.042-2.445l2.537-1.987l1.912-2.559
		l2.447-2.1l2.027-2.464l1.969-2.511l1.313-2.994l2.335-2.241l1.589-2.772l1.512-2.809l1.591-2.749l1.485-2.806l1.653-2.708
		l1.395-2.85l2.115-2.492l0.887-3.101l2.129-2.534l0.44-3.272l1.343-2.885l1.583-2.788l1.232-2.933l1.307-2.921l1.38-2.918
		l1.939-2.566l2.196-2.347l2.394-2.133l1.795-2.733l2.553-1.962l2.777-1.62l2.496-2.055l3.253-0.62l2.593-2.115l3.145-0.752
		l3.172-0.562l3.156-0.526l3.252,0.032l2.998-1.377l3.265-0.032l3.063-0.97l3.224-0.381l3.093-0.899l2.909-1.417l3.023-1.096
		l2.812-1.568l3.001-1.224l2.261-2.399l2.83-1.551l2.446-2.094l1.943-2.568l2.199-2.402l1.122-3.056l1.018-3.029l0.624-3.122
		l1.043-3.099l0.195-3.206L589.354,193.882z M577.75,199.801l-0.591,2.976l-0.961,2.86l-1.302,2.743l-2.04,2.256l-1.887,2.455
		l-2.37,2.019l-2.611,1.718l-2.839,1.302l-3.028,0.786l-3.027,0.664l-2.855,1.315l-3.066,0.504l-2.985,1.012l-3.149-0.059
		l-3.166,0.727l-3.245-0.039l-3.253,0.251l-2.966,1.422l-3.127,0.793l-3.074,1.019l-2.658,1.894l-3.095,1.084l-2.89,1.53
		l-2.005,2.702l-2.932,1.546l-2.16,2.43l-2.375,2.221l-1.904,2.632l-2.057,2.51l-1.217,3.07l-2.328,2.365l-1.043,3.114l-1.1,3.039
		l-2.036,2.616l-1.2,2.945l-0.993,3.052l-2.095,2.512l-1.34,2.881l-1.256,2.937l-1.607,2.746l-1.643,2.725l-2.066,2.453l-1.62,2.735
		l-1.423,2.883l-2.239,2.308l-1.877,2.564l-1.297,3.029l-2.482,2.091l-1.746,2.696l-2.156,2.351l-2.597,1.94L465,306.825
		l-2.701,1.808l-1.702,2.808l-2.117,2.406l-2.938,1.512l-1.975,2.574l-2.641,1.816l-2.772,1.637l-2.02,2.571l-2.865,1.498
		l-2.462,2.018l-2.401,2.115l-2.455,2.054l-2.995,1.253l-2.649,1.762l-2.664,1.742l-2.611,1.838l-3.029,1.125l-2.3,2.408
		l-3.309,0.584l-2.758,1.584l-2.439,2.233l-2.847,1.438l-3.118,0.86l-3.098,0.868l-2.547,2.126l-3.007,1.081l-3.177,0.638
		l-3.003,1.044l-2.973,1.128l-3.011,1.029l-2.656,2.081l-3.118,0.746l-3.229,0.364l-2.784,1.757l-3.142,0.58l-3,1.075l-3.103,0.702
		l-3.194,0.31l-3.02,1.024l-3.086,0.757l-3.269-0.157l-2.997,1.206l-3.106,0.666l-3.203,0.067l-3.056,1.026l-3.256-0.41
		l-3.024,1.418l-3.228-0.303l-3.191-0.076l-3.094,1.071l-3.169,0.227l-3.171,0.196l-3.165,0.283l-3.196-0.639l-3.162,0.479
		l-3.177-0.55l-3.172,0.376l-3.178,0.232l-3.154-0.69l-3.168-0.083l-3.168-0.167l-3.178,0.087l-3.146-0.571l-3.237,0.643
		l-3.122-0.847l-3.227,0.258l-3.061-1.247l-3.188-0.131l-3.133-0.559l-3.272,0.352l-2.993-1.43l-3.227-0.011l-3.08-0.841
		l-3.208-0.192l-2.93-1.519l-3.292,0.15l-3.044-0.963l-3.137-0.58l-3.012-1.064l-3.096-0.744l-3.04-0.944l-3.055-0.891l-2.941-1.249
		l-3.125-0.679l-2.876-1.416l-2.958-1.165l-3.236-0.424l-3.009-1.053l-2.931-1.252l-3.014-1.054l-2.813-1.525l-2.845-1.439
		l-2.825-1.472l-2.976-1.155l-2.655-1.807l-2.977-1.168l-2.754-1.601l-2.623-1.832l-2.906-1.32l-2.659-1.752l-2.861-1.413
		l-2.534-1.946l-2.778-1.555l-2.438-2.072l-3.181-0.98l-2.679-1.734l-2.248-2.326l-2.223-2.332l-2.712-1.683l-2.934-1.425
		l-1.949-2.641l-2.375-2.11l-2.265-2.232l-2.362-2.117l-2.677-1.786l-2.588-1.902l-1.678-2.824l-2.919-1.599l-1.99-2.506
		l-2.257-2.255l-1.881-2.588l-1.637-2.78l-2.755-1.853l-1.391-2.959l-1.675-2.715l-2.164-2.347l-1.857-2.578l-1.909-2.545
		l-2.027-2.476l-1.669-2.713l-1.152-3.019l-2.061-2.48l-1.56-2.776l-1.785-2.662l-0.608-3.257l-1.864-2.63l-1.064-3.011l-1.325-2.89
		l-1.27-2.915l-1.347-2.834l-1.495-2.753l-1.813-2.597l-0.859-3.077l-1.166-2.939l-1.79-2.601l-1.278-2.9l-2.267-2.286l-1.306-2.903
		l-2.171-2.312l-2.004-2.414l-1.592-2.745l-2.299-2.163l-2.279-2.158l-2.246-2.176l-1.768-2.663l-2.521-1.902l-2.297-2.137
		l-2.194-2.27l-2.817-1.497l-2.45-1.946l-2.38-2.059l-2.442-2l-2.804-1.45l-2.855-1.353l-2.567-1.828l-2.534-1.738l-2.519-1.746
		l-2.826-1.293l-1.946-2.526l-2.699-1.505l-2.606-1.703l-1.786-2.554l-1.865-2.418l-1.983-2.35l-0.965-2.935l-1.054-2.816
		l-1.2-2.831l-0.274-3.053l-0.042-3.07l0.363-3.064l1.401-2.766l0.527-3.149l2.411-2.082l1.903-2.368l2.199-2.146l2.847-1.205
		l2.711-1.334l2.67-1.507l2.804-1.305l3.073-0.386l2.97-0.754l2.98-0.817l3.082-0.141l3.106,0.343l3.197-0.337l3.129-0.929
		l3.119-0.813l3.216-0.113l3.154-0.546l3.123-0.701l3.312,0.08l3.023-1.154l2.931-1.397l3.003-1.093l3.166-0.637l3.102-0.876
		l2.823-1.557l2.794-1.578l2.841-1.462l3.004-1.189l2.631-1.844l2.68-1.752l2.704-1.732l2.195-2.38l2.884-1.566l2.189-2.364
		l2.252-2.291l1.784-2.692l2.076-2.434l1.857-2.606l1.752-2.681l1.571-2.756l1.468-2.828l2.252-2.311l1.638-2.72l1.602-2.764
		l2.103-2.387l1.935-2.519l2.079-2.402l2.049-2.432l2.363-2.136l2.469-2.013l1.988-2.512l2.643-1.807l2.014-2.521l2.448-2.029
		l2.793-1.587l2.335-2.171l2.762-1.596l2.773-1.557l2.624-1.767l2.417-2.102l3.024-1.127l2.601-1.818l2.337-2.319l2.888-1.344
		l2.915-1.277l3.059-0.966l2.833-1.416l2.933-1.2l2.808-1.491l3.066-0.876l2.765-1.625l3.055-0.884l2.742-1.759l3.048-0.914
		l2.968-1.163l3.252-0.244l3.028-0.754l3.035-0.725l2.926-1.165l2.995-0.914l3.067-0.605l3.131-0.291l3.002-0.909l3.02-0.851
		l3.238,0.389l2.958-1.216l3.17,0.075l3.058-0.643l3.039-0.825l3.131-0.14l3.125-0.157l3.13-0.073l3.103-0.314l3.047-0.987
		l3.112-0.294l3.155,0.33l3.122-0.066l3.082-0.883l3.15,0.465l3.106-0.667l3.12-0.422l3.133,0.265l3.125,0.462l3.13-0.721
		l3.114,0.733l3.147-0.628l3.087,1.004l3.16-0.638l3.12,0.197l3.098,0.473l3.08,0.984l3.235-0.683l3.056,1.1l3.136,0.322l3.14,0.302
		l3.09,0.663l3.224-0.205l3.144,0.361l3.009,1.116l3.009,1.049l3.08,0.657l3.185,0.18l3.129,0.474l3.13,0.513l3.106,0.627
		l3.005,1.006l3.015,0.955l2.995,1.012l3.111,0.633l2.744,1.767l3.222,0.314l2.662,1.928l3.304,0.145l2.645,1.914l3.271,0.31
		l2.55,2.09l2.978,1.048l3.198,0.577l2.587,1.927l2.867,1.312l2.888,1.273l2.968,1.129l2.505,2.01l2.737,1.556l2.995,1.109
		l2.593,1.817l2.968,1.195l2.649,1.725l2.702,1.64l2.43,2.044l2.623,1.751l2.339,2.153l2.414,2.033l2.944,1.325l1.956,2.616
		l2.411,2.006l2.88,1.449l1.945,2.54l2.237,2.193l2.428,1.995l2.203,2.229l2.646,1.818l2.267,2.199l1.28,3.055l1.979,2.428
		l2.3,2.177l1.528,2.78l2.785,1.858l1.579,2.743l1.694,2.655l1.733,2.628l1.887,2.537l1.338,2.868l1.506,2.762l0.883,3.096
		l1.737,2.628l1.346,2.837l2.234,2.393l0.543,3.234l1.475,2.774l1.836,2.603l0.59,3.202l2.344,2.358l0.601,3.204l1.897,2.565
		l1.637,2.685l1.038,3.007l1.789,2.594l1.205,2.945l1.72,2.64l1.833,2.566l2.526,2.004l1.617,2.748l2.383,2.064l2.501,1.89
		l2.503,1.85l2.641,1.634l2.608,1.685l2.814,1.315l2.557,1.951l3.123,0.583l2.729,1.79l3.26-0.062l3.027,0.822l3.029,0.904
		l3.148,0.24l3.157,0.037l3.341,0.042l3.232,0.835l3.057,1.32l2.791,1.76l3.122,1.282l2.322,2.416l1.712,2.846l1.878,2.767
		l0.067,3.396l1.426,3.126L577.75,199.801z"/>
	<polygon points="538.848,190.427 536.349,188.47 533.742,186.709 530.687,185.939 527.691,185.203 524.671,184.613 
		521.662,183.986 518.663,183.179 515.61,182.577 512.485,182.983 509.392,182.914 506.373,183.696 503.261,183.73 500.372,184.892 
		497.289,185.332 494.247,186.072 491.684,187.919 488.853,189.171 486.106,190.63 483.912,192.871 481.143,194.378 
		478.646,196.283 477.214,199.189 474.671,201.112 473.042,203.779 471.172,206.284 469.851,209.114 468.376,211.86 
		467.857,214.993 466.126,217.682 465.838,220.832 465.506,223.921 464.522,226.561 464.938,223.735 464.67,220.554 
		465.489,217.398 465.34,214.221 464.968,211.055 464.882,207.886 464.731,204.719 464.978,201.526 464.604,198.376 
		463.891,195.255 464.086,192.057 463.756,188.902 462.606,185.83 462.885,182.614 462.142,179.503 461.863,176.342 462.115,173.12 
		461.191,170.041 461.485,166.819 460.316,163.766 459.664,160.649 460.164,157.398 459.188,154.315 459.167,151.129 
		459.319,147.922 458.235,144.847 458.467,141.63 458.006,138.484 457.394,135.352 456.827,132.211 457.189,128.989 
		456.908,125.822 455.981,122.43 453.846,119.694 451.285,117.214 447.707,117.245 444.414,116.475 441.403,118.002 
		439.708,120.863 438.216,123.567 436.768,126.444 436.007,129.579 436.653,132.832 436.201,135.989 435.315,139.103 
		434.904,142.26 434.619,145.428 434.262,148.59 435.045,151.869 434.456,155.009 433.504,158.108 434.012,161.369 433.329,164.497 
		433.19,167.688 432.696,170.837 431.835,173.938 431.732,177.135 431.385,180.308 430.143,183.353 430.306,186.595 430.166,189.76 
		429.453,192.836 429.508,196.07 427.939,199.075 428.318,202.39 427.065,205.411 426.088,208.47 426.274,211.746 425.653,214.87 
		425.021,217.997 424.492,221.146 423.079,224.097 422.773,227.292 421.478,230.256 421.097,233.435 420.586,236.587 
		419.193,239.511 418.398,242.587 417.531,245.643 416.916,248.771 415.677,251.719 415.61,255.017 414.139,257.892 413.74,261.102 
		411.913,263.852 411.17,266.952 410.033,269.916 409.782,273.189 407.845,275.873 407.277,279.045 405.934,281.938 
		405.227,285.071 403.271,287.73 402.933,290.999 401.548,293.869 400.549,296.898 399.106,299.751 397.995,302.731 
		396.708,305.652 395.495,308.608 394.238,311.038 394.234,313.771 394.153,317.126 395.701,320.191 398.764,321.619 
		401.834,322.333 404.668,322.182 407.209,320.94 409.59,319.352 411.399,317.057 412.661,314.374 413.422,311.297 414.833,308.435 
		415.523,305.335 416.632,302.374 417.949,299.481 418.663,296.392 419.806,293.434 420.524,290.339 421.789,287.418 
		422.562,284.341 423.874,281.433 423.87,278.118 424.675,275.055 426.125,272.187 427.537,269.302 428.112,266.171 428.3,262.933 
		429.931,260.105 430.846,257.078 431.857,254.077 432.659,251.017 432.955,247.826 433.327,244.659 434.889,241.788 
		434.691,238.484 435.686,235.47 436.256,232.354 437.248,229.333 438.473,226.358 438.208,223.061 439.591,220.113 440.536,217.07 
		440.809,213.893 441.385,210.778 441.827,207.638 442.061,204.467 442.627,201.357 443.71,198.331 443.691,195.115 
		444.186,191.981 444.348,188.8 445.734,185.802 445.652,182.588 446.369,179.485 446.723,176.332 447.059,173.175 447.505,170.1 
		447.817,173.124 448.595,176.179 448.258,179.341 448.184,182.476 448.734,185.557 448.602,188.686 449.535,191.735 
		449.229,194.877 449.867,197.955 450.209,201.056 449.919,204.194 450.438,207.288 450.843,210.392 451.108,213.505 
		450.587,216.647 451.035,219.753 451.056,222.876 450.809,226.003 451.457,229.114 451.428,232.236 451.17,235.358 
		450.902,238.477 451.201,241.594 451.518,244.717 451.189,247.834 450.901,250.952 450.661,254.069 451.046,257.201 
		450.017,260.28 450.376,263.423 450.674,266.572 449.975,269.659 449.648,272.772 449.722,275.915 449.193,279.261 449.893,282.61 
		452.039,285.247 454.669,287.202 457.877,287.891 461.218,287.388 464.481,286.079 465.947,282.855 468.049,280.017 
		468.575,276.544 468.748,273.403 469.719,270.375 470.23,267.285 470.338,264.131 470.49,260.979 471.431,257.961 471.868,254.857 
		472.147,251.718 473.017,248.698 474.295,245.776 474.937,242.717 475.123,239.532 475.552,236.39 476.8,233.479 477.774,230.493 
		478.757,227.509 480.656,224.893 481.563,221.893 482.457,218.843 483.871,216.021 485.939,213.61 488.044,211.293 
		489.869,208.749 492.02,206.443 494.581,204.591 497.543,203.487 500.398,202.218 503.46,201.576 506.581,201.494 509.729,201.084 
		512.903,202.24 516.124,202.862 519.198,204.029 522.403,204.921 525.436,206.198 528.648,206.865 531.527,206.681 
		534.198,205.577 536.369,203.704 538.728,201.925 539.915,199.229 540.844,196.416 540.534,193.193 	"/>
	<polygon points="269.123,198.184 269.601,195.035 269.676,193.718 267.223,193.017 267.568,197.539 267.751,200.734 
		268.024,201.478 268.074,201.22 	"/>
	<path d="M402.728,210.511l1.589-2.884l-0.132-3.287l0.921-3.044l0.478-3.142l0.908-3.052l0.525-3.132l0.669-3.103l0.555-3.125
		l0.865-3.07l0.214-3.186l0.92-3.066l0.598-3.122l-0.248-3.248l0.349-3.153l0.497-3.133l0.218-3.171l0.66-3.115l0.502-3.135
		l0.473-3.145l0.053-3.178l0.706-3.122l-0.077-3.218l0.332-3.187l0.521-3.181l-0.142-3.213l0.274-3.196l-0.204-3.206l0.335-3.2
		l-0.215-3.2l0.311-3.21l-1.105-3.158l-0.299-3.178l0.327-3.227l0.234-3.241l-0.69-3.151l-1.145-3.068l0.272-3.286l-0.539-3.165
		l-0.528-3.176l-0.834-3.108l-1.439-2.913l-1.473-2.859l-0.476-3.268l-2.279-2.437l-1.352-2.876l-1.923-2.521l-1.806-2.623
		l-1.926-2.632l-3.113-1.174l-2.38-2.233l-2.88-1.53l-3.224-0.497l-3.18-0.553l-3.304-0.186l-3.302,0.349l-3.171,0.966l-3.144,1.082
		l-2.55,2.143l-2.314,2.282l-1.978,2.541l-1.78,2.675l-1.733,2.765l-1.345,3.007l-0.202,3.305l-0.562,3.202l0.379,3.251l-0.468,3.11
		l0.468,3.11l-0.498,3.114l-0.418,3.108l0.571,3.118l-0.301,3.103l-0.298,3.099l0.439,3.125l-0.713,3.084l-0.456,3.086l0.785,3.143
		l-0.918,3.058l0.042,3.108l-0.463,3.077l-0.036,3.107l-0.421,3.11l0.408,3.185l-1.071,3.046l0.249,3.178l0.011,3.159l-1.158,3.02
		l-0.298,3.121l-0.024,3.161l-1.194,2.996l-0.319,3.119l-0.177,3.144l-0.53,3.089l-0.529,3.089l-0.98,3l-0.42,3.101l-0.138,3.16
		l-1.077,2.975l-0.602,3.069l0.164,3.238l-1.274,2.926l-0.304,3.144l-0.788,3.035l-1.334,2.901l-0.207,3.178l-1.417,2.874
		l-0.01,3.238l-0.532,3.107l-1.664,2.8l-0.245,3.189l-1.178,2.928l-1.353,2.873l-0.165,3.221l-1.435,2.838l-0.769,3.039
		l-0.625,3.088l-0.667,3.081l-1.551,2.802l-0.929,3l-0.916,3.003l-0.774,3.045l-1.525,2.8l-0.092,3.288l-2.027,2.621l-0.915,3.014
		l-0.201,3.272l-0.964,3.046l-1.248,3.012l-0.9,3.174l0.826,3.27l0.05,3.208l-0.034,3.297l0.806,3.185l1.306,3.023l1.636,2.866
		l2.876,1.832l2.143,2.335l2.342,2.302l3.273,0.559l2.956,1.188l3.185,0.222l3.046,0.166l3.115,0.169l2.969-0.929l2.913-0.997
		l3.181-0.462l2.466-2.01l2.537-1.764l2.744-1.517l1.952-2.471l2.784-1.617l1.247-3.027l2.393-2.057l2.066-2.371l0.908-3.083
		l1.453-2.728l1.315-2.804l1.212-2.93l1.974-2.588l0.876-3.076l1.753-2.707l0.828-3.088l0.893-3.054l1.692-2.753l1.063-2.993
		l1.082-2.986l0.783-3.087l1.35-2.896l0.138-3.289l1.488-2.855l0.369-3.203l1.76-2.785l0.625-3.123l0.98-3.014l0.033-3.274
		l1.717-2.821l0.269-3.205l1.028-3.011L402.728,210.511z M397.036,138.309l-0.666,3.073l0.494,3.19l-0.334,3.111l-0.348,3.11
		l-0.245,3.124l-1.143,3.007l-0.017,3.156l-1.019,3.016l-0.086,3.151l-0.212,3.137l-1.107,2.993l-0.491,3.092l-0.558,3.081
		l-0.293,3.129l-0.926,3.013l0.283,3.245l-1.152,2.971l-0.044,3.192l-1.507,2.893l-0.387,3.124l-0.789,3.039l0.13,3.245
		l-1.609,2.852l-0.188,3.179l-0.988,2.989l-0.328,3.151l-1.622,2.823l0.05,3.251l-1.035,2.968l-0.637,3.074l-1.101,2.943
		l-0.767,3.036l-0.953,2.984l-0.887,3.005l-1.234,2.894l-0.654,3.08l-1.384,2.835l-1.128,2.913l-0.385,3.189l-1.022,2.97
		l-1.229,2.883l-1.05,2.96l-1.546,2.739l-1.893,2.546l-1.627,2.717l-1.738,2.628l-1.87,2.545l-2.434,1.984l-2.356,2.123
		l-2.924,1.323l-3.236,0.398l-3.251-0.77l-2.511-2.123l-1.257-2.866l-0.813-3.135l0.478-2.667l0.514-2.722l1.456-2.759l0.573-3.12
		l1.467-2.813l1.372-2.848l0.411-3.171l1.216-2.908l1.188-2.918l0.458-3.152l1.527-2.81l1.253-2.9l0.033-3.274l1.629-2.785
		l0.674-3.073l1.123-2.94l0.674-3.07l1.005-2.974l0.165-3.205l1.561-2.826l0.239-3.179l0.43-3.124l1.532-2.855l0.651-3.076
		l0.339-3.146l1.448-2.887l0.544-3.095l0.359-3.132l0.664-3.064l0.619-3.072l1.027-2.993l0.425-3.11l0.097-3.166l0.996-3.011
		l0.476-3.101l-0.343-3.225l1.069-3.005l0.043-3.156l0.492-3.091l1.009-3.027l-0.182-3.176l1.017-3.034l-0.466-3.199l0.031-3.141
		l1.162-3.031l-0.339-3.168l0.593-3.1l0.75-3.17l-0.513-3.265l0.782-3.172l0.059-3.224l-0.122-3.234l-0.109-3.232l0.788-3.188
		l0.107-3.224l0.064-3.217l-0.112-3.226l0.648-3.209l-0.893-3.25l1.124-3.203l-0.083-3.237l-0.87-3.242l0.271-3.288l1.401-2.997
		l1.975-2.455l1.91-2.683l3.309-0.431l2.883,1.333l2.455,1.755l2.01,2.294l1.504,2.696l2.239,2.501L396,87.761l0.138,3.228
		l1.424,2.969l0.126,3.202l0.57,3.134l0.138,3.178l-0.299,3.195l0.411,3.163l0.121,3.176l-0.82,3.165l0.566,3.178l0.016,3.177
		l-0.587,3.153l0.39,3.2l-1.048,3.116l0.801,3.248L397.036,138.309z"/>
	<polygon points="353.459,322.435 350.355,321.661 347.326,322.219 344.444,323.381 341.93,325.172 339.655,327.304 
		336.674,328.333 333.729,328.961 330.771,329.55 327.742,329.06 324.566,329.166 321.889,327.474 319.042,326.13 316.575,324.144 
		314.821,321.492 312.653,319.193 310.726,316.675 309.049,313.984 308.192,310.882 306.565,308.165 305.406,305.232 
		304.566,302.183 302.944,299.423 302.007,296.413 301.33,293.326 300.699,290.234 299.553,287.288 298.412,284.331 
		297.916,281.207 297.398,278.094 296.85,274.991 295.699,272.018 295.943,268.753 294.831,265.766 293.781,262.759 
		293.713,259.567 293.278,256.445 292.445,253.391 292.463,250.198 292.005,247.084 291.038,244.045 290.632,240.926 
		290.087,237.823 289.572,234.714 289.71,231.516 288.444,228.5 288.876,225.275 288.288,222.174 287.667,219.072 287.837,215.884 
		287.535,212.744 286.816,209.651 286.192,206.312 289.583,206.222 292.653,205.443 295.57,204.223 298.578,203.283 
		301.698,202.419 304.395,200.698 306.628,198.366 308.781,196.049 311.314,194.164 313.475,191.873 315.446,189.417 
		318.009,187.383 319.505,184.559 320.728,181.601 322.18,178.808 324.048,176.227 325.706,173.51 326.703,170.487 327.683,167.475 
		328.803,164.526 330.263,161.689 331.059,158.617 332.008,155.6 333.053,152.604 333.371,149.428 334.569,146.612 334.846,143.623 
		335.326,140.663 335.288,137.643 335.713,134.683 335.947,131.52 336.138,128.351 336.141,125.177 335.85,122.01 336.326,118.815 
		335.888,115.657 335.218,112.536 334.985,109.372 334.35,106.267 333.698,103.171 332.799,100.142 332.096,97.051 331.309,93.96 
		329.639,91.228 328.583,88.209 326.436,85.816 324.581,83.289 322.847,80.607 320.29,78.72 317.909,76.613 315.241,74.817 
		312.237,73.66 309.03,73.326 305.945,72.288 302.708,72.383 299.546,73.348 296.409,73.581 293.32,74.245 290.229,75.224 
		287.715,77.28 285.519,79.673 284.073,82.571 282.441,85.377 281.763,88.513 280.403,91.389 279.977,94.613 278.768,97.545 
		277.865,100.587 276.113,103.33 274.987,106.297 273.886,109.273 273.269,112.413 272.456,115.483 271.393,118.471 270.074,121.37 
		269.404,124.476 268.723,127.577 266.883,130.324 266.645,133.56 265.198,136.433 264.489,139.526 263.999,142.681 
		262.886,145.657 261.83,148.651 260.734,151.637 259.912,154.699 259.782,157.945 259.021,161.02 257.694,163.951 256.791,166.993 
		256.722,170.244 255.382,173.179 255.184,176.394 254.787,179.557 253.757,182.573 252.577,185.556 252.597,188.812 
		251.25,191.753 251.271,194.999 249.739,197.907 249.859,201.171 249.207,204.27 248.332,207.324 247.001,210.29 247.358,213.592 
		246,216.557 245.456,219.682 244.978,222.82 244.186,225.9 244.306,229.144 243.91,232.294 242.806,235.322 241.814,238.374 
		241.262,241.501 241.241,244.713 240.973,247.884 240.717,251.056 240.396,254.216 239.737,257.326 239.178,260.451 
		238.611,263.576 238.487,266.762 237.233,269.796 237.547,273.038 236.218,276.069 236.821,279.344 235.602,282.395 
		236.146,285.655 234.835,288.702 234.696,291.882 235.128,295.122 234.141,298.211 233.88,301.377 233.717,304.552 
		233.773,307.746 232.893,310.856 232.576,314.017 232.829,317.224 232.328,320.37 232.606,323.574 232.325,326.735 232.202,329.91 
		231.864,333.102 232.568,336.221 233.665,339.293 235.791,341.853 238.963,342.851 241.949,344.428 245.346,344.146 
		247.846,341.897 250.314,339.702 251.694,336.686 252.227,333.444 252.684,330.206 252.732,327.023 252.723,323.859 
		252.601,320.69 252.91,317.53 252.56,314.342 252.504,311.161 252.536,307.981 252.798,304.815 253.404,301.677 253.954,298.539 
		253.688,295.329 254.13,292.181 253.948,288.971 254.742,285.86 254.611,282.65 255.444,279.548 256.199,276.44 255.972,273.214 
		256.608,270.093 257.239,266.973 257.133,263.755 258.164,260.691 258.932,257.594 258.461,254.319 259.665,251.295 
		259.907,248.128 260.637,245.035 260.93,241.873 261.59,238.767 261.416,235.525 262.695,232.521 262.653,229.296 262.833,226.105 
		264.16,223.113 264.619,219.97 264.793,216.774 266.116,213.788 266.557,210.639 266.841,207.46 267.465,204.342 268.024,201.478 
		267.751,200.734 267.568,197.539 267.223,193.017 269.676,193.718 269.784,191.829 270.892,188.814 271.516,185.699 
		271.363,182.415 272.638,179.441 272.933,176.251 273.704,173.168 275.015,170.21 275.188,166.989 276.57,164.053 276.534,160.776 
		277.017,157.621 278.636,154.751 278.826,151.518 279.953,148.527 281.256,145.587 281.366,142.324 282.759,139.412 
		283.485,136.317 284.072,133.177 284.707,130.049 286.239,127.197 287.158,124.157 288.079,121.115 288.878,118.03 
		290.443,115.211 290.604,111.894 292.714,109.295 293.75,106.3 294.128,103.02 295.347,100.08 297.168,97.419 298.998,94.8 
		299.861,91.408 303.117,92.734 305.569,94.93 307.856,97.136 309.849,99.612 311.42,102.389 313.736,104.935 314.505,108.153 
		314.661,111.467 316.055,114.547 316.093,117.845 316.525,121.103 316.47,124.383 315.926,127.637 316.036,130.911 
		315.815,134.047 314.615,137.051 314.738,140.239 314.264,143.345 313.149,146.309 312.929,149.49 311.261,152.273 
		311.305,155.578 309.648,158.328 308.163,161.106 307.679,164.307 306.345,167.159 304.913,169.965 303.479,172.776 
		301.181,175.042 299.734,177.852 297.361,179.972 295.601,182.577 293.586,185.002 290.827,186.599 288.35,188.467 
		285.689,190.055 282.997,191.627 279.951,192.294 277.081,193.817 273.897,193.541 270.732,194.019 269.676,193.718 
		269.601,195.035 269.123,198.184 268.074,201.22 268.024,201.478 268.886,203.826 268.264,207.088 269.111,210.209 
		269.161,213.406 269.911,216.535 269.357,219.796 270.545,222.871 270.645,226.06 271.185,229.204 271.277,232.398 
		271.748,235.551 272.064,238.723 272.488,241.882 272.593,245.085 273.347,248.202 273.387,251.419 273.746,254.594 
		274.949,257.639 275.55,260.773 276.003,263.931 276.733,267.04 277.024,270.229 277.474,273.391 277.958,276.55 278.858,279.621 
		279.123,282.832 280.163,285.867 280.81,288.993 281.284,292.172 282.41,295.175 283.147,298.29 284.355,301.26 285.067,304.393 
		286.319,307.343 287.099,310.471 289.217,313.056 290.609,315.917 291.465,319.034 292.453,322.124 294.302,324.76 
		296.574,327.103 297.692,330.193 299.558,332.804 301.481,335.39 303.713,337.722 306.427,339.512 309.184,341.146 
		311.391,343.594 314.654,344.256 317.444,345.746 320.495,346.568 323.522,347.538 326.633,348.486 329.893,347.635 
		333.159,348.169 336.442,347.959 339.521,346.802 342.578,345.687 345.468,344.198 348.096,342.297 350.734,340.467 
		353.547,338.757 355.29,335.973 356.955,333.254 357.5,330.22 357.944,327.007 355.816,324.551 	"/>
</g>
</svg>
