<?xml version="1.0" encoding="utf-8"?>
<!-- Generator: Adobe Illustrator 17.0.0, SVG Export Plug-In . SVG Version: 6.00 Build 0)  -->
<!DOCTYPE svg PUBLIC "-//W3C//DTD SVG 1.1//EN" "http://www.w3.org/Graphics/SVG/1.1/DTD/svg11.dtd">
<svg version="1.1" id="Calque_1" xmlns="http://www.w3.org/2000/svg" xmlns:xlink="http://www.w3.org/1999/xlink" x="0px" y="0px"
	 width="320.803px" height="324.032px" viewBox="0 0 320.803 324.032" enable-background="new 0 0 320.803 324.032"
	 xml:space="preserve">
<g>
	<polygon fill="#FFCE00" stroke="#000000" stroke-width="5.6331" stroke-miterlimit="10" points="12.578,68.047 3,291.575 
		296.528,245.379 305.081,17.48 	"/>
	<path d="M138.163,107.362"/>
	<path d="M172.627,101.86"/>
	<path d="M207.732,96.253"/>
	<path d="M278.265,84.991"/>
	<path d="M21.084,133.264l14.807-2.364c7.134-1.118,11.206,1.493,12.218,7.831c0.209,1.307,0.281,2.788,0.216,4.445l-4.219,113.878
		c-0.325,9.517-4.971,15.001-13.939,16.455l-14.262,2.276L21.084,133.264z M31.425,142.12l-4.468,121.393l3.179-0.507
		c2.098-0.335,3.19-1.749,3.275-4.245l4.22-113.877c0.081-2.517-0.927-3.607-3.026-3.272L31.425,142.12z"/>
	<polygon points="56.511,127.607 81.693,123.587 81.336,134.15 66.852,136.464 64.923,186.327 77.385,184.336 77.003,194.938 
		64.54,196.927 62.383,257.857 76.869,255.544 76.514,266.108 51.332,270.129 	"/>
	<path d="M97.929,122.649l15.519-2.478c7.477-1.171,11.746,1.566,12.806,8.208c0.219,1.369,0.294,2.922,0.226,4.659l-1.328,39.465
		c-0.341,9.975-5.21,15.724-14.61,17.247l-14.948,2.388L97.929,122.649z M108.767,131.931l-1.589,47.342l3.332-0.532
		c2.199-0.351,3.344-1.832,3.433-4.449l1.328-39.465c0.085-2.637-0.972-3.78-3.173-3.429L108.767,131.931z"/>
	<polygon points="135.061,116.72 161.455,112.506 161.081,123.578 145.899,126.003 145.304,144.118 158.366,142.033 
		157.966,153.143 144.904,155.23 144.31,173.345 159.493,170.922 159.12,181.993 132.727,186.207 	"/>
	<path d="M167.38,125.403c0.337-9.997,5.342-15.766,15.015-17.311c8.123-1.297,12.729,1.453,13.815,8.255
		c0.211,1.324,0.285,2.797,0.222,4.417l-0.325,9.857l-11.21,1.79l0.325-9.857c0.091-2.591-0.964-3.724-3.167-3.395l-0.067,0.011
		c-2.177,0.347-3.31,1.828-3.399,4.443l-0.188,6.175c-0.102,2.825,2.647,5.908,8.243,9.249c5.994,3.53,8.887,8.454,8.676,14.771
		l-0.282,8.607c-0.334,10.019-5.336,15.8-15.009,17.345c-8.128,1.275-12.735-1.487-13.821-8.289
		c-0.211-1.324-0.286-2.796-0.223-4.417l0.325-9.857l11.211-1.79l-0.325,9.857c-0.089,2.615,0.978,3.744,3.2,3.39
		c2.2-0.351,3.343-1.833,3.432-4.45l0.277-7.777c0.085-3.074-2.672-6.281-8.269-9.623c-5.996-3.531-8.889-8.534-8.68-15.013
		L167.38,125.403z"/>
	<path d="M203.838,119.582c0.337-9.997,5.343-15.768,15.016-17.312c8.123-1.298,12.729,1.453,13.815,8.255
		c0.211,1.324,0.285,2.797,0.221,4.417l-0.324,9.857l-11.21,1.789l0.325-9.855c0.092-2.592-0.963-3.724-3.166-3.395l-0.068,0.011
		c-2.176,0.347-3.309,1.829-3.398,4.443l-0.188,6.175c-0.102,2.825,2.646,5.908,8.243,9.248c5.994,3.531,8.887,8.455,8.676,14.771
		l-0.282,8.607c-0.334,10.019-5.337,15.801-15.01,17.345c-8.128,1.275-12.735-1.488-13.821-8.289
		c-0.212-1.324-0.286-2.796-0.223-4.417l0.325-9.857l11.211-1.791l-0.325,9.858c-0.089,2.615,0.978,3.744,3.199,3.39
		c2.2-0.352,3.343-1.833,3.432-4.45l0.278-7.777c0.084-3.073-2.672-6.281-8.269-9.623c-5.996-3.531-8.889-8.534-8.681-15.012
		L203.838,119.582z"/>
	<polygon points="241.609,99.707 252.82,97.916 250.486,167.404 239.275,169.195 	"/>
	<polygon points="261.741,96.493 272.816,94.725 279.126,127.756 280.289,93.531 290.793,91.853 288.459,161.341 277.383,163.109 
		271.353,130.965 270.247,164.249 259.406,165.979 	"/>
	<path d="M96.011,201.393l13.807-2.204c7.017-1.099,11.024,1.469,12.019,7.703c0.205,1.285,0.275,2.743,0.212,4.373l-0.312,9.609
		c-0.24,6.884-3.413,11.83-9.521,14.836c-1.486,0.712-3.586,1.286-6.303,1.72l-0.663,0.105l-0.908,27.393l-10.521,1.68
		L96.011,201.393z M106.183,210.104l-0.557,17.002l1.264-0.201c1.138-0.182,1.874-0.365,2.213-0.548
		c1.348-0.756,2.053-2.024,2.115-3.805l0.312-9.607c0.081-2.475-0.912-3.548-2.976-3.219L106.183,210.104z"/>
	<path d="M129.153,196.101l13.806-2.205c7.017-1.099,11.024,1.47,12.019,7.704c0.205,1.285,0.276,2.742,0.213,4.372l-0.313,9.609
		c-0.201,5.907-2.632,10.096-7.292,12.569l9.137,28.413l-11.469,1.831l-6.27-26.894l-0.569,0.09l-0.933,28.046l-10.521,1.679
		L129.153,196.101z M139.325,204.812l-0.557,17.002l1.264-0.201c1.138-0.182,1.874-0.365,2.213-0.548
		c1.348-0.756,2.053-2.024,2.115-3.805l0.312-9.607c0.08-2.475-0.912-3.548-2.976-3.219L139.325,204.812z"/>
	<polygon points="163.97,190.542 188.74,186.587 188.389,196.979 174.14,199.254 173.584,216.255 185.842,214.298 185.466,224.725 
		173.207,226.683 172.65,243.684 186.899,241.41 186.549,251.8 161.779,255.755 	"/>
	<path d="M194.301,198.691c0.316-9.382,5.013-14.797,14.092-16.246c7.623-1.218,11.946,1.364,12.965,7.747
		c0.198,1.243,0.267,2.625,0.208,4.145l-0.305,9.251l-10.521,1.679l0.306-9.249c0.086-2.432-0.904-3.495-2.972-3.186l-0.063,0.011
		c-2.043,0.325-3.107,1.716-3.19,4.17l-0.176,5.795c-0.096,2.65,2.484,5.544,7.736,8.68c5.626,3.312,8.34,7.934,8.142,13.862
		l-0.265,8.077c-0.314,9.402-5.008,14.828-14.086,16.278c-7.628,1.197-11.951-1.396-12.97-7.779
		c-0.198-1.243-0.268-2.624-0.209-4.146l0.305-9.25l10.521-1.681l-0.305,9.251c-0.083,2.454,0.917,3.514,3.002,3.181
		c2.065-0.331,3.139-1.721,3.222-4.176l0.26-7.299c0.08-2.885-2.508-5.896-7.76-9.031c-5.627-3.314-8.342-8.01-8.146-14.089
		L194.301,198.691z"/>
	<path d="M228.517,193.228c0.317-9.381,5.014-14.797,14.093-16.246c7.623-1.218,11.946,1.364,12.965,7.746
		c0.198,1.243,0.268,2.625,0.208,4.146l-0.304,9.25l-10.52,1.68l0.304-9.25c0.086-2.433-0.904-3.496-2.971-3.187l-0.064,0.01
		c-2.042,0.326-3.106,1.716-3.189,4.17l-0.176,5.795c-0.096,2.65,2.483,5.543,7.736,8.679c5.626,3.313,8.34,7.934,8.142,13.862
		l-0.265,8.078c-0.314,9.402-5.008,14.828-14.087,16.277c-7.628,1.197-11.951-1.396-12.97-7.778
		c-0.199-1.242-0.268-2.624-0.21-4.146l0.306-9.249l10.521-1.681l-0.305,9.251c-0.083,2.453,0.917,3.513,3.002,3.181
		c2.064-0.33,3.138-1.722,3.221-4.176l0.261-7.299c0.08-2.886-2.508-5.895-7.76-9.031c-5.627-3.314-8.342-8.009-8.147-14.089
		L228.517,193.228z"/>
	<polygon points="263.806,174.601 288.576,170.646 288.226,181.037 273.977,183.312 273.42,200.314 285.678,198.356 
		285.302,208.784 273.044,210.741 272.486,227.742 286.735,225.468 286.386,235.859 261.615,239.814 	"/>
	<path d="M152.901,88.944c0.101,8.911-5.059,13.86-13.627,15.37c-7.699,1.501-12.077-1.167-13.233-7.239
		c-0.335-0.757-0.459-2.168-0.478-3.798l1.089-18.923c0.226-8.806,4.836-14.292,14.061-15.484c7.374-1.388,11.421,0.848,12.686,6.92
		c0.677,2.166,0.593,4.34,0.018,11.085l-10.201,1.312l0.143-6.522c-0.005-0.435,0.176-3.588-3.077-3.008
		c-2.283-0.083-3.351,1.56-3.435,3.734l-0.759,19.245c0.026,2.282,1.342,3.354,3.186,3.007c2.168-0.459,3.131-1.775,3.104-4.165
		l0.777-8.16l10.091-1.419L152.901,88.944z M49.526,106.205c-0.007,8.912-4.95,13.859-13.733,15.589
		c-7.483,1.389-11.861-1.278-13.015-7.242c-0.336-0.866-0.568-2.167-0.48-4.016l0.873-18.811
		c0.443-8.808,5.054-14.295,14.169-15.485c7.483-1.389,11.531,0.955,12.793,6.81c0.459,2.168,0.268,4.453-0.2,11.088l-9.982,1.418
		l0.033-6.63c-0.112-0.325,0.178-3.48-2.966-2.792c-2.284-0.191-3.462,1.344-3.545,3.627l-0.759,19.245
		c0.133,2.172,1.341,3.245,3.077,3.008c2.384-0.571,3.346-1.994,3.322-4.168l0.667-8.267l10.092-1.31L49.526,106.205z
		 M83.259,100.387c-0.007,8.912-4.728,14.291-13.621,15.914c-7.923,0.96-11.969-1.277-13.341-7.238
		c-0.01-0.869-0.026-2.282,0.821-23.375c0.229-8.48,4.736-13.53,13.952-15.483c7.704-1.066,11.97,1.385,12.8,7.462
		c0.122,1.194,0.572,2.493,0.262,3.909L83.259,100.387z M73.716,83.107c-0.024-2.065-0.908-3.359-2.969-3.009
		c-1.844,0.347-3.02,1.991-3.104,4.165l-0.649,19.352c-0.09,1.631,0.574,2.71,2.965,2.683c1.845-0.238,2.914-1.772,2.998-3.947
		L73.716,83.107z M92.233,67.681l10.522-1.75l7.053,27.633l-0.435-28.686l10.087-1.745l-1.237,44.029l-10.629,1.86l-5.961-27.211
		l-0.875,28.158l-9.87,1.743L92.233,67.681z M186.746,83.45c-0.12,8.587-4.624,13.855-13.735,15.48
		c-9.982,1.418-13.833-2.668-13.17-11.261l0.873-18.811c-0.101-8.911,4.729-14.182,13.62-16.022
		c9.224-1.192,14.139,0.926,13.28,11.369L186.746,83.45z M176.981,65.738c0.198-1.741-0.692-3.47-2.969-3.009
		c-1.841,0.564-2.912,1.989-2.778,4.161l-0.759,19.245c-0.084,2.175,0.692,3.47,2.969,3.009c1.842-0.456,2.913-1.881,2.887-4.163
		L176.981,65.738z M221.455,77.404c-0.334,8.807-4.729,14.182-13.84,15.807c-7.704,1.066-11.858-1.06-13.123-7.132
		c-0.341-1.3-0.358-2.822-0.48-4.016l1.272-31.423L205.699,49l-1.161,31.639c0.024,2.065,1.119,2.813,3.505,2.351
		c1.74,0.089,2.703-1.226,2.784-3.618l1.164-31.422l10.629-1.86L221.455,77.404z M230.646,44.695l13.668-2.221
		c6.832-1.273,10.88,1.072,11.818,7.038c0.341,1.3,0.573,2.602,0.485,4.45l-0.151,5.87c-0.483,5.331-4.787,9.075-9.454,9.671
		l3.888-2.109l8.118,16.209l-11.499,1.87l-4.18-13.972l-3.798,0.478l-0.484,14.786l-10.087,1.745L230.646,44.695z M240.303,52.845
		l-0.49,14.243l1.629-0.127c2.713-0.357,4.119-0.916,4.188-4.395l0.352-7.286c-0.024-2.065-0.689-3.253-2.966-2.792L240.303,52.845z
		 M264.488,48.44c1.226-6.861,4.655-11.138,13.987-12.44c7.59-1.499,11.747,0.844,12.468,6.922
		c0.567,2.058,0.392,5.756,0.118,10.323l-10.2,1.42l0.259-5.872c-0.021-1.847-0.798-3.251-2.967-2.901
		c-2.496,0.354-3.017,2.317-3.11,3.622c-0.398,3.265-0.812,5.008,1.045,5.857c2.402,0.951,8.16,0.777,10.891,2.05
		c2.623,1.274,3.522,3.872,3.794,8.651c0.205,8.475-4.733,13.856-13.952,15.483c-10.305,1.748-13.833-2.668-13.386-11.15
		l0.464-6.961l9.984-1.309l-0.032,6.738c-0.084,2.175,1.124,3.248,3.293,2.897c1.842-0.456,3.136-1.34,3.104-4.165
		c0.178-3.48,0.26-5.763-2.25-6.712c-2.179-0.519-6.952,0.297-9.908-1.626C264.045,57.248,264.078,50.618,264.488,48.44z"/>
</g>
</svg>
