<?xml version="1.0" encoding="utf-8"?>
<!-- Generator: Adobe Illustrator 17.0.0, SVG Export Plug-In . SVG Version: 6.00 Build 0)  -->
<!DOCTYPE svg PUBLIC "-//W3C//DTD SVG 1.1//EN" "http://www.w3.org/Graphics/SVG/1.1/DTD/svg11.dtd">
<svg version="1.1" id="Calque_1" xmlns="http://www.w3.org/2000/svg" xmlns:xlink="http://www.w3.org/1999/xlink" x="0px" y="0px"
	 width="960px" height="560px" viewBox="0 0 960 560" enable-background="new 0 0 960 560" xml:space="preserve">
<path fill="#34D9C3" d="M908.432,113.158h-0.005c-5.246,0-10.974,0.592-17.031,1.758c-31.772,4.559-51.121,18.707-59.881,44.118
	c-8.035-14.944-22.832-23.439-42.029-23.439l0,0c-4.603,0-9.548,0.481-14.705,1.429l-46.406,7.538l-15.518,2.52l-0.006,0.165
	l-12.081,2.114l-36.253,6.343l-11.339,1.984l-9.797,1.542l-35.52,5.594l-15.569,2.452l-0.638,15.748l-0.078,1.932
	c-8.867-9.348-21.365-13.895-38.182-13.895c-4.969,0-10.352,0.383-16.459,1.173l-0.719,0.093l-0.711,0.147
	c-27.63,5.719-46.629,19.827-55.694,40.77c-8.579-14.143-23.149-21.943-41.936-21.943c-4.98,0-10.415,0.533-16.159,1.585
	c-22.086,2.97-39.117,12.304-50.068,26.871l0.458-16.284l-23.14,4.003l-34.403,5.952l-4.994,0.864l-0.047-0.187l-17.405,2.895
	l-35.887,5.969l-15.569,2.589l-0.482,15.776l-0.213,6.96c-8.95-11.529-23.242-17.804-41.649-17.804h-0.005
	c-4.295,0-8.92,0.339-13.745,1.006l-0.679,0.094l-0.671,0.142c-31.764,6.729-48.114,22.567-56.064,39.984
	c-8.715-13.643-23.249-21.145-41.888-21.145c-4.981,0-10.399,0.524-16.109,1.557c-39.013,5.292-62.514,31.083-64.514,70.832
	l-2.98,64.233c-0.353,7.483,0.413,14.125,2.283,19.764c5.469,25.061,24.269,39.966,50.575,39.966c4.98,0,10.321-0.523,15.871-1.553
	l0.103-0.019l0.103-0.02c27.135-5.346,46.044-18.753,55.466-38.762c7.749,11.683,21.354,21.118,45.09,21.118
	c4.171,0,8.706-0.292,13.476-0.87l0.571-0.07l0.568-0.103c22.211-4.053,39.103-14.255,49.643-29.392l-0.546,17.868l23.267-4.107
	l33.662-5.944l4.966-0.877l0.181,0.826l18.138-3.174l36.253-6.344l15.452-2.704l0.441-15.681l0.174-6.185
	c9.122,10.633,22.646,16.542,39.135,16.542c5.236,0,10.884-0.578,16.787-1.718c26.836-4.773,45.873-18.096,55.348-37.953
	c1.356,2.104,2.88,4.071,4.57,5.898c9.189,9.925,22.441,14.957,39.388,14.957c4.636,0,9.669-0.382,14.961-1.133l0.338-0.048
	l0.335-0.059c28.715-5.123,48.295-19.713,57.21-42.026c8.696,15.424,24.353,23.717,45.489,23.717c4.495,0,9.4-0.364,14.58-1.08
	l0.372-0.051l0.369-0.066c22.447-4.005,39.383-14.133,50.029-29.497l-0.671,17.532l23.381-4.045l34.405-5.952l11.897-2.058
	l0.117,0.392l16.655-2.707l39.219-6.377l25.801-4.196l-2.178-4.347c5.963,2.054,12.678,3.087,20.111,3.087
	c5.249,0,11.004-0.524,17.105-1.559c41.386-7.302,64.514-33.614,63.577-72.212l-0.006-0.313l-0.019-0.313
	c-0.349-6.135-0.901-15.838-4.717-25.138l4.756-0.662l0.943-15.708c1.063-17.722,1.596-30.31-0.671-39.953
	C952.453,128.35,934.756,113.158,908.432,113.158L908.432,113.158z"/>
<g>
	<path d="M466.298,314.442c0.346,30.391-17.254,47.271-46.477,52.422c-26.259,5.118-41.189-3.979-45.132-24.691
		c-1.141-2.582-1.567-7.395-1.63-12.955l3.713-64.538c0.77-30.033,16.495-48.745,47.956-52.81
		c25.151-4.734,38.953,2.892,43.266,23.601c2.308,7.387,2.022,14.804,0.06,37.807l-34.792,4.474l0.488-22.245
		c-0.017-1.482,0.602-12.239-10.495-10.259c-7.787-0.282-11.43,5.319-11.716,12.736l-2.589,65.637
		c0.089,7.783,4.578,11.438,10.866,10.255c7.395-1.567,10.68-6.052,10.587-14.206l2.648-27.83l34.417-4.84L466.298,314.442z
		 M113.725,373.315c-0.025,30.395-16.883,47.267-46.84,53.168c-25.522,4.739-40.452-4.358-44.39-24.7
		c-1.146-2.952-1.937-7.391-1.639-13.696l2.976-64.159c1.511-30.041,17.237-48.753,48.326-52.814
		c25.522-4.739,39.328,3.259,43.632,23.226c1.567,7.395,0.914,15.187-0.681,37.816l-34.046,4.836l0.113-22.612
		c-0.383-1.108,0.606-11.868-10.116-9.522c-7.791-0.653-11.809,4.582-12.091,12.37l-2.589,65.637
		c0.455,7.408,4.574,11.068,10.495,10.259c8.132-1.946,11.413-6.802,11.329-14.214l2.274-28.196l34.421-4.469L113.725,373.315z
		 M228.776,353.472c-0.025,30.395-16.125,48.741-46.456,54.275c-27.021,3.273-40.823-4.354-45.502-24.687
		c-0.034-2.965-0.089-7.783,2.799-79.725c0.783-28.921,16.154-46.146,47.585-52.806c26.276-3.635,40.827,4.724,43.658,25.449
		c0.417,4.073,1.95,8.503,0.893,13.334L228.776,353.472z M196.227,294.536c-0.08-7.042-3.096-11.455-10.125-10.263
		c-6.288,1.184-10.301,6.789-10.588,14.206l-2.214,66.004c-0.307,5.563,1.959,9.244,10.112,9.151
		c6.292-0.813,9.939-6.044,10.225-13.46L196.227,294.536z M259.383,241.924l35.887-5.969l24.054,94.246l-1.485-97.839l34.404-5.952
		l-4.221,150.167l-36.253,6.343l-20.331-92.805l-2.984,96.036l-33.663,5.943L259.383,241.924z M581.732,295.706
		c-0.408,29.287-15.771,47.254-46.844,52.797c-34.046,4.836-47.178-9.1-44.917-38.408l2.976-64.159
		c-0.346-30.391,16.129-48.37,46.452-54.646c31.46-4.065,48.222,3.158,45.292,38.775L581.732,295.706z M548.426,235.296
		c0.674-5.938-2.359-11.834-10.125-10.263c-6.279,1.925-9.931,6.785-9.476,14.193l-2.589,65.637
		c-0.286,7.417,2.359,11.834,10.125,10.263c6.284-1.554,9.935-6.414,9.846-14.197L548.426,235.296z M700.11,275.083
		c-1.141,30.037-16.129,48.37-47.202,53.913c-26.276,3.635-40.444-3.617-44.757-24.325c-1.162-4.435-1.222-9.623-1.639-13.696
		l4.34-107.172l35.52-5.594l-3.961,107.909c0.08,7.042,3.816,9.594,11.953,8.019c5.934,0.303,9.219-4.182,9.497-12.34l3.969-107.167
		l36.253-6.343L700.11,275.083z M731.458,163.527l46.618-7.574c23.302-4.343,37.108,3.655,40.305,24.005
		c1.162,4.435,1.954,8.874,1.655,15.178l-0.513,20.022c-1.646,18.181-16.327,30.951-32.243,32.986l13.262-7.194l27.688,55.284
		l-39.218,6.377l-14.257-47.653l-12.955,1.63l-1.65,50.429l-34.404,5.952L731.458,163.527z M764.393,191.322l-1.671,48.576
		l5.555-0.434c9.253-1.217,14.05-3.125,14.285-14.989l1.2-24.848c-0.08-7.042-2.35-11.093-10.116-9.522L764.393,191.322z
		 M846.88,176.298c4.182-23.399,15.877-37.989,47.703-42.428c25.888-5.113,40.065,2.88,42.525,23.609
		c1.933,7.021,1.336,19.63,0.401,35.209l-34.787,4.844l0.884-20.026c-0.072-6.3-2.721-11.089-10.121-9.893
		c-8.511,1.209-10.289,7.901-10.609,12.353c-1.356,11.135-2.771,17.082,3.563,19.975c8.192,3.243,27.83,2.648,37.146,6.99
		c8.945,4.346,12.012,13.207,12.939,29.506c0.7,28.904-16.142,47.258-47.585,52.806c-35.145,5.96-47.178-9.1-45.654-38.029
		l1.583-23.741l34.05-4.465l-0.109,22.982c-0.286,7.417,3.833,11.076,11.232,9.88c6.284-1.554,10.697-4.57,10.588-14.206
		c0.606-11.868,0.888-19.655-7.674-22.894c-7.433-1.769-23.711,1.011-33.794-5.546C845.369,206.339,845.482,183.727,846.88,176.298z
		"/>
</g>
</svg>
