<?xml version="1.0" encoding="utf-8"?>
<!-- Generator: Adobe Illustrator 17.0.0, SVG Export Plug-In . SVG Version: 6.00 Build 0)  -->
<!DOCTYPE svg PUBLIC "-//W3C//DTD SVG 1.1//EN" "http://www.w3.org/Graphics/SVG/1.1/DTD/svg11.dtd">
<svg version="1.1" id="Calque_1" xmlns="http://www.w3.org/2000/svg" xmlns:xlink="http://www.w3.org/1999/xlink" x="0px" y="0px"
	 width="799.95px" height="462.792px" viewBox="0 0 799.95 462.792" enable-background="new 0 0 799.95 462.792"
	 xml:space="preserve">
<g>
	<polygon fill="#34D9C3" points="385,391.981 400.565,401.104 417,391.981 417,240.369 417,222.992 417,71.38 400.565,62.257 
		385,71.38 385,222.992 385,240.369 	"/>
	<path fill="#34D9C3" d="M400,19.249L43.697,227.771l356.184,215.472l357.152-216.775L400,19.684V19.249z M193,184.763
		l-11.549-7.385L156,192.148v28.646h10.993L178,205.615v41.27l-11.434-13.901L156,233.418v32.147l25.451,14.77L193,271.647v30.409
		l-57.516-34.754l8.516-7.385v-61.253l-10.254-6.951L193,156.526V184.763z M346.408,97.445l-20.852,254.57l13.901,34.319
		l-36.926-23.024l6.951-16.074L285.59,126.117l-8.428-14.814L271,132.633v191.579v24.327l-10.516-6.082l-37.84-141.621
		l-4.797-19.983L220,208.656v88.622l12.16,27.368l-31.28-18.68l8.253-12.164l-0.435-132.932l-8.689-8.254l20.852-10.86
		l34.753,139.883l4.668,26.5L258,279.466V137.846l-16.832-10.426l34.422-18.598l-0.019-0.082l28.685-16.073l-7.813,27.803
		l19.552,178.546l1.305,23.459l0.87-23.459l13.033-192.882l-9.991-19.549l39.532-23.893L346.408,97.445z M609,280.77l45.296-82.54
		l-29.336-16.074L613,201.271v-42.139l54,32.581v8.688l-40.613,74.72l36.753-21.721L676,232.549v27.803l-67,39.098V280.77z
		 M541.711,117.863L598,151.747v35.188l-14.15-25.196l-23.149-13.521l-2.858,78.576h12.725L583,207.787v50.827l-12.431-17.82
		h-13.191l-2.448,71.032l26.934-13.356l14.336-31.223l-0.434,39.994l-64.729,37.808l9.992-27.362l6.206-176.371L541.711,117.863z
		 M479.341,86.584l-9.992,19.549l14.336,131.195l1.738,26.5l3.041-26.5l20.852-113.384l-9.557-29.106l36.057,20.418l-12.598,15.639
		l-32.582,155.522l-1.303,60.819l8.689,16.074l-36.926,23.024l16.074-36.057l0.434-61.253l-22.155-186.8l-15.639-39.532
		L479.341,86.584z M431,60.519v162.473v17.377v162.473l-31.434,18.246L369,402.842V240.369v-17.377V60.519l30.566-18.246L431,60.519
		z"/>
	<polygon points="676,232.549 663.034,253.401 626.571,275.122 667,200.402 667,191.714 613,159.132 613,201.271 624.8,182.157 
		654.477,198.23 609,280.77 609,299.45 676,260.352 	"/>
	<polygon points="331.203,106.133 318.171,299.015 317.302,322.474 315.999,299.015 296.45,120.469 304.27,92.666 275.598,108.74 
		275.645,108.822 278.204,107.437 277.071,111.302 285.59,126.117 309.483,347.236 302.532,363.309 339.458,386.334 
		325.556,352.015 346.408,97.445 360.744,62.691 321.212,86.584 	"/>
	<polygon points="570.569,240.794 583,258.614 583,207.787 570.569,226.794 557.843,226.794 557.378,240.794 	"/>
	<polygon points="144,198.665 144,259.918 135.484,267.303 193,302.056 193,271.647 181.451,280.335 156,265.565 156,233.418 
		166.566,232.984 178,246.885 178,205.615 166.993,220.794 156,220.794 156,192.148 181.451,177.378 193,184.763 193,156.526 
		133.746,191.714 	"/>
	<polygon points="275.645,108.822 277.071,111.302 278.204,107.437 	"/>
	<polygon points="553,240.794 557.378,240.794 557.843,226.794 553,226.794 	"/>
	<polygon points="241.168,127.42 258,137.846 258,279.466 260.283,308.138 255.559,281.639 220.834,141.756 199.995,152.616 
		208.69,160.87 209.128,293.802 200.876,305.966 232.159,324.646 220,297.278 220,208.656 217.824,180.853 222.601,200.837 
		260.484,342.457 271,348.539 271,324.212 271,132.633 277.162,111.302 275.635,108.822 	"/>
	<path d="M22.766,226.902l377.076,235.89l377.945-235.455L399.842,0.135L22.766,226.902z M399.842,443.243L43.697,227.771
		L400,19.249v0.434l357.013,206.784L399.842,443.243z"/>
	<polygon points="531.036,345.064 595.765,307.269 596.199,267.303 581.863,298.581 554.93,311.826 557.378,240.794 553,240.794 
		553,226.794 557.843,226.794 560.577,148.218 583.85,161.495 598,186.935 598,151.747 541.711,117.863 547.234,141.321 
		541.09,317.695 	"/>
	<rect x="417" y="222.794" width="14" height="17"/>
	<polygon points="369,60.519 369,222.794 385,222.794 385,71.38 400.565,62.257 417,71.38 417,222.794 431,222.794 431,60.519 
		399.566,42.274 	"/>
	<polygon points="417,391.981 400.565,401.104 385,391.981 385,239.794 369,239.794 369,402.842 399.566,421.087 431,402.842 
		431,239.794 417,239.794 	"/>
	<polygon points="477.603,289.024 477.168,350.277 461.095,386.334 498.021,363.309 489.332,347.236 490.635,286.417 
		523.217,130.895 535.815,115.256 499.758,94.838 509.315,123.944 488.463,237.328 485.422,263.827 483.685,237.328 
		469.349,106.133 479.341,86.584 439.808,62.691 455.448,102.223 	"/>
	<rect x="369" y="222.794" width="16" height="17"/>
</g>
</svg>
