<?xml version="1.0" encoding="utf-8"?>
<!-- Generator: Adobe Illustrator 17.0.0, SVG Export Plug-In . SVG Version: 6.00 Build 0)  -->
<!DOCTYPE svg PUBLIC "-//W3C//DTD SVG 1.1//EN" "http://www.w3.org/Graphics/SVG/1.1/DTD/svg11.dtd">
<svg version="1.1" id="Calque_1" xmlns="http://www.w3.org/2000/svg" xmlns:xlink="http://www.w3.org/1999/xlink" x="0px" y="0px"
	 width="960px" height="560px" viewBox="0 0 960 560" enable-background="new 0 0 960 560" xml:space="preserve">
<path d="M243.596,452.512l63.888-408.916c136.307,21.295,272.615,42.592,408.92,63.889l-63.888,408.92
	C516.208,495.107,379.901,473.81,243.596,452.512 M381.55,316.26c15.709,1.819,31.012,4.086,46.395,5.178
	c8.699,0.617,16.951-2.137,23.225-8.974c6.089-6.636,7.954-14.743,7.979-23.381c0.023-6.975-2.911-12.905-8.035-17.485
	c-2.987-2.674-6.623-4.628-10.02-6.944c0.425-0.114,1.036-0.287,1.646-0.446c4.527-1.174,8.295-3.454,11.445-7.011
	c4.298-4.851,5.191-10.781,5.934-16.799c0.812-6.6-1.104-12.413-5.537-17.343c-5.929-6.594-13.814-9.596-22.193-11.171
	c-10.157-1.911-20.419-3.271-30.637-4.852c-0.985-0.151-1.99-0.182-3.094-0.279C392.987,243.049,387.354,279.111,381.55,316.26
	 M541.655,340.541c0.244-1.548,0.417-2.666,0.593-3.783c2.445-15.667,5.005-31.316,7.282-47.006
	c0.768-5.285,1.107-10.666,1.135-16.008c0.031-5.563-1.501-10.93-5.079-15.27c-9.389-11.389-27.986-13.257-40.031-6.785
	c-2.14,1.149-4.071,2.685-6.323,4.197c-0.13-2.762-0.074-5.263-0.443-7.702c-0.143-0.92-1.15-2.28-1.959-2.439
	c-4.949-0.968-9.954-1.651-14.643-2.387c0.491,29.312-7.593,57.43-10.488,86.212c5.542,0.868,10.829,1.693,16.521,2.581
	c0.29-1.845,0.55-3.518,0.812-5.187c2.035-13.057,4.033-26.119,6.14-39.161c0.527-3.262,1.125-6.568,2.203-9.677
	c2.873-8.288,8.081-14.25,17.335-15.282c10.168-1.132,18.015,4.903,18.496,15.279c0.132,2.824-0.094,5.706-0.519,8.506
	c-2.392,15.793-4.893,31.564-7.356,47.345c-0.203,1.303-0.41,2.605-0.613,3.918C530.59,338.811,535.897,339.639,541.655,340.541
	 M586.842,298.153c13.801,2.154,27.215,4.252,40.614,6.344c0.814-5.227,1.552-9.944,2.341-14.998
	c-13.77-2.149-27.337-4.27-41.072-6.414c1.621-10.375,3.188-20.407,4.804-30.75c15.04,2.347,29.864,4.663,44.876,7.009
	c0.799-5.128,1.552-9.946,2.298-14.708c-20.722-3.237-41.205-6.439-61.802-9.656c-5.674,36.33-11.31,72.388-16.977,108.662
	c5.799,0.907,11.399,1.78,17.386,2.715C581.814,330.319,584.29,314.489,586.842,298.153 M340.114,253.067
	c1.076-0.584,2.002-0.977,2.812-1.539c2.921-2.036,6.096-3.421,6.842-7.871c0.949-5.68,2.845-11.255,4.824-16.697
	c3.489-9.58,7.354-19.025,11.191-28.86c-2.036-0.321-4.371-0.71-6.712-1.046c-11.982-1.72-9.743-3.264-14.284,7.499
	c-4.315,10.23-7.529,20.92-11.43,31.334c-1.936,5.174-0.735,12.066-7.656,14.674c-0.145,0.057-0.188,0.391-0.634,1.404
	c0.865,0.94,2.168,2.111,3.142,3.509c0.595,0.852,0.992,2.072,0.944,3.102c-0.232,5.007-1.102,10.023-0.896,15.002
	c0.476,11.563,1.399,23.114,2.298,34.655c0.069,0.868,1.272,2.2,2.13,2.366c5.048,0.982,10.152,1.681,15.445,2.509
	c-0.16-1.758-0.224-3.241-0.438-4.7c-1.952-13.234-2.382-26.514-1.428-39.856c0.191-2.687,0.568-5.689-0.381-8.042
	C344.821,257.884,342.348,255.831,340.114,253.067"/>
<path fill="#FFFFFF" d="M381.547,316.261c5.807-37.151,11.442-73.215,17.111-109.511c1.107,0.097,2.109,0.127,3.091,0.281
	c10.224,1.581,20.483,2.941,30.643,4.851c8.379,1.578,16.259,4.579,22.19,11.173c4.435,4.927,6.351,10.74,5.537,17.343
	c-0.741,6.015-1.636,11.949-5.936,16.799c-3.15,3.555-6.913,5.837-11.442,7.011c-0.613,0.159-1.221,0.331-1.646,0.445
	c3.397,2.314,7.03,4.268,10.023,6.944c5.12,4.581,8.053,10.511,8.033,17.483c-0.023,8.639-1.891,16.746-7.979,23.385
	c-6.272,6.837-14.526,9.591-23.225,8.974C412.561,320.346,397.262,318.08,381.547,316.261 M400.811,304.285
	c6.862,0.739,13.417,1.537,19.994,2.139c11.361,1.037,15.31-1.422,19.455-12.016c2.819-7.2-0.476-16.026-6.641-19.292
	c-8.43-4.46-17.73-5.579-27.172-6.899C404.574,280.186,402.758,291.832,400.811,304.285 M408.612,254.264
	c8.241,1.38,16.16,3.132,24.276,0.972c5.913-1.571,8.302-6.201,9.341-11.516c1.043-5.323-0.209-10.216-4.982-13.562
	c-7.13-5-15.531-5.226-23.847-6.546C411.795,233.892,410.243,243.829,408.612,254.264"/>
<path fill="#FFFFFF" d="M541.655,340.54c-5.758-0.899-11.066-1.73-16.938-2.647c0.203-1.313,0.41-2.616,0.613-3.918
	c2.463-15.779,4.964-31.552,7.356-47.342c0.425-2.804,0.651-5.685,0.519-8.51c-0.481-10.372-8.328-16.412-18.496-15.278
	c-9.254,1.03-14.462,6.992-17.338,15.28c-1.076,3.108-1.674,6.415-2.201,9.679c-2.107,13.044-4.104,26.104-6.14,39.159
	c-0.262,1.673-0.522,3.342-0.812,5.189c-5.692-0.891-10.979-1.716-16.521-2.581c2.895-28.781,10.979-56.902,10.488-86.212
	c4.689,0.733,9.694,1.416,14.643,2.387c0.809,0.16,1.817,1.516,1.959,2.44c0.369,2.435,0.313,4.936,0.443,7.698
	c2.252-1.508,4.183-3.046,6.323-4.194c12.045-6.474,30.642-4.607,40.031,6.785c3.578,4.338,5.109,9.706,5.079,15.27
	c-0.028,5.339-0.366,10.725-1.135,16.006c-2.277,15.69-4.837,31.341-7.282,47.006C542.073,337.875,541.9,338.992,541.655,340.54"/>
<path fill="#FFFFFF" d="M586.842,298.151c-2.555,16.338-5.025,32.168-7.534,48.205c-5.987-0.935-11.582-1.809-17.384-2.715
	c5.669-36.275,11.3-72.332,16.979-108.662c20.595,3.22,41.077,6.419,61.797,9.656c-0.743,4.762-1.496,9.58-2.298,14.708
	c-15.007-2.346-29.836-4.661-44.874-7.01c-1.613,10.344-3.183,20.376-4.804,30.751c13.737,2.144,27.304,4.266,41.075,6.414
	c-0.794,5.054-1.529,9.771-2.346,14.998C614.06,302.404,600.64,300.309,586.842,298.151"/>
<path fill="#FFFFFF" d="M340.114,253.067c2.234,2.764,4.707,4.818,5.768,7.444c0.949,2.352,0.572,5.355,0.381,8.042
	c-0.954,13.342-0.524,26.622,1.428,39.856c0.214,1.458,0.277,2.941,0.438,4.7c-5.293-0.828-10.397-1.527-15.445-2.509
	c-0.857-0.167-2.061-1.499-2.13-2.366c-0.898-11.542-1.822-23.092-2.298-34.655c-0.206-4.979,0.664-9.994,0.896-15.002
	c0.048-1.029-0.349-2.249-0.944-3.102c-0.975-1.398-2.277-2.568-3.142-3.509c0.445-1.014,0.489-1.347,0.634-1.404
	c6.921-2.608,5.72-9.5,7.656-14.674c3.901-10.414,7.114-21.105,11.43-31.334c4.542-10.763,2.302-9.219,14.284-7.499
	c2.341,0.336,4.677,0.725,6.712,1.046c-3.837,9.835-7.702,19.28-11.191,28.86c-1.979,5.441-3.875,11.016-4.824,16.697
	c-0.746,4.45-3.921,5.836-6.842,7.871C342.116,252.09,341.19,252.483,340.114,253.067"/>
<path d="M400.811,304.283c1.947-12.45,3.766-24.096,5.636-36.067c9.442,1.323,18.745,2.44,27.172,6.901
	c6.165,3.263,9.46,12.09,6.641,19.292c-4.147,10.591-8.091,13.05-19.455,12.013C414.23,305.823,407.671,305.024,400.811,304.283"/>
<path d="M408.612,254.264c1.631-10.434,3.183-20.372,4.789-30.651c8.315,1.319,16.717,1.546,23.847,6.546
	c4.773,3.346,6.025,8.239,4.982,13.562c-1.038,5.315-3.428,9.945-9.341,11.516C424.772,257.396,416.854,255.644,408.612,254.264"/>
</svg>
