<?xml version="1.0" encoding="utf-8"?>
<!-- Generator: Adobe Illustrator 17.0.0, SVG Export Plug-In . SVG Version: 6.00 Build 0)  -->
<!DOCTYPE svg PUBLIC "-//W3C//DTD SVG 1.1//EN" "http://www.w3.org/Graphics/SVG/1.1/DTD/svg11.dtd">
<svg version="1.1" id="Calque_1" xmlns="http://www.w3.org/2000/svg" xmlns:xlink="http://www.w3.org/1999/xlink" x="0px" y="0px"
	 width="605.832px" height="324.032px" viewBox="0 0 605.832 324.032" enable-background="new 0 0 605.832 324.032"
	 xml:space="preserve">
<polygon points="7.413,154.398 38.313,265.663 100.33,306.677 598.418,167.488 569.385,69.07 499.417,17.764 "/>
<path fill="#FFFFFF" d="M262.835,135.773l1.371,4.641l0.96,4.882l1.594,4.712l1.114,4.848l1.503,4.626l-4.402,1.041l-4.255,1.986
	l-4.624,0.699l-4.344,1.671l-4.627,0.696l-4.395,1.52l-4.117,1.597l0.745,3.625l0.997,3.952l4.525-1.341l4.454-1.291l4.492-1.159
	l4.523-1.035l4.286-1.91l4.536-1.016l4.476-0.859l1.447,4.452l1.628,4.504l1.259,4.603l0.955,4.691l1.386,4.575l1.023,4.695
	l-4.422,1.143l-4.371,1.255l-4.384,1.19l-4.275,1.602l-5.296,1.441l-3.912,1.136l-3.615,0.726l-4.686,1.614l-3.665,1.334
	l-5.096,1.12l-4.416,1.092l-4.438,1.026l-4.394,1.603l-3.615,1.307l-1.866-5.277l-1.619-4.413l-1.203-4.526l-0.478-4.72
	l-2.079-4.292l-0.944-4.595l-0.642-4.678l-1.292-4.504l-1.467-4.456l-1.16-4.534l-1.365-4.483l-0.904-4.604l-1.936-4.33
	l-1.039-4.573l-1.311-4.499l-1.14-4.545l-1.275-4.51l-1.319-4.496l-0.37-4.755l-2.225-4.261l-0.228-4.419l3.929-1.261l4.289-1.381
	l4.426-0.866l4.362-1.113l4.217-1.631l4.474-0.707l4.17-1.819l4.329-1.24l4.304-1.33l4.289-1.388l4.414-0.928l4.504-0.613l4.208-1.7
	l4.18-0.642l1.875,4.132l1.102,4.649l1.149,4.633l0.643,4.776l1.812,4.458l1.653,4.84l-4.931,0.826l-4.529,1.021l-4.346,1.689
	l-4.565,0.884l-4.458,1.287l-4.352,1.686l-4.761,0.851l1.355,3.964l1,3.812l4.363-1.494l4.625-0.671l4.387-1.539l4.547-0.95
	l4.541-0.985l4.377-1.587L262.835,135.773z"/>
<g>
	<path fill="#FFFFFF" d="M69.142,150.286l-4.66,0.926l-4.609,1.118l-4.363,2.021l-4.523,1.441l-4.711,0.758l-4.526,1.434
		l-4.635,1.029l-4.473,1.634l-4.73,0.712l-4.479,1.558l0.794,4.653l1.624,4.44l0.946,4.628l1.272,4.538l1.656,4.434l1.313,4.527
		l0.972,4.622l1.885,4.372l0.362,4.79l1.159,4.566l1.285,4.536l1.443,4.489l1.102,4.586l1.542,4.467l1.237,4.551l1.07,4.597
		l1.565,4.462l0.8,4.67l1.823,4.392l1.281,4.545l0.917,4.942l4.784-1.353l4.531-1.183l4.347-0.989l4.472-1.394l4.624-0.854
		l4.54-1.173l4.775-1.969l-1.649-4.773l-1.082-4.717l-1.063-4.727l-1.705-4.553l-1.649-4.949l4.812-1.169l4.523-0.768l4.282-1.642
		l4.473-1.715l4.343-1.959l3.936-2.668l3.654-3.126l2.623-4.072l1.641-4.567l0.662-4.796l0.41-4.845l-1.373-4.713l-0.425-4.801
		l-0.671-4.814l-2.03-4.165l-1.559-4.277l-1.715-4.219l-1.553-4.372l-3.325-3.278l-2.312-4.054l-4.148-2.161l-3.796-2.373
		l-4.269-1.335l-4.431-0.59l-4.566-0.4L69.142,150.286z M75.276,191.887l0.181,4.17l-1.242,3.761l-2.833,2.998l-3.156,0.828
		l-0.922-5.07l-1.475-4.675l-1.071-4.79l-1.676-4.627l-0.761-4.7l3.091-1.055l3.692,0.48l2.874,2.295l1.102,3.725l0.951,3.369
		L75.276,191.887z"/>
</g>
<g>
	<path fill="#FFFFFF" d="M200.183,205.059l-1.027-5.166l-2.034-4.888l-1.99-4.387l-2.3-4.461l-4.545-2.139l-4.258-2.549
		l-4.386-0.694l3.666-1.941l2.938-3.647l1.287-4.435l0.577-4.474l0.302-4.502l-0.15-4.551l-0.601-4.55l-1.832-4.219l-1.131-4.48
		l-2.775-3.703l-2.325-3.917l-3.162-3.267l-3.339-3.122l-4.212-1.779l-4.602-1.275l-4.767,0.18l-4.714,0.483l-4.769,0.418
		l-4.636,1.133l-4.638,1.16l-4.287,1.363l-4.349,1.141l-4.156,1.819l-4.526,0.524l-4.334,1.191l-4.19,1.71l-4.411,0.946
		l-4.599,1.273l1.757,4.664l0.575,4.707l1.906,4.356l0.437,4.744l2.148,4.292l0.244,4.795l2.077,4.311l1.034,4.588l0.602,4.702
		l1.292,4.515l1.68,4.416l1.177,4.547l1.427,4.483l0.753,4.663l1.053,4.584l1.739,4.402l0.735,4.67l1.594,4.439l0.578,4.713
		l1.245,4.539l1.381,4.745l4.771-1.195l4.508-1.267l4.294-1.184l4.605-0.911l4.501-1.301l4.478-1.399l5.082-1.488l-1.796-5.044
		l-0.871-4.932l-1.302-4.811l-2.193-4.57l-0.919-4.924l-1.56-4.934l4.49-1.24l4.238,0.587l2.165,3.656l1.706,3.952l1.462,4.643
		l1.51,4.633l2.356,4.297l3.888,3.147l4.958,0.062l4.77-0.816l4.736-1.075l4.844-0.771l4.7-1.311l4.306-1.654l-1.68-3.456
		l-1.74-3.813L200.183,205.059z M156.629,169.496l0.149,4.215l-0.58,4.256l-3.536,2.757l-2.593-0.08l-2.104-4.27l-0.594-4.917
		l-0.994-4.811l-1.397-4.704l-1.391-4.489l2.982-1.26l4.101-0.22l2.873,2.979l1.182,3.804l0.633,3.462L156.629,169.496z"/>
</g>
<polygon fill="#FFFFFF" points="358.658,145.59 359.167,150.3 359.569,155 358.761,159.659 357.104,164.072 354.428,167.924 
	351.692,171.754 348.158,174.884 344.087,177.262 339.829,179.219 335.41,180.731 331.13,182.727 326.645,184.183 322.105,185.425 
	317.429,186.191 312.881,187.436 308.025,188.602 313.511,186.925 308.487,186.647 303.624,185.867 299.237,183.701 295.486,180.68 
	291.825,177.332 289.379,172.97 288.271,168.105 287.029,163.315 286.281,158.666 290.87,157.368 295.721,156.94 300.394,155.658 
	305.228,155.141 309.895,153.794 314.537,153.119 316.976,158.075 322.416,159.464 325.585,156.437 326.113,151.906 322.933,147.88 
	318.01,145.848 312.56,146.197 308.117,146.615 303.645,146.855 299.2,146.351 294.749,145.82 290.483,144.439 286.557,142.307 
	282.736,139.963 279.937,136.464 276.907,133.126 274.889,129.082 273.954,124.656 272.835,120.114 272.552,115.451 
	272.333,110.704 273.402,106.044 275.745,101.886 278.421,97.999 281.961,94.607 285.511,91.202 289.775,88.744 294.26,86.759 
	298.671,84.558 303.267,82.693 308.01,82.005 312.77,81.999 317.513,81.628 322.279,82.014 326.899,83.273 331.323,85.1 
	335.156,87.943 338.564,91.186 341.228,95.039 343.063,99.36 343.493,104.096 344.74,108.805 344.151,113.631 339.244,114.092 
	334.579,115.741 329.779,116.685 324.95,117.502 320.01,117.764 316.129,117.873 315.389,115.233 312.229,111.573 308.231,110.326 
	305.615,112.851 305.479,116.639 307.132,120.506 311.15,122.084 315.421,121.788 320.026,122.03 324.592,121.877 329.154,121.981 
	333.652,122.707 338.187,123.167 342.417,124.81 346.305,127.043 349.949,129.685 353.176,132.955 355.643,136.876 356.809,141.362 
	"/>
<g>
	<polygon fill="#FFFFFF" points="437.163,123.983 438.238,128.532 438.929,133.242 437.224,137.721 436.497,142.436 
		433.948,146.451 430.378,149.558 427.157,152.968 422.975,155.114 419.014,157.614 414.608,159.212 410.333,161.305 
		405.746,162.377 401.072,163.14 396.561,164.506 391.997,165.693 387.139,166.833 392.268,164.549 387.561,165.288 
		382.808,163.814 378.041,162.462 374.09,159.417 371.288,155.336 368.631,151.138 366.951,146.45 366.244,141.521 365.138,136.727 
		370.113,136.26 374.798,135.038 379.552,134.146 384.152,132.486 389.018,132.102 393.806,130.685 396.096,136.289 401.583,137.91 
		404.339,134.519 404.681,130.282 402.166,125.91 397.106,124.953 391.752,125.044 387.27,125.761 382.747,125.211 378.227,125.189 
		373.828,124.158 369.488,122.921 365.298,121.149 362.119,117.869 358.894,114.816 356.325,111.172 353.795,107.391 
		352.871,102.935 352.111,98.316 351.008,93.677 352.13,89.049 352.896,84.41 355.016,80.205 357.143,75.924 360.671,72.407 
		364.854,69.76 369.084,67.332 373.212,64.641 377.985,63.379 382.527,61.476 387.174,60.611 391.857,59.765 396.59,60.285 
		401.271,60.847 405.949,61.673 410.412,63.364 414.437,65.937 417.881,69.227 420.868,72.978 422.188,77.583 423.002,82.276 
		423.048,87.054 423.378,92.107 418.415,92.646 413.642,93.729 408.781,94.365 403.973,95.289 399.288,96.867 394.439,97.145 
		393.507,93.732 391.669,89.444 387.303,88.428 384.079,90.819 383.81,95.08 386.58,98.319 390.282,100.161 394.54,100.183 
		399.124,100.084 403.696,99.856 408.286,99.728 412.856,100.22 417.346,101.187 421.618,102.816 425.89,104.557 428.968,107.997 
		431.69,111.574 434.045,115.435 436.237,119.476 	"/>
</g>
<path fill="#FFFFFF" d="M340.807,186.165l4.801-1.322c-0.943,0.033-1.891,0.16-2.774,0.403
	C342.006,185.475,341.301,185.786,340.807,186.165z"/>
<g>
	<g>
		<g>
			<polygon fill="#FFFFFF" points="309.472,213.55 305.078,214.768 300.707,215.923 296.409,217.333 292.077,218.637 
				287.685,219.709 283.381,221.114 278.882,221.815 274.511,222.983 270.229,224.474 265.93,225.896 261.492,226.819 
				257.151,228.107 252.778,229.288 248.628,230.641 250.738,231.706 255.013,230.531 259.451,229.626 263.784,228.351 
				268.11,227.033 272.56,226.176 276.846,224.717 281.202,223.504 285.518,222.141 289.935,221.15 294.278,219.895 
				298.707,218.948 303.042,217.643 307.342,216.202 311.669,215.123 			"/>
		</g>
		<g>
			<polygon fill="#FFFFFF" points="326.499,225.189 322.237,226.401 317.765,227.135 313.473,228.512 309.096,229.597 
				304.853,231.155 300.535,232.452 296.17,233.586 291.704,234.352 287.392,235.68 283.044,236.867 278.734,238.201 
				274.413,239.504 269.995,240.471 265.586,241.715 268.876,244.098 273.171,242.377 277.667,241.743 281.932,240.278 
				286.232,238.925 290.575,237.738 294.969,236.73 299.227,235.217 303.703,234.499 307.93,232.872 312.369,232.024 
				316.649,230.595 320.999,229.405 325.37,228.279 329.975,227.204 			"/>
		</g>
		<g>
			<polygon fill="#FFFFFF" points="286.707,198.39 282.281,199.552 277.885,200.69 273.622,202.3 269.224,203.438 264.843,204.625 
				260.479,205.884 256.069,206.982 251.719,208.299 247.35,209.548 242.962,210.724 238.535,211.759 234.118,212.846 
				229.734,214.062 225.269,215.231 226.502,216.351 230.876,215 235.306,213.991 239.603,212.505 243.924,211.092 248.433,210.374 
				252.696,208.75 257.146,207.799 261.471,206.397 265.815,205.062 270.199,203.874 274.586,202.699 279.037,201.739 
				283.378,200.367 287.643,199.042 			"/>
		</g>
		<g>
			<polygon fill="#FFFFFF" points="281.097,194.719 276.683,195.879 272.366,197.322 268.003,198.59 263.624,199.814 
				259.25,201.045 254.892,202.345 250.384,203.104 245.971,204.212 241.652,205.66 237.302,206.992 232.859,207.985 
				228.533,209.423 224.151,210.666 219.847,212.019 220.397,212.015 224.786,210.917 229.169,209.717 233.543,208.493 
				237.972,207.451 242.337,206.189 246.749,205.089 251.071,203.654 255.559,202.823 259.867,201.337 264.292,200.279 
				268.587,198.748 272.993,197.607 277.498,196.811 281.92,195.54 			"/>
		</g>
		<g>
			<polygon fill="#FFFFFF" points="266.785,214.717 262.495,215.827 258.248,217.076 253.974,218.222 249.708,219.398 
				245.461,220.659 241.207,221.904 236.797,222.845 238.603,223.931 242.845,222.813 247.129,221.711 251.356,220.405 
				255.635,219.285 259.903,218.114 264.161,216.892 268.376,215.75 			"/>
		</g>
		<g>
			<polygon fill="#FFFFFF" points="320.826,221.334 316.556,222.665 312.196,223.823 307.753,224.668 303.399,225.856 
				299.135,227.36 294.751,228.435 290.402,229.645 285.976,230.574 281.754,232.245 277.37,233.324 272.961,234.312 
				268.709,235.887 264.218,236.607 259.654,237.868 262.827,240.086 267.271,238.985 271.604,237.737 275.895,236.346 
				280.257,235.2 284.571,233.888 288.939,232.765 293.328,231.708 297.648,230.402 302.014,229.265 306.308,227.869 
				310.61,226.502 315.107,225.826 319.317,224.094 323.946,223.239 			"/>
		</g>
		<g>
			<polygon fill="#FFFFFF" points="273.081,246.791 277.411,245.361 281.791,244.316 286.092,242.998 290.387,241.638 
				294.746,240.522 299.18,239.672 303.497,238.388 307.749,236.868 312.199,236.067 316.434,234.492 320.826,233.482 
				325.177,232.309 329.427,230.759 333.971,229.99 332.207,228.627 327.834,229.836 323.473,230.951 319.209,232.412 
				314.775,233.272 310.535,234.824 306.18,235.968 301.908,237.422 297.421,238.09 293.147,239.538 288.799,240.71 
				284.493,242.038 280.116,243.121 275.764,244.306 271.529,245.619 			"/>
		</g>
		<g>
			<polygon fill="#FFFFFF" points="283.847,226.009 279.564,227.079 275.408,228.547 271.153,229.653 266.916,230.822 
				262.662,231.947 258.436,233.185 254.126,234.211 256.796,235.809 261.032,234.824 265.232,233.532 269.482,232.428 
				273.727,231.301 277.937,230.038 282.177,228.867 286.362,227.738 			"/>
		</g>
		<g>
			<polygon fill="#FFFFFF" points="292.405,202.272 288.049,203.605 283.608,204.56 279.344,206.151 274.902,207.109 
				270.568,208.451 266.229,209.78 261.837,210.926 257.356,211.748 253.123,213.475 248.721,214.578 244.217,215.316 
				239.898,216.74 235.518,217.953 231.023,219.029 232.536,219.956 236.957,219.054 241.281,217.679 245.73,216.766 
				250.051,215.369 254.466,214.329 258.806,213.005 263.151,211.693 267.577,210.676 271.915,209.338 276.311,208.217 
				280.669,206.951 285.076,205.852 289.377,204.355 293.868,203.37 			"/>
		</g>
		<g>
			<polygon fill="#FFFFFF" points="303.783,209.745 299.417,211.103 295.006,212.131 290.737,213.663 286.357,214.812 
				282.005,216.05 277.628,217.207 273.264,218.418 268.83,219.373 264.573,220.973 260.155,221.982 255.841,223.371 251.34,224.1 
				246.964,225.289 242.532,226.604 244.664,228.094 248.953,226.556 253.369,225.551 257.777,224.528 262.152,223.369 
				266.553,222.316 270.798,220.687 275.119,219.327 279.556,218.388 283.994,217.451 288.219,215.746 292.69,214.933 
				296.96,213.374 301.453,212.617 305.669,211.124 			"/>
		</g>
	</g>
</g>
<path fill="#FFFFFF" d="M502.184,70.103l1.629,4.362l1.111,4.841l1.284,4.798l1.723,4.681l1.312,4.966l-4.665,1.203l-4.507,1.107
	l-4.383,1.545l-4.626,0.685l-4.283,1.899l-4.546,0.989l-4.264,1.496l0.892,3.722l0.943,4.065l4.493-1.761l4.442-1.335l4.554-0.933
	l4.45-1.3l4.406-1.475l4.648-0.611l4.243-1.124l1.136,4.382l1.72,4.478l1.586,4.513l0.937,4.696l0.599,4.792l1.69,5.265
	l-4.355,0.961l-4.25,0.827l-4.535,1.508l-4.425,1.057l-4.257,1.656l-4.352,1.319l-4.4,1.152l-4.521,0.713l-4.317,1.454l-4.252,0.83
	l-4.297,1.523l-4.49,0.837l-6.152,1.967l-2.617,0.19l-1.552-4.351l-1.351-4.485l-0.424-4.735l-1.052-4.566l-1.824-4.36l-0.794-4.635
	l-1.255-4.513l-1.486-4.452l-0.918-4.604l-1.009-4.574l-1.491-4.45l-0.973-4.586l-1.636-4.41l-1.684-4.399l-0.635-4.681
	l-1.098-4.557l-1.793-4.371l-1.418-4.469l-0.564-4.703l-1.289-4.512l-1.711-4.731l4.876-0.511l4.301-1.338l4.372-1.06l4.332-1.224
	l4.351-1.143l4.185-1.756l4.251-1.522l4.537-0.486l4.328-1.242l4.398-0.993l4.149-1.889l4.334-1.232l4.477-0.724l4.381-1.528
	l0.652,4.889l2.05,4.388l1.308,4.589l1.33,4.588l0.483,4.824l1.652,4.466l-4.318,1.649l-4.442,1.335l-4.633,0.646l-4.497,1.131
	l-4.276,1.947l-4.564,0.914l-4.117,1.302l0.691,3.54l0.793,4.297l4.823-1.161L480,75.614l4.413-1.447l4.631-0.644l4.519-1.067
	l4.512-1.032L502.184,70.103z"/>
<g>
	<g>
		<g>
			<polygon fill="#FFFFFF" points="548.974,147.635 544.578,148.838 540.219,150.038 535.861,151.228 531.463,152.294 
				527.215,153.891 522.816,154.949 518.391,155.919 514.124,157.464 509.658,158.285 505.295,159.476 501.053,161.112 
				496.566,161.869 492.307,163.465 488.132,164.723 490.23,166.023 494.66,165.137 498.896,163.499 503.22,162.189 
				507.616,161.127 512.054,160.226 516.409,159.017 520.681,157.496 525.051,156.334 529.491,155.426 533.797,154.036 
				538.102,152.638 542.469,151.449 546.945,150.649 551.276,149.279 			"/>
		</g>
		<g>
			<polygon fill="#FFFFFF" points="566.052,158.858 561.645,160.138 557.385,161.642 552.965,162.554 548.591,163.651 
				544.339,165.177 539.902,166.041 535.567,167.283 531.223,168.493 526.948,169.952 522.535,170.907 518.172,172.044 
				513.89,173.494 509.576,174.836 505.408,175.902 508.386,178.113 512.758,176.767 517.157,175.778 521.393,174.208 
				525.773,173.146 530.108,171.931 534.474,170.818 538.736,169.322 543.176,168.471 547.556,167.403 551.914,166.258 
				556.147,164.66 560.502,163.485 564.862,162.321 569.126,161.161 			"/>
		</g>
		<g>
			<polygon fill="#FFFFFF" points="526.199,132.354 521.904,134.071 517.389,134.775 513.043,136.083 508.782,137.719 
				504.342,138.693 499.997,140.023 495.632,141.284 491.185,142.247 486.885,143.748 482.447,144.741 478.054,145.899 
				473.717,147.277 469.308,148.405 464.808,149.374 465.975,150.104 470.32,148.868 474.724,147.763 479.097,146.554 
				483.523,145.525 487.791,143.927 492.167,142.718 496.693,142.044 500.966,140.448 505.323,139.16 509.756,138.154 
				514.093,136.795 518.507,135.701 522.84,134.302 527.306,133.375 			"/>
		</g>
		<g>
			<polygon fill="#FFFFFF" points="520.647,129.12 516.233,130.133 511.775,131.063 507.494,132.63 503.159,134.012 
				498.625,134.664 494.338,136.22 490.008,137.628 485.538,138.527 481.236,140.038 476.838,141.192 472.43,142.317 
				467.997,143.364 463.578,144.472 459.227,145.829 459.882,145.979 464.353,145.23 468.746,144.067 473.076,142.683 
				477.39,141.223 481.836,140.255 486.244,139.142 490.594,137.808 494.959,136.528 499.377,135.442 503.819,134.451 
				508.115,132.923 512.591,132.035 516.972,130.789 521.312,129.395 			"/>
		</g>
		<g>
			<polygon fill="#FFFFFF" points="506.288,148.882 501.984,149.861 497.765,151.209 493.455,152.223 489.225,153.533 
				484.917,154.57 480.658,155.798 476.447,157.092 478.108,158.238 482.391,157.051 486.657,155.883 490.879,154.56 
				495.135,153.356 499.424,152.262 503.679,151.029 507.907,149.86 			"/>
		</g>
		<g>
			<polygon fill="#FFFFFF" points="560.371,154.992 555.963,156.398 551.563,157.412 547.246,158.715 542.924,160.019 
				538.592,161.275 534.29,162.646 529.915,163.761 525.597,165.086 521.19,166.084 516.779,167.064 512.424,168.248 
				508.183,169.864 503.838,171.114 499.306,172.017 502.374,173.714 506.622,172.515 510.968,171.313 515.328,170.176 
				519.659,168.917 524.039,167.843 528.431,166.807 532.727,165.414 537.047,164.108 541.471,163.181 545.789,161.87 
				550.119,160.604 554.555,159.708 558.838,158.243 563.376,157.279 			"/>
		</g>
		<g>
			<polygon fill="#FFFFFF" points="512.583,180.8 516.871,179.287 521.332,178.537 525.672,177.36 529.887,175.712 534.327,174.889 
				538.559,173.306 542.99,172.436 547.263,170.989 551.606,169.802 555.935,168.565 560.242,167.25 564.682,166.398 
				569.058,165.306 573.43,164.02 571.712,162.845 567.295,163.765 563.002,165.127 558.722,166.532 554.277,167.351 
				550.007,168.793 545.746,170.28 541.357,171.308 537.03,172.558 532.687,173.755 528.313,174.832 523.929,175.875 
				519.563,176.998 515.23,178.253 510.928,179.589 			"/>
		</g>
		<g>
			<polygon fill="#FFFFFF" points="523.343,160.165 519.121,161.359 514.9,162.59 510.602,163.539 506.356,164.676 502.145,165.959 
				497.88,167.054 493.64,168.298 496.3,169.868 500.535,168.907 504.753,167.68 508.974,166.472 513.236,165.409 517.463,164.2 
				521.706,163.043 525.813,161.789 			"/>
		</g>
		<g>
			<polygon fill="#FFFFFF" points="531.917,136.533 527.554,137.696 523.152,138.792 518.805,140.078 514.419,141.241 
				509.971,142.17 505.731,143.861 501.22,144.574 496.957,146.186 492.596,147.445 488.13,148.321 483.759,149.539 
				479.341,150.604 475.114,152.372 470.5,153.073 472.036,153.987 476.473,153.182 480.794,151.797 485.242,150.879 
				489.58,149.549 493.851,147.981 498.28,146.981 502.653,145.77 507.012,144.511 511.336,143.122 515.701,141.886 
				520.093,140.747 524.531,139.761 528.969,138.761 533.118,137.084 			"/>
		</g>
		<g>
			<polygon fill="#FFFFFF" points="543.286,143.833 538.96,145.328 534.486,146.129 530.205,147.621 525.784,148.616 
				521.534,150.225 517.158,151.386 512.783,152.556 508.353,153.527 504.027,154.877 499.585,155.8 495.2,156.932 490.954,158.585 
				486.486,159.44 482.145,160.789 484.164,162.316 488.576,161.074 492.881,159.665 497.196,158.307 501.647,157.424 
				506.026,156.287 510.391,155.094 514.72,153.764 519.142,152.77 523.416,151.24 527.832,150.229 532.134,148.801 
				536.484,147.534 540.975,146.767 545.299,145.318 			"/>
		</g>
	</g>
</g>
<g>
	<g>
		<g>
			<polygon fill="#FFFFFF" points="143.075,253.862 138.611,255.041 134.251,256.508 129.91,258.041 125.481,259.25 
				121.012,260.301 116.565,261.45 112.058,262.367 107.749,264.016 103.182,264.734 98.795,266.104 94.466,267.687 90.002,268.775 
				85.58,270.016 81.109,271.096 76.762,272.635 72.211,273.568 74.25,274.892 78.788,273.895 83.245,272.553 87.796,271.552 
				92.189,269.983 96.589,268.453 101.125,267.396 105.71,266.532 110.115,265.001 114.606,263.779 119.092,262.538 
				123.612,261.418 128.015,259.88 132.55,258.816 137.157,258.002 141.625,256.669 146.131,255.355 			"/>
		</g>
		<g>
			<polygon fill="#FFFFFF" points="92.501,257.28 87.97,258.534 83.505,259.958 78.938,261.004 74.491,262.491 69.937,263.602 
				65.398,264.78 60.832,265.985 62.261,266.86 66.742,265.592 71.282,264.443 75.796,263.202 80.352,262.112 84.812,260.66 
				89.332,259.41 93.862,258.25 			"/>
		</g>
		<g>
			<polygon fill="#FFFFFF" points="124.892,270.228 126.652,271.807 131.26,270.53 135.831,269.14 140.482,268.048 145.019,266.537 
				149.67,265.423 154.264,264.091 158.858,262.813 156.637,261.226 151.984,262.182 147.405,263.498 142.807,264.734 
				138.214,265.994 133.655,267.393 129.031,268.568 124.437,269.873 			"/>
		</g>
		<g>
			<polygon fill="#FFFFFF" points="102.678,293.599 107.303,292.756 111.866,291.471 116.348,289.88 120.903,288.56 125.53,287.498 
				130.063,286.097 134.646,284.88 139.328,284.003 143.841,282.503 148.449,281.346 152.59,280.003 156.708,278.554 
				160.271,275.825 155.788,277.574 151.075,278.354 146.547,279.82 141.986,281.159 137.421,282.488 132.845,283.784 
				128.143,284.627 123.689,286.368 119.115,287.669 114.44,288.607 109.812,289.728 105.223,291.006 100.512,292.29 			"/>
		</g>
		<g>
			<polygon fill="#FFFFFF" points="161.167,265.121 156.737,266.597 152.129,267.404 147.622,268.58 143.308,270.445 
				138.642,271.025 134.265,272.67 129.722,273.703 125.264,275.053 120.848,276.562 116.357,277.799 111.837,278.931 
				107.206,279.655 102.801,281.2 98.324,282.501 93.899,284.002 89.223,284.889 92.209,286.978 96.634,285.68 101.078,284.597 
				105.415,283.126 109.893,282.176 114.188,280.569 118.564,279.242 123.104,278.521 127.417,276.969 131.875,275.934 
				136.26,274.63 140.619,273.237 145.08,272.216 149.567,271.289 153.923,269.873 158.412,268.925 162.753,267.443 			"/>
		</g>
		<g>
			<polygon fill="#FFFFFF" points="131.651,251.977 127.083,253.531 122.376,254.583 117.734,255.86 113.049,257.001 
				108.36,258.112 103.777,259.619 99.211,261.195 94.471,262.142 89.826,263.431 85.157,264.627 80.539,266.012 75.805,266.995 
				71.225,268.544 66.757,270.068 68.264,271.246 72.699,269.512 77.271,268.54 81.824,267.505 86.249,266.018 90.725,264.702 
				95.267,263.634 99.771,262.417 104.173,260.824 108.736,259.817 113.31,258.85 117.82,257.653 122.207,256.007 126.812,255.139 
				131.165,253.342 135.622,252.106 			"/>
		</g>
		<g>
			<polygon fill="#FFFFFF" points="121.054,267.609 125.619,266.262 130.289,265.263 134.897,264.042 139.449,262.616 
				144.058,261.382 148.612,259.936 153.232,258.764 150.726,257.365 146.092,258.732 141.417,259.948 136.714,261.061 
				132.119,262.567 127.432,263.758 122.759,265.007 118.128,266.383 			"/>
		</g>
		<g>
			<polygon fill="#FFFFFF" points="115.243,272.547 110.735,273.708 106.235,275.003 101.679,276.09 97.198,277.455 92.647,278.577 
				88.126,279.82 83.695,281.204 86.232,282.856 90.711,281.524 95.224,280.275 99.791,279.229 104.283,277.906 108.836,276.788 
				113.343,275.495 117.971,274.268 			"/>
		</g>
		<g>
			<polygon fill="#FFFFFF" points="81.217,249.898 76.736,251.25 72.152,252.241 67.676,253.622 63.165,254.873 58.645,256.109 
				54.08,257.194 49.639,258.669 50.302,259.127 54.78,257.708 59.341,256.635 63.829,255.298 68.354,254.098 72.851,252.777 
				77.373,251.539 81.878,250.27 			"/>
		</g>
		<g>
			<polygon fill="#FFFFFF" points="86.825,253.645 82.291,254.784 77.812,256.157 73.257,257.246 68.727,258.433 64.219,259.709 
				59.742,261.115 55.186,262.264 56.267,262.895 60.801,261.796 65.298,260.491 69.827,259.303 74.369,258.164 78.83,256.713 
				83.376,255.558 87.932,254.373 			"/>
		</g>
		<g>
			<polygon fill="#FFFFFF" points="109.563,268.688 105.058,269.966 100.527,271.149 96.065,272.577 91.503,273.647 86.967,274.823 
				82.433,276.022 77.94,277.384 80.237,278.964 84.748,277.646 89.264,276.409 93.753,275.078 98.275,273.867 102.771,272.54 
				107.319,271.397 111.824,270.183 			"/>
		</g>
		<g>
			<polygon fill="#FFFFFF" points="163.551,269.796 158.91,270.832 154.447,272.477 149.86,273.66 145.302,274.942 140.743,276.233 
				136.2,277.575 131.514,278.402 127.096,280.217 122.501,281.383 117.844,282.325 113.279,283.597 108.794,285.163 
				104.189,286.309 99.568,287.406 94.691,288.584 98.195,290.983 102.913,289.834 107.381,287.991 112.09,287.027 116.73,285.799 
				121.337,284.462 125.943,283.112 130.644,282.102 135.181,280.492 139.866,279.42 144.473,278.071 149.031,276.541 
				153.789,275.723 158.467,274.602 162.953,272.867 			"/>
		</g>
	</g>
</g>
<g>
	<g>
		<g>
			<polygon fill="#FFFFFF" points="174.389,234.727 175.754,235.658 180.467,234.336 185.168,233.01 183.884,232.077 
				179.139,233.429 			"/>
		</g>
		<g>
			<polygon fill="#FFFFFF" points="178.78,228.197 173.721,229.514 168.666,230.89 169.765,231.678 174.667,230.256 
				179.573,228.886 			"/>
		</g>
		<g>
			<polygon fill="#FFFFFF" points="163.081,227.223 158.554,228.41 154.088,229.829 149.508,230.831 144.983,232.032 
				140.546,233.57 135.945,234.522 131.51,236.014 132.173,236.409 136.642,234.987 141.218,233.973 145.667,232.507 150.217,231.4 
				154.726,230.13 159.215,228.776 163.811,227.756 			"/>
		</g>
		<g>
			<polygon fill="#FFFFFF" points="168.688,230.947 164.206,232.241 159.69,233.426 155.174,234.603 150.708,235.966 
				146.175,237.099 141.704,238.471 137.178,239.621 138.259,240.295 142.785,239.169 147.249,237.807 151.752,236.592 
				156.28,235.465 160.724,234.017 165.253,232.866 169.798,231.706 			"/>
		</g>
		<g>
			<polygon fill="#FFFFFF" points="196.492,250.074 192.129,251.051 187.788,252.254 183.472,253.54 179.099,254.62 
				174.793,255.959 170.424,257.083 166.118,258.35 168.731,260.076 173.036,258.73 177.448,257.813 181.703,256.332 
				186.091,255.33 190.396,254.011 194.769,252.929 199.094,251.685 			"/>
		</g>
		<g>
			<polygon fill="#FFFFFF" points="202.296,245.028 206.87,243.78 211.478,242.572 216.123,241.505 220.714,240.241 
				225.255,238.778 229.837,237.451 234.519,236.416 231.018,235.004 226.535,236.446 221.961,237.505 217.483,238.911 
				212.976,240.211 208.463,241.507 203.845,242.434 199.408,243.947 			"/>
		</g>
		<g>
			<polygon fill="#FFFFFF" points="217.623,228.076 213.098,229.611 208.423,230.573 203.779,231.642 199.306,233.32 
				194.663,234.396 190.132,235.87 185.557,237.193 180.863,238.091 176.305,239.484 171.704,240.72 167.211,242.344 
				162.582,243.477 157.949,244.609 153.27,245.589 148.724,247.08 150.444,247.896 154.968,247.3 159.265,245.586 163.755,244.586 
				168.115,243.122 172.55,241.914 177.091,241.099 181.387,239.39 185.864,238.328 190.395,237.464 194.853,236.333 
				199.114,234.49 203.633,233.585 208.029,232.217 212.419,230.814 216.896,229.776 			"/>
		</g>
		<g>
			<polygon fill="#FFFFFF" points="217.893,233.606 213.293,234.518 208.75,235.683 204.286,237.123 199.805,238.519 
				195.264,239.686 190.652,240.603 186.244,242.27 181.718,243.509 177.148,244.587 172.626,245.832 168.123,247.153 
				163.538,248.189 159.028,249.508 154.398,250.72 156.541,252.377 161.092,251.152 165.423,249.362 169.921,248.187 
				174.558,247.525 178.947,245.95 183.51,245.014 188.001,243.811 192.378,242.183 196.893,241.057 201.404,239.918 
				205.887,238.681 210.267,237.071 214.855,236.196 219.413,235.201 223.687,233.416 			"/>
		</g>
		<g>
			<polygon fill="#FFFFFF" points="185.168,232.996 189.528,231.701 193.976,230.717 198.369,229.536 202.676,228.042 
				207.118,227.024 211.531,225.888 215.928,224.669 215.058,223.966 214.605,223.733 210.174,224.746 205.847,226.158 
				201.465,227.365 197.028,228.373 192.643,229.589 188.238,230.739 183.852,231.995 			"/>
		</g>
		<g>
			<polygon fill="#FFFFFF" points="204.619,215.275 200.115,216.466 195.651,217.765 191.145,218.923 186.777,220.522 
				182.594,222.481 187.086,221.222 191.612,220.086 196.099,218.792 200.582,217.468 205.129,216.357 			"/>
		</g>
		<g>
			<polygon fill="#FFFFFF" points="190.815,246.176 186.488,247.498 182.082,248.518 177.739,249.759 173.368,250.903 
				169.057,252.281 164.682,253.436 160.404,254.66 162.637,256.124 167.031,255.052 171.363,253.784 175.711,252.581 
				180.066,251.402 184.407,250.158 188.718,248.79 193.033,247.655 			"/>
		</g>
		<g>
			<polygon fill="#FFFFFF" points="206.102,247.794 207.918,249.391 212.708,248.093 217.405,246.509 222.167,245.165 
				226.942,243.869 231.729,242.597 236.559,241.468 241.298,240.035 238.697,238.503 234.01,239.797 229.227,240.821 
				224.51,242.077 219.866,243.6 215.149,244.873 210.43,246.157 205.662,247.306 			"/>
		</g>
		<g>
			<polygon fill="#FFFFFF" points="179.592,228.943 183.952,227.826 188.254,226.5 192.618,225.402 196.953,224.199 201.32,223.099 
				205.589,221.626 209.982,220.601 209.471,220.16 208.922,219.926 204.624,221.119 200.27,222.118 195.977,223.336 
				191.679,224.535 187.4,225.821 183.071,226.933 178.721,228.011 			"/>
		</g>
		<g>
			<polygon fill="#FFFFFF" points="174.378,234.815 169.908,236.02 165.355,237.013 160.952,238.547 156.411,239.579 
				151.927,240.837 147.431,242.064 142.969,243.373 144.352,244.201 148.844,243.045 153.321,241.789 157.766,240.419 
				162.246,239.18 166.805,238.208 171.284,236.934 175.701,235.54 			"/>
		</g>
		<g>
			<polygon fill="#FFFFFF" points="243.85,242.377 239.267,243.229 234.75,244.393 230.35,245.985 225.924,247.475 221.311,248.271 
				216.811,249.498 212.346,250.842 207.825,251.987 203.319,253.197 198.883,254.664 194.35,255.773 189.868,257.066 
				185.371,258.308 180.85,259.476 176.337,260.685 171.766,262.026 174.796,264.327 179.306,262.992 183.712,261.727 
				188.095,260.374 192.558,259.319 196.962,258.065 201.428,257.015 205.775,255.546 210.218,254.416 214.555,252.891 
				219.014,251.813 223.398,250.459 227.957,249.75 232.21,247.922 236.633,246.699 241.069,245.511 245.613,244.631 			"/>
		</g>
		<g>
			<polygon fill="#FFFFFF" points="185.293,270.551 189.597,269.402 193.973,268.3 198.325,267.11 202.644,265.8 207.006,264.65 
				211.45,263.784 215.767,262.441 220.136,261.287 224.695,259.822 229.31,258.567 233.813,256.964 238.285,255.314 
				242.602,253.35 238.062,254.601 233.429,255.53 228.984,257.158 224.455,258.471 219.904,259.71 215.246,260.571 
				210.801,262.204 206.182,263.209 201.679,264.627 197.096,265.756 192.556,267.06 188.037,268.449 183.35,269.458 			"/>
		</g>
		<g>
			<polygon fill="#FFFFFF" points="246.447,246.73 241.941,248.418 237.202,249.122 232.643,250.473 228.076,251.782 
				223.576,253.355 218.995,254.621 214.295,255.462 209.718,256.758 205.169,258.158 200.548,259.295 196.061,260.916 
				191.515,262.322 186.903,263.504 182.199,264.365 177.611,265.807 180.929,267.874 185.587,266.73 190.167,265.224 
				194.91,264.319 199.424,262.566 204.107,261.439 208.763,260.203 213.509,259.287 218.087,257.762 222.715,256.418 
				227.432,255.401 231.981,253.771 236.654,252.578 241.24,251.053 246.054,250.239 			"/>
		</g>
	</g>
</g>
<g>
	<g>
		<g>
			<polygon fill="#FFFFFF" points="369.495,209.237 371.039,208.602 367.52,209.578 			"/>
		</g>
		<g>
			<polygon fill="#FFFFFF" points="361.199,206.079 356.462,207.268 351.758,208.633 347.003,209.804 342.334,211.292 
				337.554,212.39 332.889,213.921 328.139,215.121 330.288,216.9 334.74,215.621 339.218,214.421 343.707,213.261 348.165,211.991 
				352.646,210.783 357.077,209.386 361.532,208.198 			"/>
		</g>
		<g>
			<polygon fill="#FFFFFF" points="384.18,194.318 379.707,195.476 375.207,196.52 370.839,198.063 366.436,199.466 361.96,200.615 
				357.405,201.481 352.926,202.627 348.479,203.887 344.036,205.158 339.708,206.849 335.24,208.047 330.711,209.033 
				326.262,210.295 326.413,212.339 331.114,211.2 335.716,209.692 340.44,208.617 345.078,207.223 349.816,206.193 
				354.493,204.942 359.127,203.537 363.741,202.059 368.499,201.088 373.128,199.633 377.842,198.455 380.972,196.254 			"/>
		</g>
		<g>
			<polygon fill="#FFFFFF" points="408.194,204.056 403.761,204.763 399.383,205.962 395.129,207.597 390.687,208.544 
				386.374,209.973 381.901,210.816 377.543,212.077 373.128,213.145 368.73,214.271 364.498,216.001 360.1,217.126 
				355.616,217.937 351.331,219.486 346.836,220.286 342.469,221.65 346.299,222.208 349.988,222.442 354.498,221.717 
				358.869,220.414 363.211,218.985 367.651,217.923 372.103,216.898 376.401,215.307 380.836,214.212 385.26,213.075 
				389.631,211.753 393.995,210.401 398.534,209.671 402.92,208.372 407.203,206.814 			"/>
		</g>
		<g>
			<polygon fill="#FFFFFF" points="314.64,203.708 318.735,202.307 322.917,201.209 327.035,199.905 331.166,198.626 
				335.254,197.202 339.44,195.905 335.124,197.242 330.784,198.28 326.471,199.419 322.226,200.821 317.907,201.963 
				313.616,203.143 			"/>
		</g>
		<g>
			<polygon fill="#FFFFFF" points="386.469,218.23 391.188,216.853 395.721,214.956 400.216,212.957 404.227,209.948 
				399.616,211.343 395.054,212.798 390.422,214.003 385.743,215.041 381.134,216.332 376.597,217.879 371.904,218.86 
				367.394,220.524 362.66,221.384 358.077,222.814 362.868,222.371 367.661,222.077 372.443,221.567 377.142,220.544 
				381.833,219.498 			"/>
		</g>
		<g>
			<polygon fill="#FFFFFF" points="405.325,199.844 404.539,199.568 399.774,200.897 395.021,202.303 390.199,203.454 
				385.455,204.89 380.622,206.018 375.818,207.266 371.013,208.519 369.578,209.541 367.598,209.891 363.383,211.093 
				358.986,211.666 354.76,212.863 350.582,214.228 346.446,215.748 342.202,216.888 337.885,217.775 333.708,219.031 
				337.668,220.753 342.271,219.27 346.875,217.899 351.487,216.566 356.203,215.622 360.795,214.209 365.394,212.835 
				370.116,211.898 374.731,210.564 379.38,209.351 383.841,207.459 388.635,206.781 393.273,205.53 397.843,204.02 
				402.423,202.533 407.225,201.693 			"/>
		</g>
		<g>
			<polygon fill="#FFFFFF" points="367.913,204.135 370.725,205.292 371.057,205.628 375.267,204.462 379.497,203.364 
				383.695,202.152 387.933,201.082 392.174,200.011 396.33,198.621 400.525,197.475 396.801,196.022 392.425,197.51 
				387.993,198.707 383.53,199.798 379.07,200.914 374.673,202.267 370.236,203.479 			"/>
		</g>
		<g>
			<polygon fill="#FFFFFF" points="342.546,191.032 345.204,190.187 349.512,189.112 353.78,187.869 358.077,186.727 
				362.362,185.552 366.683,184.501 370.895,183.044 375.277,182.189 379.476,180.735 377.822,180.176 373.482,181.527 
				368.935,182.168 364.597,183.574 360.157,184.597 355.947,186.446 351.407,187.113 347.002,188.26 342.616,189.485 
				338.207,190.633 333.817,191.85 329.426,193.064 325.137,194.643 320.779,195.973 316.368,197.128 311.883,198.023 
				307.574,199.518 308.797,200.115 313.399,199.273 317.88,197.923 322.455,196.917 326.961,195.656 331.416,194.197 
				335.843,192.624 340.511,191.881 			"/>
		</g>
		<g>
			<polygon fill="#FFFFFF" points="383.805,183.681 379.283,184.928 374.804,186.307 370.257,187.432 365.768,188.773 
				361.261,190.059 356.694,191.143 352.247,192.591 352.195,194.198 356.881,192.744 361.623,191.554 366.302,190.143 
				371.048,188.97 375.765,187.678 380.446,186.24 385.166,184.947 			"/>
		</g>
		<g>
			<polygon fill="#FFFFFF" points="387.28,188.331 382.658,189.232 378.121,190.557 373.534,191.691 369.041,193.175 
				364.539,194.632 359.929,195.7 355.388,197.015 350.858,198.368 346.277,199.536 341.695,200.719 337.093,201.838 
				332.642,203.435 328.702,206.21 333.266,205.101 337.765,203.837 342.222,202.402 346.719,201.124 351.282,200.078 
				355.703,198.509 360.224,197.3 364.784,196.235 369.305,195.031 373.815,193.785 378.32,192.506 382.873,191.392 
				387.448,190.235 			"/>
		</g>
		<g>
			<polygon fill="#FFFFFF" points="367.574,177.57 362.975,178.498 358.578,180.161 354.092,181.489 349.444,182.245 
				345.036,183.859 340.427,184.755 335.953,186.15 331.486,187.569 326.977,188.833 322.424,189.935 317.887,191.096 
				313.409,192.487 308.963,194.008 304.318,194.834 304.534,195.634 309.015,194.952 313.32,193.553 317.609,192.104 
				322.059,191.248 326.46,190.2 330.779,188.867 335.041,187.314 339.525,186.561 343.815,185.107 348.212,184.039 
				352.552,182.767 356.959,181.736 361.328,180.557 365.634,179.131 370.054,178.061 			"/>
		</g>
		<g>
			<polygon fill="#FFFFFF" points="331.461,181.385 326.911,182.595 322.373,183.851 317.796,184.977 313.301,186.417 
				308.744,187.866 314.293,186.273 308.83,189.141 313.435,187.942 317.937,186.387 322.541,185.205 327.105,183.876 
				331.692,182.636 336.347,181.642 340.935,180.388 345.497,179.029 350.108,177.822 345.407,178.57 340.677,179.077 
				336.113,180.424 			"/>
		</g>
	</g>
</g>
<g>
	<g>
		<g>
			<polygon fill="#FFFFFF" points="448.345,187.544 449.892,186.921 446.375,187.898 			"/>
		</g>
		<g>
			<polygon fill="#FFFFFF" points="440.039,184.306 435.319,185.599 430.603,186.917 425.899,188.274 421.14,189.437 
				416.429,190.788 411.744,192.246 406.936,193.31 409.146,195.282 413.618,194.029 418.101,192.845 422.578,191.645 
				427.049,190.418 431.518,189.169 435.988,187.914 440.483,186.68 			"/>
		</g>
		<g>
			<polygon fill="#FFFFFF" points="463.055,172.802 458.578,173.856 454.057,174.828 449.692,176.381 445.28,177.752 
				440.69,178.485 436.369,180.201 431.779,180.942 427.352,182.278 422.886,183.465 418.447,184.75 414.045,186.188 
				409.548,187.291 405.076,188.513 405.264,190.657 409.878,189.193 414.52,187.83 419.317,187.021 423.972,185.688 
				428.536,184.026 433.202,182.734 437.902,181.571 442.649,180.574 447.231,178.965 451.97,177.911 456.6,176.474 
				460.014,174.877 			"/>
		</g>
		<g>
			<polygon fill="#FFFFFF" points="487.024,181.764 482.662,183.253 478.288,184.467 473.982,185.915 469.587,187.032 
				465.126,187.926 460.865,189.535 456.496,190.759 452.024,191.617 447.585,192.596 443.226,193.865 438.977,195.528 
				434.538,196.506 430.179,197.785 425.836,199.137 421.397,200.124 425.107,200.831 428.914,201.14 433.369,200.1 
				437.705,198.668 442.157,197.64 446.535,196.351 450.905,195.028 455.373,194.055 459.681,192.498 464.182,191.643 
				468.567,190.369 472.951,189.092 477.341,187.822 481.768,186.67 486.094,185.207 			"/>
		</g>
		<g>
			<polygon fill="#FFFFFF" points="393.493,182.044 397.642,180.795 401.762,179.498 405.86,178.129 409.949,176.718 
				414.133,175.601 418.223,174.313 413.979,175.564 409.624,176.549 405.365,177.886 401.051,179.036 396.735,180.19 
				392.381,181.294 			"/>
		</g>
		<g>
			<polygon fill="#FFFFFF" points="465.359,196.682 470.046,195.18 474.495,193.083 478.933,191.018 483.083,188.327 
				478.501,189.778 473.895,191.068 469.222,192.127 464.68,193.663 460.023,194.778 455.469,196.264 450.755,197.168 
				446.187,198.622 441.59,199.982 437.017,201.343 441.734,200.873 446.485,200.191 451.255,199.653 455.943,198.616 
				460.637,197.614 			"/>
		</g>
		<g>
			<polygon fill="#FFFFFF" points="484.237,178.045 483.353,177.708 478.483,178.688 473.848,180.525 468.951,181.401 
				464.226,182.906 459.402,184.069 454.691,185.655 449.996,187.263 448.365,187.617 446.418,188.074 442.149,189.094 
				437.899,190.2 433.741,191.644 429.471,192.676 425.24,193.85 421.001,195.009 416.776,196.228 412.408,197.081 416.509,198.999 
				421.093,197.475 425.79,196.442 430.462,195.328 435.093,194.071 439.683,192.652 444.216,191.04 448.984,190.269 
				453.473,188.477 458.243,187.704 462.814,186.209 467.482,185.074 472.109,183.784 476.688,182.306 481.371,181.195 
				486.011,179.849 			"/>
		</g>
		<g>
			<polygon fill="#FFFFFF" points="446.921,182.587 449.517,183.674 449.901,183.91 454.123,182.79 458.334,181.621 
				462.561,180.516 466.797,179.441 470.981,178.163 475.197,176.987 479.382,175.79 475.66,174.401 471.271,175.799 
				466.811,176.895 462.43,178.283 457.987,179.462 453.481,180.42 449.058,181.693 			"/>
		</g>
		<g>
			<polygon fill="#FFFFFF" points="421.375,169.263 424.009,168.299 428.381,167.487 432.665,166.3 436.849,164.752 
				441.129,163.554 445.49,162.651 449.783,161.486 454.006,160.055 458.509,159.502 456.59,158.055 452.165,159.226 
				447.852,160.718 443.432,161.825 439.065,163.113 434.751,164.584 430.267,165.453 426.001,167.107 421.439,167.693 
				417.07,168.985 412.784,170.578 408.322,171.536 403.937,172.768 399.642,174.326 395.13,175.112 390.835,176.7 386.482,177.974 
				387.646,178.417 392.146,177.206 396.622,175.835 401.264,175.073 405.696,173.543 410.209,172.294 414.728,171.054 
				419.33,170.091 			"/>
		</g>
		<g>
			<polygon fill="#FFFFFF" points="462.689,162.191 458.107,163.138 453.658,164.624 449.077,165.627 444.59,166.975 
				440.106,168.348 435.569,169.539 431.045,170.77 431.006,172.276 435.706,170.958 440.478,169.877 445.129,168.364 
				449.886,167.233 454.545,165.728 459.255,164.399 464.066,163.379 			"/>
		</g>
		<g>
			<polygon fill="#FFFFFF" points="466.08,166.275 461.588,167.827 457.009,168.999 452.44,170.2 447.915,171.566 443.258,172.462 
				438.735,173.843 434.141,174.971 429.7,176.646 425.146,177.914 420.492,178.833 416.022,180.431 411.312,181.24 
				407.532,184.222 411.98,182.913 416.512,181.767 421.053,180.641 425.542,179.331 430.031,178.017 434.603,176.994 
				439.096,175.685 443.679,174.702 448.076,173.048 452.567,171.734 457.152,170.748 461.63,169.357 466.101,168.049 			"/>
		</g>
		<g>
			<polygon fill="#FFFFFF" points="446.401,155.772 441.851,156.898 437.426,158.46 432.944,159.8 428.35,160.752 423.825,161.944 
				419.318,163.21 414.817,164.505 410.297,165.732 405.733,166.798 401.307,168.359 396.695,169.25 392.22,170.654 
				387.804,172.282 383.191,173.203 383.479,174.431 387.818,173.085 392.235,172.091 396.482,170.492 400.812,169.204 
				405.177,168.025 409.644,167.225 413.863,165.519 418.365,164.831 422.605,163.192 426.995,162.099 431.301,160.707 
				435.748,159.823 440.171,158.834 444.401,157.138 448.834,156.177 			"/>
		</g>
		<g>
			<polygon fill="#FFFFFF" points="410.368,159.9 405.827,161.142 401.256,162.275 396.677,163.396 392.138,164.674 
				387.594,166.132 393.142,164.579 387.685,167.502 392.303,166.313 396.81,164.776 401.47,163.797 406.014,162.398 
				410.543,160.946 415.198,159.953 419.795,158.73 424.373,157.427 428.873,155.886 424.239,156.768 419.566,157.581 
				414.898,158.457 			"/>
		</g>
	</g>
</g>
</svg>
