<?xml version="1.0" encoding="utf-8"?>
<!-- Generator: Adobe Illustrator 17.0.0, SVG Export Plug-In . SVG Version: 6.00 Build 0)  -->
<!DOCTYPE svg PUBLIC "-//W3C//DTD SVG 1.1//EN" "http://www.w3.org/Graphics/SVG/1.1/DTD/svg11.dtd">
<svg version="1.1" id="Calque_1" xmlns="http://www.w3.org/2000/svg" xmlns:xlink="http://www.w3.org/1999/xlink" x="0px" y="0px"
	 width="799.95px" height="320.386px" viewBox="0 0 799.95 320.386" enable-background="new 0 0 799.95 320.386"
	 xml:space="preserve">
<path d="M28.345,241.109c0,0,8.239,1.486,17.331-36.414l9.539-148.741c0,0,0.16-16.789-5.731-27.552l0.178-2.761
	c0.365-5.696,5.279-10.019,10.977-9.653l95.369,6.118c0,0,12.864-0.55,15.256,14.11c0,0,1.805-1.089,2.49-3.809
	c1.294-5.123,5.751-8.795,11.025-8.458l89.552,5.744c0,0,19.998,2.504,22.319,23.421c0,0,2.985-5.212,3.651-11.545
	c0.605-5.744,5.717-9.95,11.486-9.663l106.634,5.32c5.347,0.267,10.085,3.526,12.248,8.423l3.273,7.414
	c0,0,16.984-14.793,37.176-15.331c0,0,48.066-6.538,73.012,33.088c0,0,22.476-29.019,64.979-26.123c0,0,34.784-0.723,51.375,19.179
	c0,0,1.78,0.114,2.604-2.132c1.467-4.019,5.034-6.874,9.309-6.664l100.712,4.948c6.2,0.304,10.698,6.022,9.534,12.123
	l-11.627,60.868l-1.404,21.899l3.469,89.101c0,0,2.784,42.329-27.294,54.141c0,0-28.077,9.195-52.012-3.334
	c0,0-28.654-10.391-87.914-0.753c0,0-52.082,7.26-75.428-9.724c0,0-59.577,28.262-112.369-7.209L34.438,252.536
	c-3.757-0.24-6.602-3.478-6.363-7.232L28.345,241.109z"/>
<path fill="#FFFFFF" d="M117.603,32.775c8.037,0.513,15.267,1.885,21.685,4.115c6.41,2.228,11.855,5.45,16.331,9.672
	c4.466,4.222,7.807,9.585,10.016,16.082c2.202,6.497,3.026,14.167,2.458,23.008c-1.043,16.279-6.34,28.853-15.888,37.726
	c-9.553,8.873-22.465,12.784-38.743,11.741c-3.416-0.221-6.545-0.972-9.384-2.266c-2.846-1.292-5.315-2.917-7.41-4.866
	l-5.201,81.088c-0.452,7.036-0.525,12.935-0.226,17.693c0.301,4.763,0.858,8.581,1.684,11.458c0.582,3.471,1.525,6.153,2.814,8.049
	l-45.213-2.901c1.321-1.73,2.592-4.268,3.818-7.625c0.981-2.759,1.974-6.479,2.985-11.155c1.006-4.676,1.734-10.534,2.186-17.57
	l9.008-140.473c0.452-7.031,0.477-12.93,0.078-17.702c-0.404-4.763-0.913-8.585-1.531-11.447c-0.792-3.483-1.725-6.164-2.816-8.054
	L117.603,32.775z M113.646,127.563c4.019,0.258,7.41-0.737,10.178-2.98c2.766-2.243,4.984-5.324,6.65-9.259
	c1.659-3.925,2.923-8.635,3.779-14.135c0.853-5.491,1.481-11.255,1.869-17.282c0.488-7.636,0.05-14.224-1.31-19.759
	c-1.362-5.537-3.341-10.05-5.938-13.549c-2.604-3.496-5.614-6.111-9.035-7.844c-3.421-1.734-6.84-2.711-10.254-2.928l-7.234-0.466
	l-3.439,53.66c1.493-1.314,3.371-2.303,5.637-2.967c2.262-0.659,4.487-0.821,6.691-0.479c2.198,0.342,4.206,1.178,6.043,2.506
	c1.83,1.326,3.079,3.124,3.743,5.383c-3.179-0.806-6.269-0.703-9.254,0.315c-2.992,1.02-5.465,2.629-7.421,4.824
	c-1.96,2.191-3.334,4.777-4.131,7.752c-0.796,2.976-0.694,6.112,0.304,9.402c0.502,1.65,1.953,3.307,4.377,4.975
	C107.313,126.401,110.227,127.344,113.646,127.563"/>
<path fill="#FFFFFF" d="M276.057,223.943c2.031,9.211,4.103,16.258,6.212,21.132c2.106,4.877,5.379,8.871,9.827,11.979
	c-2.932,1.63-5.977,2.645-9.124,3.049c-3.156,0.402-5.838,0.532-8.049,0.39c-7.212-0.867-13.353-3.43-18.421-7.688
	c-5.078-4.261-8.35-10.673-9.815-19.245l-12.627-91.013c-6.006-0.785-11.004-3.019-15.005-6.712l-5.203,81.09
	c-0.45,7.036-0.527,12.935-0.226,17.696c0.301,4.756,0.858,8.581,1.684,11.454c0.582,3.471,1.522,6.15,2.814,8.054l-45.215-2.901
	c1.324-1.734,2.592-4.274,3.818-7.627c0.981-2.757,1.978-6.481,2.99-11.157c1.004-4.676,1.732-10.532,2.184-17.568l9.012-140.473
	c0.447-7.029,0.472-12.933,0.073-17.705c-0.404-4.765-0.915-8.581-1.536-11.445c-0.79-3.482-1.721-6.166-2.814-8.051l53.358,3.421
	c8.033,0.518,15.263,1.887,21.68,4.112c6.411,2.228,11.856,5.452,16.329,9.674c4.471,4.222,7.812,9.537,10.025,15.931
	c2.214,6.397,3.031,14.117,2.449,23.161c-0.913,14.27-5.178,25.697-12.791,34.289c-7.615,8.594-17.926,13.583-30.925,14.968
	c4.491,2.307,8.877,6.274,13.161,11.89c4.277,5.623,7.285,13.839,9.012,24.642L276.057,223.943z M222.909,127.608
	c0.502,1.652,1.953,3.305,4.375,4.973c2.412,1.67,5.228,2.606,8.446,2.814c4.016,0.258,7.408-0.739,10.18-2.98
	c2.766-2.246,5.032-5.326,6.798-9.252c1.764-3.918,3.074-8.626,3.93-14.126c0.854-5.493,1.481-11.253,1.869-17.285
	c0.502-7.834,0.066-14.471-1.301-19.909c-1.367-5.429-3.35-9.9-5.949-13.396c-2.602-3.498-5.614-6.111-9.03-7.841
	c-3.423-1.732-6.84-2.711-10.256-2.93l-7.232-0.466l-3.441,53.66c1.493-1.314,3.371-2.305,5.641-2.969
	c2.255-0.657,4.484-0.817,6.687-0.475c2.195,0.34,4.165,1.125,5.904,2.344c1.737,1.221,3.026,3.069,3.879,5.545
	c-3.179-0.81-6.267-0.703-9.249,0.313c-2.994,1.02-5.466,2.629-7.426,4.822c-1.956,2.198-3.332,4.779-4.128,7.757
	C221.809,121.182,221.912,124.318,222.909,127.608"/>
<path fill="#FFFFFF" d="M322.359,252.338c-4.236-0.068-8.348,0.326-12.335,1.175c-3.991,0.858-7.444,1.999-10.361,3.423
	c1.502-4.541,3.909-8.273,7.228-11.191c3.311-2.912,6.887-5.203,10.73-6.874c3.838-1.673,7.597-2.844,11.271-3.519
	c3.679-0.671,6.721-0.931,9.135-0.776c4.427,0.087,8.38,0.639,11.849,1.666c3.462,1.032,6.865,2.214,10.215,3.533
	c3.343,1.326,6.846,2.51,10.52,3.551c3.661,1.043,7.915,1.62,12.753,1.725c4.03,0.059,7.59-0.422,10.683-1.433
	c3.092-1.013,6.091-2.227,9.014-3.661c-1.732,4.936-4.256,8.914-7.577,11.924c-3.323,3.017-6.844,5.313-10.582,6.887
	c-3.731,1.579-7.337,2.663-10.801,3.243c-3.469,0.589-6.308,0.81-8.517,0.669c-4.439-0.084-8.236-0.63-11.397-1.641
	c-3.168-1.011-6.319-2.168-9.459-3.482c-3.149-1.31-6.456-2.483-9.916-3.514C331.341,253.015,327.195,252.447,322.359,252.338
	 M405.357,218.313l-101.89-6.536c1.326-1.73,2.593-4.27,3.818-7.627c0.984-2.757,1.979-6.476,2.99-11.157
	c1.004-4.674,1.734-10.53,2.184-17.568l5.956-92.843c0.45-7.029,0.475-12.933,0.075-17.705c-0.404-4.765-0.913-8.581-1.536-11.447
	c-0.79-3.48-1.723-6.164-2.814-8.049l98.873,6.34l-4.624,29.67l-6.935-0.445c-0.749-4.08-1.534-7.565-2.355-10.443
	c-0.831-2.876-2.186-5.285-4.078-7.223c-1.894-1.938-4.726-3.428-8.492-4.477c-3.768-1.048-9.067-1.796-15.897-2.234l-18.389-1.18
	l-3.569,55.659c6.002,0.787,11.527,1.143,16.58,1.066c5.046-0.08,9.393-0.201,13.035-0.374c4.263-0.331,8.024-0.796,11.292-1.39
	c0.119,1.216,0.144,2.526,0.053,3.93c-0.144,2.207-0.828,4.982-2.049,8.33c-1.203,2.942-3.535,4.758-7.008,5.443
	c-3.478,0.682-6.89,0.413-10.238-0.817l-22.203-7.764l-4.767,74.31c-0.066,1.007,0.105,2.275,0.509,3.811
	c0.404,1.538,1.216,3.044,2.437,4.532c1.212,1.486,2.999,2.761,5.351,3.822c2.353,1.059,5.44,1.705,9.261,1.949l10.548,0.678
	c4.621,0.297,8.396-0.319,11.317-1.848c2.926-1.522,5.331-3.693,7.23-6.495c1.89-2.805,3.407-5.936,4.539-9.398
	c1.127-3.455,2.307-6.967,3.549-10.518l6.933,0.447L405.357,218.313z"/>
<path fill="#FFFFFF" d="M422.509,210.417c0.993-9.206,3.889-17.428,8.697-24.679c4.802-7.248,10.418-13.841,16.856-19.777
	c6.433-5.933,13.346-11.534,20.751-16.798c7.401-5.265,14.35-10.616,20.856-16.046c6.499-5.432,12.068-11.169,16.691-17.219
	c4.628-6.05,7.392-12.978,8.293-20.776c0.445-3.797,0.237-7.638-0.618-11.525c-0.863-3.886-2.355-7.405-4.471-10.564
	c-2.118-3.158-4.875-5.854-8.259-8.085c-3.391-2.234-7.285-3.69-11.675-4.375c-5.817-0.577-10.612,0.272-14.391,2.536
	c-3.775,2.264-6.684,5.139-8.725,8.615c-2.038,3.482-3.291,7.216-3.745,11.196c-0.459,3.982-0.267,7.303,0.573,9.964
	c0.796,3.261,2.221,6.212,4.277,8.85c2.047,2.638,4.534,4.806,7.451,6.499c2.919,1.691,6.071,2.848,9.464,3.469
	c3.391,0.618,6.824,0.541,10.308-0.251c-0.169,2.618-1.185,5.023-3.037,7.223c-1.858,2.202-4.195,4.071-7.02,5.605
	c-2.821,1.536-5.966,2.597-9.435,3.179c-3.471,0.584-7.001,0.659-10.607,0.226c-3.001-0.393-6.26-1.506-9.777-3.348
	c-3.512-1.841-6.632-4.413-9.343-7.718c-2.713-3.295-4.824-7.319-6.337-12.054c-1.511-4.738-1.871-10.212-1.066-16.415
	c0.445-3.804,1.723-7.96,3.825-12.469c2.106-4.505,5.247-8.595,9.414-12.26c4.169-3.67,9.398-6.559,15.692-8.679
	c6.292-2.118,13.74-2.7,22.36-1.746c8.008,0.924,15.185,3.095,21.523,6.529c6.335,3.43,11.611,7.757,15.82,12.967
	c4.206,5.219,7.25,11.21,9.133,17.992c1.885,6.78,2.385,13.98,1.495,21.587c-1.196,9.206-4.14,17.342-8.832,24.403
	c-4.69,7.068-10.359,13.613-17,19.645c-6.645,6.034-13.72,11.737-21.226,17.104c-7.51,5.374-14.528,10.977-21.057,16.808
	c-6.529,5.838-12.184,12.191-16.956,19.042c-4.783,6.86-7.656,14.695-8.624,23.51c-0.431,3.603-0.265,7.248,0.511,10.931
	c0.773,3.683,2.221,7.056,4.345,10.117c2.122,3.06,5.028,5.721,8.722,7.971c3.685,2.257,8.241,3.66,13.652,4.208
	c4.993,0.724,9.573,0.16,13.731-1.693c4.154-1.851,7.593-4.402,10.327-7.659c2.729-3.259,4.642-7.068,5.728-11.44
	c1.084-4.366,1.066-8.807-0.052-13.323c-0.99-3.487-2.656-6.625-4.998-9.398c-2.348-2.775-5.073-5.119-8.177-7.034
	c-3.108-1.912-6.506-3.188-10.196-3.834c-3.695-0.639-7.378-0.573-11.061,0.201c0.762-5.6,3.686-10.205,8.759-13.816
	c5.073-3.61,12.814-4.779,23.227-3.507c3.403,0.424,6.958,1.611,10.669,3.562c3.706,1.953,7.013,4.687,9.916,8.2
	c2.898,3.519,5.196,7.855,6.883,13.006c1.687,5.158,2.118,11.034,1.294,17.641c-0.869,7.207-3.081,13.373-6.634,18.492
	c-3.56,5.119-8.008,9.169-13.341,12.159c-5.34,2.987-11.326,5.023-17.953,6.116c-6.627,1.086-13.346,1.21-20.149,0.37
	c-17.826-2.156-30.573-8.711-38.239-19.683C423.08,243.202,420.332,228.619,422.509,210.417"/>
<path fill="#FFFFFF" d="M543.688,218.19c0.993-9.206,3.889-17.428,8.697-24.679c4.799-7.248,10.42-13.841,16.856-19.777
	c6.433-5.933,13.346-11.534,20.751-16.799c7.399-5.267,14.35-10.616,20.856-16.046c6.499-5.431,12.066-11.169,16.691-17.218
	c4.628-6.05,7.392-12.978,8.293-20.777c0.445-3.797,0.237-7.638-0.619-11.525c-0.863-3.886-2.355-7.405-4.468-10.564
	c-2.12-3.159-4.877-5.854-8.261-8.086c-3.391-2.234-7.282-3.69-11.675-4.375c-5.819-0.577-10.612,0.272-14.391,2.535
	c-3.775,2.264-6.684,5.139-8.724,8.615c-2.038,3.483-3.291,7.214-3.745,11.196c-0.458,3.982-0.267,7.303,0.573,9.964
	c0.794,3.261,2.221,6.21,4.276,8.848c2.047,2.64,4.535,4.808,7.449,6.502c2.921,1.691,6.073,2.846,9.466,3.469
	c3.391,0.618,6.823,0.538,10.308-0.251c-0.169,2.618-1.185,5.023-3.04,7.221c-1.853,2.205-4.19,4.074-7.015,5.607
	c-2.825,1.536-5.968,2.597-9.437,3.179c-3.471,0.584-7.002,0.657-10.607,0.226c-3.001-0.392-6.26-1.508-9.777-3.348
	c-3.512-1.842-6.632-4.414-9.343-7.718c-2.713-3.298-4.824-7.319-6.34-12.054c-1.511-4.738-1.869-10.212-1.063-16.415
	c0.445-3.804,1.723-7.96,3.822-12.47c2.109-4.505,5.249-8.594,9.416-12.26c4.169-3.67,9.398-6.559,15.692-8.679
	c6.292-2.116,13.743-2.7,22.36-1.746c8.008,0.922,15.185,3.095,21.523,6.529c6.335,3.43,11.611,7.757,15.817,12.967
	c4.208,5.219,7.253,11.21,9.135,17.992c1.885,6.78,2.385,13.978,1.495,21.587c-1.196,9.206-4.14,17.342-8.832,24.403
	c-4.69,7.068-10.359,13.613-17,19.644c-6.645,6.034-13.718,11.735-21.226,17.105c-7.51,5.374-14.528,10.975-21.057,16.808
	c-6.529,5.838-12.184,12.189-16.956,19.042c-4.783,6.86-7.656,14.695-8.624,23.51c-0.431,3.603-0.265,7.248,0.511,10.931
	c0.773,3.681,2.218,7.056,4.345,10.114c2.122,3.062,5.028,5.724,8.722,7.974c3.686,2.255,8.238,3.66,13.652,4.208
	c4.993,0.724,9.574,0.16,13.732-1.693c4.154-1.851,7.593-4.402,10.327-7.661c2.729-3.257,4.642-7.066,5.728-11.438
	c1.084-4.366,1.066-8.807-0.05-13.323c-0.993-3.489-2.659-6.625-5-9.398c-2.348-2.775-5.073-5.119-8.177-7.036
	c-3.108-1.91-6.506-3.186-10.197-3.832c-3.697-0.641-7.378-0.573-11.059,0.201c0.76-5.6,3.683-10.206,8.756-13.816
	c5.073-3.61,12.814-4.779,23.227-3.508c3.403,0.425,6.958,1.611,10.669,3.562c3.706,1.954,7.013,4.688,9.916,8.2
	c2.901,3.519,5.196,7.855,6.883,13.006c1.687,5.155,2.118,11.034,1.294,17.641c-0.87,7.207-3.081,13.373-6.636,18.492
	c-3.558,5.119-8.006,9.169-13.341,12.159c-5.338,2.987-11.324,5.023-17.951,6.114c-6.627,1.086-13.346,1.212-20.149,0.372
	c-17.826-2.157-30.573-8.711-38.242-19.683C544.258,250.973,541.51,236.392,543.688,218.19"/>
<path fill="#FFFFFF" d="M681.071,275.346c-4.233-0.068-8.348,0.326-12.332,1.175c-3.994,0.858-7.447,1.999-10.363,3.423
	c1.504-4.541,3.909-8.273,7.228-11.191c3.311-2.914,6.887-5.203,10.73-6.874c3.838-1.675,7.599-2.846,11.271-3.519
	c3.679-0.671,6.721-0.931,9.135-0.776c4.427,0.084,8.38,0.639,11.849,1.668c3.462,1.029,6.865,2.209,10.215,3.531
	c3.343,1.326,6.846,2.51,10.52,3.549c3.66,1.045,7.915,1.623,12.753,1.728c4.03,0.059,7.593-0.422,10.683-1.436
	c3.092-1.011,6.091-2.225,9.014-3.658c-1.732,4.934-4.256,8.912-7.577,11.924c-3.323,3.017-6.846,5.313-10.582,6.887
	c-3.731,1.579-7.337,2.661-10.799,3.243c-3.471,0.587-6.31,0.81-8.519,0.669c-4.439-0.084-8.236-0.63-11.397-1.643
	c-3.165-1.009-6.319-2.166-9.459-3.48c-3.149-1.31-6.454-2.483-9.916-3.514C690.053,276.023,685.907,275.455,681.071,275.346
	 M764.071,241.322l-101.892-6.538c1.326-1.727,2.593-4.267,3.818-7.625c0.984-2.757,1.979-6.476,2.99-11.159
	c1.004-4.674,1.734-10.53,2.184-17.565l5.956-92.843c0.45-7.031,0.475-12.933,0.075-17.705c-0.404-4.765-0.913-8.581-1.536-11.447
	c-0.79-3.483-1.723-6.164-2.814-8.051l98.873,6.344l-4.624,29.665l-6.933-0.443c-0.751-4.08-1.536-7.565-2.357-10.445
	c-0.831-2.873-2.186-5.283-4.078-7.221c-1.894-1.94-4.726-3.428-8.492-4.48c-3.768-1.045-9.067-1.794-15.897-2.234l-18.389-1.178
	l-3.569,55.659c6.002,0.787,11.527,1.143,16.58,1.066c5.048-0.08,9.393-0.201,13.038-0.374c4.261-0.331,8.022-0.796,11.289-1.39
	c0.119,1.216,0.144,2.526,0.053,3.93c-0.142,2.207-0.826,4.982-2.049,8.33c-1.203,2.942-3.535,4.756-7.008,5.443
	c-3.478,0.682-6.89,0.413-10.238-0.817l-22.203-7.766l-4.767,74.312c-0.066,1.007,0.105,2.275,0.509,3.811
	c0.404,1.538,1.216,3.044,2.437,4.532c1.214,1.483,2.999,2.761,5.351,3.82c2.353,1.059,5.441,1.707,9.261,1.951l10.55,0.676
	c4.619,0.299,8.394-0.317,11.315-1.846c2.926-1.522,5.333-3.693,7.23-6.495c1.892-2.805,3.407-5.936,4.539-9.398
	c1.127-3.455,2.307-6.967,3.549-10.518l6.933,0.447L764.071,241.322z"/>
</svg>
