<?xml version="1.0" encoding="utf-8"?>
<!-- Generator: Adobe Illustrator 17.0.0, SVG Export Plug-In . SVG Version: 6.00 Build 0)  -->
<!DOCTYPE svg PUBLIC "-//W3C//DTD SVG 1.1//EN" "http://www.w3.org/Graphics/SVG/1.1/DTD/svg11.dtd">
<svg version="1.1" id="Calque_1" xmlns="http://www.w3.org/2000/svg" xmlns:xlink="http://www.w3.org/1999/xlink" x="0px" y="0px"
	 width="886.093px" height="560px" viewBox="0 0 886.093 560" enable-background="new 0 0 886.093 560" xml:space="preserve">
<g>
	<path fill="#FFFFFF" d="M343.658,346.249c-15.383-0.681-30.166,36.292-31.367,63.439c-0.461,10.406,1.381,20.008,5.705,24.733
		c3.42,4.685,8.809,5.83,11.976,5.97c11.764,0.521,22.318-12.612,26.871-23.291c5.89-10.166,9.365-27.239,9.806-37.193
		c0.24-5.429-0.757-13.633-1.069-16.821C352.912,362.525,341.348,357.48,343.658,346.249z"/>
	<path fill="#FFFFFF" d="M669.533,265.922c0.481-10.859-1.914-18.218-6.711-22.51c-2.162-2.362-4.384-3.367-6.194-3.447
		c-9.501-0.42-19.331,16.825-23.591,31.143c-3.275,12.548-4.761,25.629-5.361,39.203c-0.5,11.311,0.436,20.873,2.77,29.589
		c15.159-14.743,25.281-28.348,30.859-41.701C666.39,285.729,669.133,274.971,669.533,265.922z"/>
	<path fill="#FFFFFF" d="M797.768,226.263c0.781-17.646-6.17-34.726-17.482-35.227c-20.36-0.901-32.636,51.143-33.878,79.194
		c-0.6,13.573,0.649,26.322,2.963,35.491C778.405,284.793,796.467,255.672,797.768,226.263z"/>
	<path fill="#FFFFFF" d="M154.031,380.018c-0.132-7.259-4.064-10.606-9.946-10.867c-12.565-0.556-33.749,12.332-47.079,26.123
		c5.339,4.621,13.055,7.732,22.443,8.147C142.524,404.442,154.515,389.559,154.031,380.018z"/>
	<path fill="#FFFFFF" d="M615.272,68.134c0.3-6.787-1.149-15.011-5.674-15.211c-27.822-1.231-54.208,62.962-73.586,154.387
		C585.377,176.108,613.798,101.43,615.272,68.134z"/>
	<path fill="#FFFFFF" d="M844.875,288.641c-5.882-0.26-12.316,1.722-18.398,5.986l-1.69-2.795
		c18.022-28.216,25.99-54.61,26.971-76.78c1.742-39.363-18.855-65.661-49.169-67.002c-23.979-1.061-53.657,13.946-83.39,50.71
		l-3.107-1.498c4.06-9.794,6.803-20.552,7.223-30.054c0.681-15.383-4.208-27.84-16.877-28.4
		c-28.957-1.281-71.026,37.657-103.899,63.403l-1.749-1.437c18.835-36.34,53.041-81.973,55.303-133.1
		c1.481-33.481-14.286-45.966-34.646-46.866c-74.201-3.283-105.168,102.333-116.295,169.387
		c-16.396,11.968-48.608,22.782-73.573,23.491l-1.297-1.417c5.277-6.567,8.332-14.138,8.633-20.925
		c0.581-13.121-7.988-24.38-24.728-25.121c-24.432-1.081-43.823,17.101-45.085,45.605c-0.44,9.954,1.381,20.008,4.268,26.482
		c-17.493,6.026-35.519,13.842-40.24,38.566c-8.144-0.36-22.17-0.981-36.296,0.661c0.781-17.645-16.224-32.905-34.774-33.726
		c-28.504-1.261-49.785,18.65-57.553,40.52c-50.129,5.942-135.194,33.004-149.632,82.686c-3.54-1.97-7.139-2.583-11.211-2.763
		c-13.573-0.601-28.452,7.808-29.233,25.453c-1.141,25.789,21.786,40.404,47.122,41.525c11.311,0.501,21.365-1.321,29.157-3.243
		l2.374,7.812c-20.096,13.617-29.453,30.43-30.154,46.266c-1.141,25.789,20.54,48.056,55.379,49.597
		c37.553,1.662,73.441-30.75,92.387-59.379l2.695,0.573c10.318,12.697,24.616,17.409,39.587,17.165
		c14.971-0.244,33.982-9.83,39.359-18.658c5.622,6.142,13.193,9.197,21.79,9.577c18.098,0.801,39.863-9.569,52.328-24.884
		l1.357,0.06l-11.92,74.726c-1.878,11.703,8.388,15.331,17.437,15.732c7.692,0.34,20.913-1.341,26.522-5.173
		c5.57-2.927,15.199-66.874,15.86-81.805c2.242,0.552,4.032,1.085,6.747,1.205c15.383,0.681,36.676-9.257,48.961-20.5
		c2.947,5.117,7.231,10.747,17.185,11.187c14.478,0.641,32.552-18.506,38.43-38.646l1.357,0.06
		c4.296,15.604,12.925,25.505,29.213,26.226c14.478,0.641,30.262-7.728,45.129-26.11c10.058,18.578,26.126,24.276,44.224,25.077
		c23.075,1.021,54.562-13.906,69.044-44.091c22.871,36.372,47.675,39.283,58.534,39.763c51.579,2.282,96.147-62.385,98.029-104.916
		C873.603,305.325,860.258,289.321,844.875,288.641z M696.116,156.938c6.334,0.28,12.016,5.065,11.716,11.852
		c-0.661,14.931-20.456,21.761-76.011,47.863C637.065,200.565,680.732,156.257,696.116,156.938z M113.951,517.418
		c-24.432-1.081-38.582-19.387-37.781-37.485c0.521-11.764,9.87-18.15,18.919-17.75c8.596,0.38,16.028,6.602,15.587,16.556
		c-0.48,10.859-7.147,7.844-10.142,14.058c-0.492,0.885-1.025,2.675-1.105,4.484c-0.2,4.524,2.686,10.999,15.355,11.559
		c35.743,1.582,46.794-43.263,57.645-83.583c9.314-36.308,21.157-88.824,32.957-109.608
		c-38.578,1.013-115.286,33.885-116.528,61.937c-0.202,4.572,1.148,8.991,3.791,12.846c17.822-22.17,37.442-32.782,51.464-32.161
		c10.406,0.46,17.838,6.683,19.992,19.471c2.426,16.881-21.417,43.479-59.875,41.777c-11.79-0.522-20.884-3.815-27.418-8.826
		c-7.689,3.274-16.313,5.078-24.081,4.734c-21.265-0.941-29.281-14.442-28.861-23.944c0.48-10.859,8.885-16.38,17.934-15.98
		c8.597,0.38,13.353,5.578,14.471,11.067c-0.02,0.452-0.04,0.905-0.08,1.81c-0.22,4.977-3.588,9.361-9.017,9.121
		c-1.81-0.08-2.735,0.332-2.855,3.047c-0.12,2.715,2.887,6.474,11.031,6.835c4.468,0.198,9.988-0.876,15.405-2.709
		c-4.794-6.24-6.964-13.883-6.612-21.835c0.56-12.669,8.42-26.374,23.891-37.929c36.552-26.943,72.716-34.862,125.268-44.324
		c6.631-26.907,28.084-40.464,48.444-39.563c7.239,0.32,15.676,4.32,13.858,14.666c-1.918,12.608-24.124,32.932-51.823,33.974
		c-2.21,8.969-4.561,21.105-6.559,35.523c-1.978,13.966-4.428,28.364-6.919,43.667c-2.47,14.851-5.846,29.661-10.066,43.075
		C188.112,470.379,157.838,519.36,113.951,517.418z M853.587,317.133c-1.481,33.481-35.555,86.374-76.728,84.551
		c-24.908-1.102-45.09-27.288-54.03-60.257c-7.279,29.947-36.373,76.203-74.441,74.519c-17.074-0.755-30.026-15.359-37.418-34.117
		c-13.367,17.448-34.635,37.275-47.923,36.687c-14.478-0.641-18.362-15.319-17.401-37.037c0.781-17.645,4.296-35.623,8.505-59.01
		c1.818-10.346,2.651-18.923,2.951-25.709c0.261-5.882-0.524-8.637-2.787-8.737c-2.262-0.1-6.062,3.812-10.554,13.133
		c-15.9,31.483-29.233,76.68-33.057,111.871c-0.5,11.311-7.315,21.89-16.817,21.469c-1.81-0.08-3.619-0.16-5.389-1.145
		c-1.58-0.879-2.043-2.437-2.04-4.692c-0.004-0.171-0.001-0.43,0.017-0.838c-0.013,0.291-0.017,0.567-0.017,0.838
		c0.08,3.057,3.56-29.67,3.541-29.242c-9.638,23.147-33.633,42.938-60.135,47.659c-2.735,0.332-5.017,0.685-6.827,0.605
		c-3.619-0.16-6.294-1.185-8.889-4.02c-0.865-0.945-1.69-2.795-1.609-4.605c0.16-3.62,3.035-7.119,7.047-5.581
		c1.77,0.985,4.012,1.537,5.862,0.713c3.68-1.197,7.027-5.129,10.927-11.303c8.925-17.285,18.991-60.36,20.232-88.411
		c0.641-14.478-1.161-24.985-7.043-25.245c-2.715-0.12-5.982,2.002-10.334,8.156c-13.71,22.967-22.13,49.341-27.263,73.14
		c-9.69,65.305-17.57,130.689-20.685,139.618c-0.2,4.524-6.655,6.959-12.537,6.698c-5.429-0.24-10.306-2.723-10.126-6.795
		c0.532-1.79,1.658-6.727,2.983-16.188c1.758-8.989,3.636-20.693,5.593-34.206c1.978-13.966,4.469-29.269,7.019-45.929
		c2.57-17.113,5.101-33.321,7.139-48.644c1.365-10.366,2.671-19.375,3.956-27.931c-5.117,2.947-15.624,4.749-19.716,5.021
		c0.312,3.187,0.645,5.922,0.504,9.089c0.312,3.187,0.172,6.354,0.032,9.521c-0.42,9.501-2.198,18.943-4.881,28.344
		c-2.683,9.401-6.23,17.858-10.19,25.389c-3.96,7.531-8.785,14.118-14.002,19.327c-8.052,7.804-19.211,14.11-29.165,13.67
		c-5.43-0.24-11.664-2.783-15.988-7.508c-3.409-3.26-5.867-8.223-7.442-13.604c-4.051,9.405-9.439,17.305-17.019,23.402
		c-6.987,4.224-14.346,6.619-20.68,6.338c-13.573-0.6-17.617-11.659-16.957-26.59c0.541-12.216,3.996-28.837,7.211-40.028
		c1.598-5.369,3.155-9.834,4.16-12.056c0.925-0.412-10.466,0.897-10.406-0.46c-0.46,10.406-23.887,58.33-30.222,58.049
		c-0.453-0.02-0.453-0.02-0.905-0.04c-1.357-0.06-2.202-1.457-2.122-3.267c0.06-1.357,0.573-2.695,1.518-3.559
		c1.95-3.087,22.042-37.105,23.688-53.805c-5.35-2.05-7.824-7.599-7.524-14.386c0.521-11.764,9.345-26.786,21.561-26.246
		c5.429,0.24,7.531,3.96,7.311,8.937c-0.28,6.334-4.28,14.771-7.255,20.532c1.337,0.512,3.127,1.045,4.937,1.125
		c6.786,0.3,17.333-2.406,20.088-3.191c2.755-0.785,4.524,0.2,3.992,1.99c-3.255,12.096-10.07,22.674-11.271,49.821
		c-0.641,14.478,0.236,25.397,9.325,24.893c6.928-0.171,13.818-10.895,18.905-22.068c-0.304-4.549-0.305-8.964-0.11-13.367
		c2.182-49.317,32.548-90.133,61.505-88.852c9.954,0.44,16.833,8.905,19.972,19.924c7.219,0.773,15.031-1.601,22.43-4.901
		l3.363-24.784c0.36-8.144,13.49-17.99,20.729-17.669c3.167,0.14,3.54,1.97,2.947,5.117c-1.365,10.366-3.183,20.712-5.001,31.059
		c11.667-28.044,26.914-55.022,45.465-54.202c7.692,0.34,11.463,7.307,13.818,15.571c1.942,7.339,2.446,16.428,1.986,26.835
		c-0.933,10.839-2.358,22.562-4.689,34.246c-2.33,11.684-5.566,23.327-9.686,34.478c-4.12,11.151-9.085,20.905-14.422,28.828
		c20.528-13.145,35.203-37.429,43.011-60.203c1.065-3.58,15.103-95.438,16.729-111.686c0.878-8.81,1.906-17.548,3.08-26.176
		c-39.655,24.077-95,27.64-117.85,27.898c-23.135,0.336-28.3,14.614-28.54,20.044c-0.08,1.81,1.237,2.775,4.917,1.578
		c2.755-0.785,5.49-1.117,9.109-0.957c7.239,0.32,9.774,4.512,9.514,10.394c-0.06,1.357-0.12,2.715-0.633,4.052
		c-3.708,12.076-13.017,17.557-21.613,17.177c-10.859-0.48-20.905-9.085-20.224-24.468c0.721-16.288,12.32-32.548,47.539-39.603
		c-10.266-3.628-17.277-19.351-16.776-30.662c0.721-16.288,11.023-33.966,30.598-35.819c12.296-1.269,16.853,8.452,16.592,14.334
		c-0.461,10.406-7.448,14.631-13.782,14.35c-9.501-0.42-9.986-9.962-12.68-10.535c-7.199-1.225-10.987,12.66-11.227,18.09
		c-0.741,16.741,14.875,22.418,32.52,23.199c27.663,1.224,68.49-5.962,93.99-19.192c14.981-99.157,49.686-181.105,100.33-182.102
		c14.539-0.717,21.137,14.082,20.456,29.465c-2.027,45.814-50.571,123.069-102.628,152.077
		c-7.581,37.868-13.98,79.91-18.825,123.616c9.958-30.386,37.686-93.532,60.308-92.531c9.502,0.42,9.846,13.129,9.265,26.25
		c-0.56,12.669-3.443,26.594-6.879,42.762c-2.863,13.473-5.213,25.609-7.071,36.86c-1.285,8.557-1.858,11.251-2.138,17.585
		c-0.461,10.406,1.561,15.936,6.086,16.136c9.167,0.406,21.961-11.272,32.184-22.251c-0.744-3.273-0.834-6.823-1.666-11.759
		l-0.432-20.648c-0.027,0.53-0.061,1.052-0.085,1.586c-0.008,0.185-0.017,0.385-0.026,0.593c-0.05,1.118-0.085,1.923-0.11,2.481
		c-0.005,0.121-0.01,0.231-0.015,0.329c-0.017,0.384-0.029,0.646-0.031,0.705c0.002-0.058,0.012-0.28,0.031-0.705
		c0.004-0.098,0.009-0.208,0.015-0.329c0.031-0.71,0.073-1.661,0.11-2.481c0.03-0.683,0.065-1.475,0.106-2.403l0.005,0.224
		c0.608-12.061,2.019-23.298,4.684-34.47c2.33-11.684,6.018-23.307,11.003-33.513c4.533-10.226,10.362-19.035,16.605-26.919
		c5.77-7.451,12.817-13.033,19.804-17.257c5.097-2.495,10.586-3.612,15.111-3.411s8.084,1.718,11.604,4.14
		c7.451,5.77,10.65,15.431,10.09,28.1c-0.54,12.216-5.233,26.062-14.138,42.894c-9.377,17.265-24.264,36.1-44.661,56.504
		c5.201,15.643,15.952,28.812,30.43,29.453c24.432,1.081,43.659-33.881,54.222-57.441l0.085,0.209
		c-1.166-8.425-1.606-17.06-1.226-25.646c2.242-50.674,31.143-130.089,75.935-128.107c23.075,1.021,33.465,22.334,32.384,46.766
		c-1.742,39.363-37.377,76.319-72.612,104.227c7.123,23.435,22.178,41.781,40.728,42.602c24.432,1.081,35.96-23.796,48.272-45.917
		c3.507-7.552,6.795-10.126,9.389-7.291C853.355,312.136,853.687,314.87,853.587,317.133z"/>
	<path d="M486.458,428.659c0.001-0.271,0.005-0.547,0.017-0.838C486.458,428.23,486.454,428.488,486.458,428.659z"/>
	<path d="M217.225,345.187c1.998-14.418,4.348-26.554,6.559-35.523c27.699-1.041,49.905-21.365,51.823-33.974
		c1.818-10.346-6.619-14.346-13.858-14.666c-20.36-0.901-41.813,12.656-48.444,39.563c-52.552,9.461-88.716,17.381-125.268,44.324
		c-15.471,11.555-23.331,25.261-23.891,37.929c-0.352,7.953,1.818,15.595,6.612,21.835c-5.417,1.833-10.937,2.907-15.405,2.709
		c-8.144-0.36-11.151-4.12-11.031-6.835c0.12-2.715,1.045-3.127,2.855-3.047c5.429,0.24,8.797-4.144,9.017-9.121
		c0.04-0.905,0.06-1.357,0.08-1.81c-1.117-5.489-5.874-10.687-14.471-11.067c-9.049-0.4-17.453,5.121-17.934,15.98
		c-0.42,9.501,7.596,23.003,28.861,23.944c7.768,0.344,16.392-1.46,24.081-4.734c6.534,5.011,15.628,8.304,27.418,8.826
		c38.458,1.702,62.302-24.897,59.875-41.777c-2.154-12.789-9.586-19.011-19.992-19.471c-14.021-0.62-33.641,9.991-51.464,32.161
		c-2.644-3.855-3.993-8.274-3.791-12.846c1.241-28.052,77.949-60.924,116.528-61.937c-11.8,20.785-23.643,73.301-32.957,109.608
		c-10.851,40.32-21.902,85.164-57.645,83.583c-12.669-0.56-15.555-7.035-15.355-11.559c0.08-1.81,0.612-3.6,1.105-4.484
		c2.995-6.214,9.662-3.199,10.142-14.058c0.441-9.954-6.991-16.176-15.587-16.556c-9.049-0.4-18.398,5.986-18.919,17.75
		c-0.801,18.098,13.349,36.404,37.781,37.485c43.887,1.942,74.161-47.038,86.289-85.488c4.22-13.413,7.596-28.224,10.066-43.075
		C212.797,373.552,215.248,359.153,217.225,345.187z M144.085,369.151c5.882,0.26,9.814,3.608,9.946,10.867
		c0.484,9.542-11.507,24.424-34.582,23.403c-9.388-0.416-17.104-3.526-22.443-8.147C110.337,381.483,131.52,368.595,144.085,369.151
		z"/>
	<path d="M707.831,168.79c0.3-6.787-5.381-11.571-11.716-11.852c-15.383-0.681-59.051,43.627-64.296,59.715
		C687.375,190.551,707.171,183.72,707.831,168.79z"/>
	<path d="M604.258,337.521c-0.036,0.821-0.079,1.772-0.11,2.481C604.173,339.444,604.209,338.64,604.258,337.521z"/>
	<path d="M842.688,317.557c-12.312,22.122-23.84,46.999-48.272,45.917c-18.55-0.821-33.605-19.167-40.728-42.602
		c35.235-27.908,70.87-64.864,72.612-104.227c1.081-24.432-9.309-45.745-32.384-46.766c-44.792-1.982-73.693,77.432-75.935,128.107
		c-0.38,8.586,0.06,17.221,1.226,25.646l-0.085-0.209c-10.562,23.559-29.79,58.522-54.222,57.441
		c-14.478-0.641-25.229-13.81-30.43-29.453c20.396-20.404,35.283-39.239,44.661-56.504c8.905-16.833,13.598-30.678,14.138-42.894
		c0.56-12.669-2.638-22.33-10.09-28.1c-3.52-2.422-7.079-3.94-11.604-4.14s-10.014,0.917-15.111,3.411
		c-6.987,4.224-14.034,9.806-19.804,17.257c-6.242,7.884-12.072,16.692-16.605,26.919c-4.985,10.206-8.673,21.83-11.003,33.513
		c-2.665,11.173-4.077,22.409-4.684,34.47l0.432,20.648c0.831,4.936,0.922,8.485,1.666,11.759
		c-10.222,10.979-23.016,22.656-32.184,22.251c-4.524-0.2-6.547-5.73-6.086-16.136c0.28-6.334,0.853-9.029,2.138-17.585
		c1.858-11.251,4.208-23.387,7.071-36.86c3.435-16.168,6.318-30.094,6.879-42.762c0.581-13.121,0.236-25.83-9.265-26.25
		c-22.622-1.001-50.35,62.145-60.308,92.531c4.845-43.705,11.244-85.747,18.825-123.616
		c52.057-29.008,100.6-106.262,102.628-152.077c0.681-15.383-5.918-30.182-20.456-29.465
		c-50.644,0.998-85.349,82.946-100.33,182.102c-25.5,13.23-66.328,20.416-93.99,19.192c-17.645-0.781-33.261-6.459-32.52-23.199
		c0.24-5.429,4.028-19.315,11.227-18.09c2.695,0.573,3.179,10.114,12.68,10.535c6.334,0.28,13.321-3.944,13.782-14.35
		c0.26-5.882-4.296-15.603-16.592-14.334c-19.575,1.854-29.878,19.531-30.598,35.819c-0.5,11.311,6.51,27.035,16.776,30.662
		c-35.219,7.055-46.818,23.315-47.539,39.603c-0.681,15.383,9.365,23.988,20.224,24.468c8.597,0.381,17.906-5.101,21.613-17.177
		c0.513-1.337,0.573-2.695,0.633-4.052c0.26-5.882-2.274-10.074-9.514-10.394c-3.619-0.16-6.354,0.172-9.109,0.957
		c-3.68,1.197-4.997,0.232-4.917-1.578c0.24-5.429,5.405-19.707,28.54-20.044c22.85-0.258,78.195-3.821,117.85-27.898
		c-1.174,8.628-2.203,17.366-3.08,26.176c-1.626,16.248-15.663,108.107-16.729,111.686c-7.808,22.775-22.482,47.059-43.011,60.203
		c5.337-7.924,10.302-17.678,14.422-28.828c4.12-11.151,7.356-22.795,9.686-34.478c2.33-11.683,3.756-23.407,4.689-34.246
		c0.46-10.406-0.044-19.495-1.986-26.835c-2.354-8.264-6.126-15.231-13.818-15.571c-18.55-0.821-33.798,26.158-45.465,54.202
		c1.818-10.346,3.635-20.692,5.001-31.059c0.593-3.147,0.22-4.977-2.947-5.117c-7.239-0.32-20.368,9.525-20.729,17.669
		l-3.363,24.784c-7.399,3.299-15.211,5.674-22.43,4.901c-3.139-11.019-10.018-19.483-19.972-19.924
		c-28.957-1.281-59.323,39.535-61.505,88.852c-0.195,4.404-0.194,8.818,0.11,13.367c-5.087,11.172-11.977,21.897-18.905,22.068
		c-9.089,0.505-9.966-10.414-9.325-24.893c1.201-27.147,8.016-37.725,11.271-49.821c0.533-1.79-1.237-2.775-3.992-1.99
		c-2.755,0.785-13.301,3.492-20.088,3.191c-1.81-0.08-3.6-0.613-4.937-1.125c2.975-5.762,6.975-14.198,7.255-20.532
		c0.22-4.977-1.882-8.697-7.311-8.937c-12.216-0.54-21.041,14.482-21.561,26.246c-0.3,6.787,2.174,12.336,7.524,14.386
		c-1.646,16.701-21.738,50.718-23.688,53.805c-0.945,0.865-1.458,2.202-1.518,3.559c-0.08,1.81,0.765,3.207,2.122,3.267
		c0.452,0.02,0.452,0.02,0.905,0.04c6.334,0.28,29.762-47.643,30.222-58.049c-0.06,1.357,11.331,0.048,10.406,0.46
		c-1.005,2.222-2.562,6.687-4.16,12.056c-3.215,11.191-6.671,27.811-7.211,40.028c-0.661,14.931,3.383,25.99,16.957,26.59
		c6.334,0.28,13.694-2.114,20.68-6.338c7.58-6.097,12.967-13.998,17.019-23.402c1.575,5.382,4.032,10.344,7.442,13.604
		c4.324,4.725,10.558,7.267,15.988,7.508c9.953,0.44,21.113-5.866,29.165-13.67c5.217-5.209,10.042-11.796,14.002-19.327
		c3.96-7.531,7.508-15.988,10.19-25.389c2.683-9.401,4.46-18.843,4.881-28.344c0.14-3.167,0.28-6.334-0.032-9.521
		c0.14-3.167-0.192-5.902-0.504-9.089c4.092-0.272,14.599-2.074,19.716-5.021c-1.285,8.557-2.591,17.565-3.956,27.931
		c-2.038,15.323-4.569,31.531-7.139,48.644c-2.551,16.66-5.041,31.964-7.019,45.929c-1.958,13.513-3.836,25.217-5.593,34.206
		c-1.325,9.461-2.451,14.398-2.983,16.188c-0.18,4.072,4.696,6.554,10.126,6.795c5.882,0.26,12.336-2.174,12.537-6.698
		c3.115-8.929,10.995-74.313,20.685-139.618c5.133-23.8,13.553-50.174,27.263-73.14c4.352-6.154,7.62-8.276,10.334-8.156
		c5.882,0.26,7.684,10.767,7.043,25.245c-1.241,28.052-11.307,71.126-20.232,88.411c-3.9,6.174-7.247,10.106-10.927,11.303
		c-1.85,0.825-4.092,0.272-5.862-0.713c-4.012-1.538-6.887,1.962-7.047,5.581c-0.08,1.81,0.745,3.66,1.609,4.605
		c2.595,2.835,5.269,3.86,8.889,4.02c1.81,0.08,4.092-0.272,6.827-0.605c26.502-4.72,50.498-24.512,60.135-47.659
		c0.019-0.429-3.461,32.299-3.541,29.242c-0.003,2.255,0.459,3.812,2.04,4.692c1.77,0.985,3.579,1.065,5.389,1.145
		c9.502,0.42,16.316-10.158,16.817-21.469c3.824-35.191,17.157-80.387,33.057-111.871c4.492-9.321,8.292-13.233,10.554-13.133
		c2.262,0.1,3.047,2.855,2.787,8.737c-0.3,6.787-1.133,15.363-2.951,25.709c-4.208,23.387-7.724,41.365-8.505,59.01
		c-0.961,21.718,2.923,36.396,17.401,37.037c13.288,0.588,34.555-19.239,47.923-36.687c7.392,18.758,20.344,33.362,37.418,34.117
		c38.069,1.685,67.162-44.572,74.441-74.519c8.94,32.969,29.122,59.155,54.03,60.257c41.173,1.822,75.247-51.07,76.728-84.551
		c0.1-2.262-0.232-4.997-1.509-6.867C849.483,307.431,846.196,310.006,842.688,317.557z M609.598,52.923
		c4.524,0.2,5.974,8.424,5.674,15.211c-1.473,33.296-29.894,107.973-79.259,139.175C555.39,115.885,581.776,51.692,609.598,52.923z
		 M366.649,379.906c-0.441,9.954-3.916,27.027-9.806,37.193c-4.553,10.678-15.107,23.811-26.871,23.291
		c-3.167-0.14-8.556-1.285-11.976-5.97c-4.324-4.725-6.166-14.326-5.705-24.733c1.201-27.147,15.984-64.119,31.367-63.439
		c-2.31,11.231,9.253,16.276,21.922,16.837C365.892,366.273,366.889,374.477,366.649,379.906z M630.446,339.899
		c-2.334-8.717-3.271-18.278-2.77-29.589c0.601-13.573,2.086-26.654,5.361-39.203c4.26-14.318,14.09-31.563,23.591-31.143
		c1.81,0.08,4.032,1.085,6.194,3.447c4.797,4.292,7.191,11.652,6.711,22.51c-0.4,9.049-3.143,19.808-8.228,32.276
		C655.727,311.551,645.605,325.156,630.446,339.899z M746.409,270.23c1.241-28.052,13.518-80.095,33.878-79.194
		c11.312,0.501,18.262,17.582,17.482,35.227c-1.301,29.409-19.364,58.53-48.396,79.458
		C747.057,296.552,745.809,283.804,746.409,270.23z"/>
	<path d="M845.807,277.802c31.912-55.255,22.847-137.256-39.883-143.658c-24.825-2.459-52.019,7.671-71.299,33.565
		c3.948-17.505-3.96-43.695-26.13-44.676c-24.432-1.081-50.75,19.968-79.571,46.346c5.91-10.618,41.113-48.047,43.455-100.984
		c2.442-55.199-31.683-62.602-49.781-63.403c-69.677-3.083-109.368,64.067-127.927,176.126
		c-11.751,9.453-27.867,15.087-44.316,17.986c5.013-21.085-8.052-43.423-32.937-44.524c-35.291-1.562-56.872,25.137-58.274,56.808
		c-0.3,6.787,0.284,14.066,1.794,20.933c-15.091,2.959-29.737,16.364-36.813,32.824l-17.233,0.144
		c-3.091-22.35-23.463-33.225-43.371-34.106c-25.789-1.141-53.205,13.966-66.702,42.382
		c-56.031,6.134-133.232,39.891-150.105,83.118c-1.79-0.532-3.6-0.613-5.41-0.693c-17.193-0.761-35.439,12.032-36.44,34.654
		c-1.321,29.862,25.045,48.708,52.644,49.93c6.334,0.28,12.729-0.797,19.143-2.326C61.635,449.823,54.6,465.378,53.92,480.761
		c-1.341,30.314,22.262,60.372,63.435,62.194c48.864,2.162,84.468-44.316,94.902-54.734c9.926,11.319,22.535,13.237,39.315,13.073
		c15.876-0.204,35.751-8.845,42.466-17.161c4.797,4.292,12.408,6.442,20.1,6.783c14.931,0.661,31.952-4.933,40.556-14.979
		c-2.038,15.323-10.286,48.052-10.927,62.53c-0.48,10.859,11.415,18.638,27.251,19.339c8.596,0.38,22.25-0.829,31.951-4.933
		c8.304-3.259,13.962-18.422,22.647-81.505c18.098,0.801,37.641-10.574,41.953-15.823c6.094,5.71,10.519,8.172,20.925,8.633
		c19.455,0.861,30.502-13.157,39.78-28.16c8.941,13.089,20.132,16.304,29.633,16.725c19.003,0.841,35.872-11.559,43.099-21.213
		c9.826,13.581,29.121,18.062,46.766,18.843c25.337,1.121,57.769-14.67,67.387-37.365c11.023,17.261,34.834,32.368,59.267,33.449
		C875.773,450.941,927.348,279.143,845.807,277.802z M872.562,328.852c-1.882,42.53-46.45,107.198-98.029,104.916
		c-10.859-0.48-35.663-3.391-58.534-39.763c-14.482,30.186-45.969,45.112-69.044,44.091c-18.098-0.801-34.166-6.499-44.224-25.077
		c-14.867,18.382-30.65,26.75-45.129,26.11c-16.288-0.721-24.917-10.622-29.213-26.226l-1.357-0.06
		c-5.878,20.14-23.952,39.287-38.43,38.646c-9.954-0.441-14.238-6.07-17.185-11.187c-12.284,11.243-33.577,21.181-48.961,20.5
		c-2.715-0.12-4.504-0.653-6.747-1.205c-0.661,14.931-10.29,78.878-15.86,81.805c-5.609,3.832-18.831,5.513-26.522,5.173
		c-9.049-0.4-19.315-4.028-17.437-15.732l11.92-74.726l-1.357-0.06c-12.465,15.315-34.23,25.685-52.328,24.884
		c-8.596-0.38-16.168-3.435-21.79-9.577c-5.377,8.829-24.388,18.414-39.359,18.658c-14.971,0.244-29.269-4.468-39.587-17.165
		l-2.695-0.573c-18.947,28.628-54.834,61.04-92.387,59.379c-34.838-1.542-56.52-23.808-55.379-49.597
		c0.701-15.836,10.058-32.648,30.154-46.266l-2.374-7.812c-7.792,1.922-17.846,3.744-29.157,3.243
		c-25.337-1.121-48.264-15.736-47.122-41.525c0.781-17.646,15.659-26.054,29.233-25.453c4.072,0.18,7.671,0.793,11.211,2.763
		c14.438-49.681,99.503-76.744,149.632-82.686c7.768-21.87,29.049-41.781,57.553-40.52c18.551,0.821,35.555,16.08,34.774,33.726
		c14.126-1.642,28.152-1.021,36.296-0.661c4.72-24.725,22.746-32.54,40.24-38.566c-2.887-6.474-4.708-16.528-4.268-26.482
		c1.261-28.504,20.652-46.686,45.085-45.605c16.741,0.741,25.309,12,24.728,25.121c-0.3,6.787-3.355,14.358-8.633,20.925
		l1.297,1.417c24.965-0.709,57.176-11.523,73.573-23.491c11.127-67.054,42.094-172.671,116.295-169.387
		c20.36,0.901,36.128,13.385,34.646,46.866c-2.262,51.127-36.468,96.76-55.303,133.1l1.749,1.437
		c32.873-25.745,74.942-64.684,103.899-63.403c12.669,0.561,17.557,13.017,16.877,28.4c-0.42,9.501-3.163,20.26-7.223,30.054
		l3.107,1.498c29.733-36.764,59.411-51.771,83.39-50.71c30.314,1.341,50.91,27.639,49.169,67.002
		c-0.981,22.17-8.949,48.564-26.971,76.78l1.69,2.795c6.082-4.264,12.517-6.246,18.398-5.986
		C860.258,289.321,873.603,305.325,872.562,328.852z"/>
	<path d="M604.258,337.521c0.009-0.208,0.018-0.408,0.026-0.593c0.024-0.533,0.058-1.056,0.085-1.586l-0.005-0.224
		C604.323,336.046,604.288,336.839,604.258,337.521z"/>
	<path d="M604.134,340.331c-0.019,0.425-0.029,0.647-0.031,0.705C604.105,340.978,604.117,340.715,604.134,340.331z"/>
</g>
</svg>
