<?xml version="1.0" encoding="utf-8"?>
<!-- Generator: Adobe Illustrator 17.0.0, SVG Export Plug-In . SVG Version: 6.00 Build 0)  -->
<!DOCTYPE svg PUBLIC "-//W3C//DTD SVG 1.1//EN" "http://www.w3.org/Graphics/SVG/1.1/DTD/svg11.dtd">
<svg version="1.1" id="Calque_1" xmlns="http://www.w3.org/2000/svg" xmlns:xlink="http://www.w3.org/1999/xlink" x="0px" y="0px"
	 width="960px" height="560px" viewBox="0 0 960 560" enable-background="new 0 0 960 560" xml:space="preserve">
<ellipse cx="3318.062" cy="6033.81" rx="904.842" ry="444.738"/>
<ellipse fill="none" stroke="#FFFFFF" stroke-width="24.0283" stroke-miterlimit="10" cx="3318.062" cy="6033.81" rx="864.191" ry="402.352"/>
<text transform="matrix(1 0 0 1 3041.7979 6000.52)"><tspan x="0" y="0" fill="#FFFFFF" font-family="'BalloonXBoold'" font-size="268.0679">VOS</tspan><tspan x="-288.757" y="240.002" fill="#FFFFFF" font-family="'BalloonXBoold'" font-size="268.0679" letter-spacing="10">D</tspan><tspan x="-108.471" y="240.002" fill="#FFFFFF" font-family="'BalloonXBoold'" font-size="268.0679">E</tspan><tspan x="47.377" y="240.002" fill="#FFFFFF" font-family="'BalloonXBoold'" font-size="268.0679" letter-spacing="-5">S</tspan><tspan x="187.781" y="240.002" fill="#FFFFFF" font-family="'BalloonXBoold'" font-size="268.0679">SINS</tspan></text>
<ellipse cx="480.37" cy="280.291" rx="454.15" ry="223.219"/>
<ellipse fill="none" stroke="#FFFFFF" stroke-width="12.0601" stroke-miterlimit="10" cx="480.37" cy="280.291" rx="433.747" ry="201.945"/>
<g>
	<path fill="#FFFFFF" d="M442.581,170.18l-9.683,24.885l-8.028,16.673l-23.588,40.48c-1.987,3.484-3.312,5.752-3.973,6.802
		c-1.877,2.876-4.028,4.313-6.456,4.313c-1.435,0-3.09-0.276-4.965-0.829c-2.704-0.608-4.718-1.106-6.041-1.493
		c-1.822-0.552-3.588-1.286-5.298-2.198c-1.711-0.913-2.828-2.406-3.352-4.479c-0.523-2.074-0.785-4.714-0.785-7.922
		c0-0.884,0-2.24,0-4.064c0-1.825,0-3.152,0-3.982l-0.83-70.093c0-1.161,0-2.045,0-2.654c0-1.713,0.137-3.097,0.415-4.147
		c0.276-1.05,0.884-1.867,1.825-2.447c0.939-0.581,2.239-0.871,3.898-0.871c1.05,0,2.074,0.083,3.069,0.249
		c0.995,0.166,2.101,0.332,3.318,0.498c0.94,0,2.433,0.222,4.479,0.664c2.045,0.443,4.092,0.968,6.138,1.576
		c1.05,0.332,1.949,1.093,2.696,2.281c0.747,1.19,1.12,2.586,1.12,4.189l-1.576,38.738v9.373c0.718-1.161,1.547-2.433,2.489-3.815
		c0.552-0.774,1.161-1.825,1.825-3.152c1.825-3.428,3.953-8.018,6.387-13.77c2.045-4.866,3.787-9.125,5.226-12.774
		c0.773-2.045,1.547-4.092,2.322-6.139c1.382-3.76,2.792-7.52,4.23-11.281c1.935-4.092,4.175-6.138,6.719-6.138
		c0.386,0,0.691,0.028,0.913,0.083l6.553,0.829c1.438,0.222,2.986,0.554,4.646,0.996c0.83,0.222,2.184,0.636,4.064,1.244
		c2.267,0.885,3.401,2.212,3.401,3.982c0,0.664-0.07,1.244-0.207,1.742C443.395,168.023,443.078,168.908,442.581,170.18z"/>
	<path fill="#FFFFFF" d="M520.469,191.083c0,11.281-2.157,22.646-6.471,34.093c-4.535,12-10.451,21.679-17.751,29.033
		c-8.13,8.129-16.922,12.194-26.379,12.194c-9.954,0-17.862-3.401-23.723-10.203c-6.194-7.188-9.291-17.474-9.291-30.857
		c0-11.06,2.654-22.175,7.963-33.346c4.977-10.452,11.322-19.106,19.037-25.964c7.715-6.856,15.166-10.286,22.355-10.286
		c2.543,0,4.313,0.47,5.309,1.41c0.995,0.941,1.493,2.323,1.493,4.147v6.968l5.724-4.894c1.548-1.327,3.097-2.682,4.646-4.064
		c1.879-1.382,3.815-2.074,5.807-2.074c3.483,0,6.331,4.176,8.544,12.525C519.556,176.679,520.469,183.784,520.469,191.083z
		 M491.436,200.623v-8.876c0-2.765-0.056-4.645-0.166-5.641c-0.111-0.996-0.471-3.124-1.078-6.387l-3.981,3.318
		c-3.208,2.71-6.139,5.697-8.793,8.959c-3.762,4.591-6.719,9.374-8.876,14.351c-2.71,6.25-4.064,12.581-4.064,18.996
		c0,3.927,0.581,7.079,1.742,9.457c1.161,2.378,2.848,3.566,5.06,3.566c4.756,0,9.401-4.838,13.936-14.516
		C489.362,215.056,491.436,207.314,491.436,200.623z"/>
	<path fill="#FFFFFF" d="M599.519,165.286c-0.553,4.038-1.106,8.075-1.659,12.111c-0.774,3.872-2.102,6.609-3.981,8.212
		c-2.322,1.991-6.055,2.986-11.198,2.986c-0.995,0-1.825,0-2.488,0c-0.664,0-1.161,0-1.493,0c-2.213,0-3.581-0.152-4.106-0.457
		c-0.525-0.303-1.148-1.257-1.866-2.862l-0.829-1.908h-1.576c-1.771,0-3.332,0.527-4.687,1.58c-1.356,1.052-2.032,2.382-2.032,3.989
		c0,0.721,0.096,1.441,0.29,2.162c0.193,0.72,0.539,1.523,1.037,2.409c1.879,3.547,4.396,7.759,7.548,12.634
		c2.543,3.991,4.23,6.955,5.061,8.894c1.271,3.048,2.128,6.735,2.571,11.056c0.166,1.441,0.249,2.827,0.249,4.157
		c0,9.643-3.181,17.4-9.539,23.274c-7.411,6.816-18.416,10.224-33.015,10.224c-7.355,0-12.581-0.691-15.678-2.074
		c-3.098-1.382-4.646-3.816-4.646-7.3c0-0.332,0.027-0.718,0.083-1.161c0.055-0.442,0.083-0.774,0.083-0.996
		c0.773-5.309,1.382-9.013,1.825-11.115c0.884-4.036,1.935-7.134,3.151-9.291c1.493-2.599,3.318-3.899,5.476-3.899
		c1.437,0,3.428,0.029,5.972,0.083c2.543,0.056,4.479,0.083,5.807,0.083c1.548,0.166,2.626,0.553,3.235,1.161
		c0.607,0.609,0.912,1.41,0.912,2.406c0,0.553-0.111,1.327-0.331,2.323l-0.996,4.562h2.903c1.216,0,2.268-0.11,3.152-0.332
		c3.152-0.83,4.729-2.765,4.729-5.807c0-3.65-1.535-7.866-4.604-12.65c-3.068-4.783-6.069-9.415-9-13.895
		c-3.208-5.419-4.811-10.23-4.811-14.433c0-8.959,4.367-16.839,13.105-23.641c9.291-7.188,20.738-10.784,34.342-10.784
		c4.646,0,8.35,0.415,11.115,1.244c3.982,1.217,5.973,3.235,5.973,6.056C599.602,164.734,599.573,165.065,599.519,165.286z"/>
	<path fill="#FFFFFF" d="M297.234,321.747c0,10.729-3.208,21.097-9.623,31.106c-5.918,9.236-13.562,16.798-22.936,22.687
		c-9.373,5.89-18.457,8.835-27.249,8.835c-4.147,0-7.134-0.553-8.959-1.659c-2.488-1.493-5.862-5.114-10.12-10.866
		c-1.327-1.88-2.074-2.931-2.24-3.152c-1.107-1.714-1.659-3.538-1.659-5.475c0-1.714,0.415-4.285,1.244-7.715l6.802-26.626
		l7.465-22.065c-0.443-0.055-0.775-0.083-0.995-0.083c-1.051,0-1.964,0.139-2.737,0.415c-1.273,0.554-2.517,1.079-3.733,1.576
		c-0.719,0.166-1.452,0.028-2.198-0.415c-0.747-0.442-1.12-0.996-1.12-1.659c0-0.276,0-0.691,0-1.244
		c0-1.604,0.386-3.622,1.16-6.056c0.772-2.433,1.519-4.755,2.237-6.968c1.381-4.811,2.9-7.991,4.557-9.54
		c2.375-2.157,6.988-3.677,13.838-4.562c3.424-0.442,6.657-0.664,9.695-0.664c13.258,0,24.03,3.401,32.317,10.203
		C292.482,295.617,297.234,306.927,297.234,321.747z M269.611,325.562c0-5.419-0.692-9.649-2.074-12.691
		c-1.825-4.092-5.143-7.105-9.954-9.042c-2.544-0.884-3.954-1.354-4.23-1.41c-1.714-0.442-3.815-0.664-6.304-0.664l-4.064,0.332
		c7.742,4.148,11.613,7.272,11.613,9.374c0,0.388-0.056,0.83-0.166,1.327c-0.111,0.498-1.19,4.508-3.235,12.028
		c-0.719,2.544-2.654,9.512-5.806,20.903c-1.051,3.705-2.074,7.383-3.069,11.032c6.58,0,12.774-3.206,18.581-9.622
		C266.708,340.715,269.611,333.525,269.611,325.562z"/>
	<path fill="#FFFFFF" d="M384.071,285.248c-1.051,4.313-2.103,8.6-3.152,12.857c-1.825,5.088-4.425,7.631-7.797,7.631l-34.424-1.576
		c-0.222,1.732,0.649,3.155,2.613,4.272c1.962,1.118,2.999,2.025,3.111,2.722c0.11,0.697,0.166,1.242,0.166,1.632
		c0,0.726-0.028,1.369-0.083,1.927c-0.221,1.34-0.373,2.26-0.456,2.763s-0.153,1.033-0.208,1.592
		c-0.056,0.559-0.083,1.2-0.083,1.926l24.554,0.586c1.05,0,1.949,0.539,2.696,1.618c0.747,1.078,1.12,2.281,1.12,3.608
		c-0.222,1.714-0.775,4.064-1.659,7.051c-1.161,3.871-2.461,7.133-3.899,9.787c-0.664,1.162-1.272,1.908-1.825,2.24
		c-1.161,0.719-3.181,1.078-6.056,1.078c-2.71,0-7.438-0.15-14.185-0.452c-2.378-0.06-5.752-0.241-10.12-0.543l-2.986,14.434h17.585
		c0.664,0,1.369,0,2.115,0s1.506,0,2.281,0c3.76,0,6.249,0.468,7.465,1.4c1.05,0.771,1.493,2.006,1.328,3.707
		c0,2.637-0.249,4.985-0.747,7.045c-0.498,2.061-1.356,4.49-2.572,7.291c-0.83,2.033-1.963,3.406-3.401,4.119
		c-1.051,0.55-2.544,0.824-4.479,0.824c-0.664,0-1.314,0-1.949,0c-0.636,0-1.286,0-1.949,0c-5.088,0-9.637,0.05-13.646,0.149
		c-4.01,0.099-7.702,0.215-11.074,0.349c-4.313,0-7.411-0.401-9.291-1.203c-1.881-0.801-3.596-2.501-5.143-5.101
		c-2.212-3.761-3.513-6.139-3.899-7.134c-0.609-1.493-0.995-3.014-1.161-4.562c0-0.718,0.042-1.41,0.125-2.074
		c0.083-0.663,0.234-1.464,0.456-2.405l4.313-16.01c-1.604-0.441-2.627-0.801-3.069-1.078c-1.051-0.607-1.631-1.327-1.742-2.157
		c-0.111-0.829-0.166-1.575-0.166-2.239c0-1.271,0.166-2.765,0.498-4.479c0.11-0.498,0.386-1.659,0.83-3.484
		c0.664-2.488,1.576-4.99,2.737-7.507c1.162-2.516,2.101-3.884,2.82-4.106c1.493-0.498,2.765-0.747,3.816-0.747
		c0.608,0,1.299,0.083,2.074,0.249l5.392-16.59l-5.392,0.249c-1.161,0-2.102-0.5-2.82-1.502c-0.719-1-0.995-2.085-0.83-3.254
		c0.386-1.669,0.954-3.769,1.701-6.301c0.747-2.531,1.576-5.285,2.488-8.262c0.913-2.976,1.95-4.938,3.111-5.885
		c1.713-1.446,4.866-2.169,9.457-2.169h44.13c4.479,0,7.686,0.636,9.622,1.908c1.382,0.885,2.074,2.103,2.074,3.65
		c0,0.388-0.056,0.775-0.166,1.161C384.208,284.64,384.125,284.972,384.071,285.248z"/>
	<path fill="#FFFFFF" d="M458.809,285.746c-0.553,4.038-1.106,8.075-1.659,12.111c-0.774,3.872-2.102,6.609-3.981,8.212
		c-2.322,1.991-6.055,2.986-11.198,2.986c-0.995,0-1.825,0-2.488,0s-1.162,0-1.493,0c-2.212,0-3.581-0.152-4.106-0.457
		c-0.526-0.303-1.148-1.257-1.867-2.862l-0.829-1.908h-1.576c-1.771,0-3.333,0.527-4.687,1.58c-1.355,1.052-2.032,2.382-2.032,3.989
		c0,0.721,0.096,1.441,0.291,2.162c0.193,0.72,0.539,1.523,1.037,2.409c1.879,3.547,4.396,7.759,7.549,12.634
		c2.543,3.991,4.23,6.955,5.06,8.894c1.271,3.048,2.128,6.734,2.571,11.056c0.166,1.441,0.249,2.826,0.249,4.156
		c0,9.644-3.181,17.4-9.54,23.274c-7.411,6.816-18.415,10.224-33.014,10.224c-7.355,0-12.582-0.691-15.678-2.074
		c-3.098-1.381-4.646-3.815-4.646-7.3c0-0.331,0.027-0.718,0.083-1.161c0.054-0.441,0.083-0.773,0.083-0.995
		c0.774-5.309,1.382-9.013,1.825-11.115c0.884-4.036,1.935-7.134,3.152-9.291c1.493-2.599,3.318-3.898,5.475-3.898
		c1.438,0,3.428,0.028,5.973,0.083c2.543,0.056,4.479,0.083,5.807,0.083c1.547,0.166,2.625,0.554,3.235,1.161
		c0.608,0.609,0.913,1.41,0.913,2.405c0,0.554-0.112,1.328-0.332,2.323l-0.995,4.562h2.903c1.215,0,2.267-0.11,3.152-0.332
		c3.152-0.83,4.728-2.765,4.728-5.807c0-3.649-1.534-7.866-4.604-12.65c-3.069-4.782-6.07-9.414-9-13.894
		c-3.208-5.419-4.812-10.23-4.812-14.433c0-8.959,4.368-16.839,13.106-23.641c9.291-7.188,20.738-10.784,34.342-10.784
		c4.645,0,8.349,0.415,11.114,1.244c3.982,1.217,5.973,3.235,5.973,6.056C458.892,285.194,458.863,285.525,458.809,285.746z"/>
	<path fill="#FFFFFF" d="M529.278,285.746c-0.553,4.038-1.106,8.075-1.659,12.111c-0.774,3.872-2.102,6.609-3.981,8.212
		c-2.322,1.991-6.055,2.986-11.198,2.986c-0.995,0-1.825,0-2.488,0c-0.664,0-1.161,0-1.493,0c-2.213,0-3.581-0.152-4.106-0.457
		c-0.525-0.303-1.148-1.257-1.866-2.862l-0.829-1.908h-1.576c-1.771,0-3.332,0.527-4.687,1.58c-1.356,1.052-2.032,2.382-2.032,3.989
		c0,0.721,0.096,1.441,0.29,2.162c0.193,0.72,0.539,1.523,1.037,2.409c1.879,3.547,4.396,7.759,7.548,12.634
		c2.543,3.991,4.23,6.955,5.061,8.894c1.271,3.048,2.128,6.734,2.571,11.056c0.166,1.441,0.249,2.826,0.249,4.156
		c0,9.644-3.181,17.4-9.539,23.274c-7.411,6.816-18.416,10.224-33.015,10.224c-7.355,0-12.581-0.691-15.677-2.074
		c-3.098-1.381-4.646-3.815-4.646-7.3c0-0.331,0.027-0.718,0.083-1.161c0.054-0.441,0.083-0.773,0.083-0.995
		c0.774-5.309,1.382-9.013,1.825-11.115c0.884-4.036,1.935-7.134,3.151-9.291c1.493-2.599,3.318-3.898,5.476-3.898
		c1.437,0,3.428,0.028,5.972,0.083c2.543,0.056,4.479,0.083,5.807,0.083c1.548,0.166,2.626,0.554,3.235,1.161
		c0.607,0.609,0.912,1.41,0.912,2.405c0,0.554-0.111,1.328-0.331,2.323l-0.996,4.562h2.903c1.216,0,2.268-0.11,3.152-0.332
		c3.152-0.83,4.729-2.765,4.729-5.807c0-3.649-1.535-7.866-4.604-12.65c-3.068-4.782-6.069-9.414-9-13.894
		c-3.208-5.419-4.811-10.23-4.811-14.433c0-8.959,4.367-16.839,13.105-23.641c9.291-7.188,20.738-10.784,34.342-10.784
		c4.646,0,8.35,0.415,11.115,1.244c3.982,1.217,5.973,3.235,5.973,6.056C529.361,285.194,529.333,285.525,529.278,285.746z"/>
	<path fill="#FFFFFF" d="M576.642,285.746c0,1.107-0.207,2.24-0.622,3.401c-0.414,1.161-0.788,2.239-1.119,3.235
		c-2.986,11.337-5.973,22.646-8.959,33.927c-3.871,14.545-7.134,26.71-9.788,36.498c-3.152,11.503-5.047,17.834-5.683,18.996
		c-0.636,1.161-1.632,2.032-2.985,2.612c-1.356,0.581-2.891,0.871-4.604,0.871c-0.995,0-2.144-0.097-3.442-0.29
		c-1.3-0.194-2.586-0.456-3.857-0.788c-3.373-0.773-5.696-1.493-6.968-2.157c-2.268-1.161-3.649-2.874-4.147-5.143
		c-0.222-0.718-0.332-1.604-0.332-2.654c0-1.493,0.304-3.455,0.913-5.89c0.22-0.829,0.829-2.958,1.825-6.387
		c0.275-1.604,2.377-9.042,6.304-22.314c1.77-5.972,5.419-18.137,10.949-36.498c3.982-13.327,6.098-20.53,6.346-21.609
		c0.249-1.078,1.369-1.908,3.36-2.488c1.99-0.581,4.23-0.871,6.719-0.871c0.939,0,1.659,0.028,2.156,0.083
		c0.498,0.056,1.244,0.166,2.24,0.332c3.926,0.83,6.524,1.522,7.797,2.074C575.342,281.847,576.642,283.535,576.642,285.746z"/>
	<path fill="#FFFFFF" d="M670.043,288.416c0,1.053-0.194,2.298-0.581,3.738c-0.663,2.438-0.995,3.685-0.995,3.739
		c-0.829,4.154-2.186,9.804-4.064,16.949c-1.881,7.146-3.815,14.041-5.807,20.687c-0.829,2.88-2.239,7.422-4.23,13.626
		c-1.991,6.203-3.954,12.379-5.89,18.526c-1.937,6.148-2.903,9.416-2.903,9.804c0,0.665,0.138,1.689,0.415,3.074
		c0.11,0.555,0.166,1.081,0.166,1.578c0,0.39-0.056,0.859-0.166,1.413c-0.111,0.555-0.83,1.025-2.157,1.413s-3.098,0.58-5.309,0.58
		c-3.649,0-7.341-0.499-11.074-1.497c-3.732-0.998-6.511-2.329-8.336-3.993c-0.609-0.499-1.3-2.662-2.074-6.489
		c-0.388-1.83-0.968-5.407-1.742-10.731l-5.558-34.026l-13.77,50.102c-0.775,2.82-1.493,4.632-2.156,5.434
		c-0.664,0.802-1.742,1.202-3.235,1.202c-0.72,0-1.397,0-2.032,0c-0.637,0-1.231,0-1.783,0c-0.332,0-0.913,0-1.742,0
		c-3.43,0-6.609-0.497-9.539-1.493c-3.816-1.327-5.724-3.151-5.724-5.475c0-1.879,0.22-3.677,0.663-5.392l24.72-85.024
		c0.497-2.101,1.244-3.733,2.239-4.894c1.216-1.493,2.765-2.24,4.646-2.24c0.276,0,0.801,0.056,1.576,0.166
		c5.86,1.051,9.566,1.825,11.115,2.322c4.092,1.273,7.188,3.208,9.29,5.807c1.604,2.046,3.069,5.448,4.396,10.203
		c1.161,4.479,2.35,8.958,3.567,13.438l3.483,11.862l2.074-9.539c0.607-3.097,1.742-8.074,3.4-14.931
		c1.659-6.856,2.958-11.862,3.899-15.014c0.331-1.162,0.967-2.184,1.907-3.069c1.162-1.105,2.323-1.521,3.484-1.244
		c3.87,0.389,7.354,1.052,10.452,1.993C666.918,282.905,670.043,285.37,670.043,288.416z"/>
	<path fill="#FFFFFF" d="M744.448,285.746c-0.553,4.038-1.106,8.075-1.659,12.111c-0.774,3.872-2.102,6.609-3.981,8.212
		c-2.322,1.991-6.055,2.986-11.198,2.986c-0.995,0-1.825,0-2.488,0c-0.664,0-1.161,0-1.493,0c-2.213,0-3.581-0.152-4.106-0.457
		c-0.525-0.303-1.148-1.257-1.866-2.862l-0.829-1.908h-1.576c-1.771,0-3.332,0.527-4.687,1.58c-1.356,1.052-2.032,2.382-2.032,3.989
		c0,0.721,0.096,1.441,0.29,2.162c0.193,0.72,0.539,1.523,1.037,2.409c1.879,3.547,4.396,7.759,7.548,12.634
		c2.543,3.991,4.23,6.955,5.061,8.894c1.271,3.048,2.128,6.734,2.571,11.056c0.166,1.441,0.249,2.826,0.249,4.156
		c0,9.644-3.181,17.4-9.539,23.274c-7.411,6.816-18.416,10.224-33.015,10.224c-7.355,0-12.581-0.691-15.678-2.074
		c-3.098-1.381-4.646-3.815-4.646-7.3c0-0.331,0.027-0.718,0.083-1.161c0.055-0.441,0.083-0.773,0.083-0.995
		c0.773-5.309,1.382-9.013,1.825-11.115c0.884-4.036,1.935-7.134,3.151-9.291c1.493-2.599,3.318-3.898,5.476-3.898
		c1.437,0,3.428,0.028,5.972,0.083c2.543,0.056,4.479,0.083,5.807,0.083c1.548,0.166,2.626,0.554,3.235,1.161
		c0.607,0.609,0.912,1.41,0.912,2.405c0,0.554-0.111,1.328-0.331,2.323l-0.996,4.562h2.903c1.216,0,2.268-0.11,3.152-0.332
		c3.152-0.83,4.729-2.765,4.729-5.807c0-3.649-1.535-7.866-4.604-12.65c-3.068-4.782-6.069-9.414-9-13.894
		c-3.208-5.419-4.811-10.23-4.811-14.433c0-8.959,4.367-16.839,13.105-23.641c9.291-7.188,20.738-10.784,34.342-10.784
		c4.646,0,8.35,0.415,11.115,1.244c3.982,1.217,5.973,3.235,5.973,6.056C744.531,285.194,744.503,285.525,744.448,285.746z"/>
</g>
</svg>
